<svg xmlns="http://www.w3.org/2000/svg" xmlns:xlink="http://www.w3.org/1999/xlink" width="200" zoomAndPan="magnify" viewBox="0 0 150 149.999998" height="200" preserveAspectRatio="xMidYMid meet" version="1.0"><defs><clipPath id="8ad6ae4938"><path d="M 0.00390625 54 L 149.96875 54 L 149.96875 97.375 L 0.00390625 97.375 Z M 0.00390625 54 " clip-rule="nonzero"/></clipPath><clipPath id="e6619a42ad"><path d="M 0.00390625 52.625 L 149.96875 52.625 L 149.96875 96 L 0.00390625 96 Z M 0.00390625 52.625 " clip-rule="nonzero"/></clipPath></defs><g clip-path="url(#8ad6ae4938)"><path fill="#3d78b8" d="M 149.96875 76.148438 C 149.96875 87.867188 140.46875 97.367188 128.753906 97.367188 L 21.246094 97.367188 C 9.53125 97.367188 0.03125 87.867188 0.03125 76.148438 C 0.03125 64.433594 9.53125 54.933594 21.246094 54.933594 L 128.753906 54.933594 C 140.46875 54.933594 149.96875 64.433594 149.96875 76.148438 Z M 149.96875 76.148438 " fill-opacity="1" fill-rule="evenodd"/></g><g clip-path="url(#e6619a42ad)"><path fill="#ffffff" d="M 149.96875 73.839844 C 149.96875 85.558594 140.46875 95.058594 128.753906 95.058594 L 21.246094 95.058594 C 9.53125 95.058594 0.03125 85.558594 0.03125 73.839844 C 0.03125 62.125 9.53125 52.625 21.246094 52.625 L 128.753906 52.625 C 140.46875 52.625 149.96875 62.125 149.96875 73.839844 Z M 149.96875 73.839844 " fill-opacity="1" fill-rule="evenodd"/></g><path fill="#14213d" d="M 148.03125 73.839844 C 148.03125 84.695312 139.230469 93.496094 128.375 93.496094 L 21.625 93.496094 C 10.769531 93.496094 1.96875 84.695312 1.96875 73.839844 C 1.96875 62.984375 10.769531 54.1875 21.625 54.1875 L 128.375 54.1875 C 139.230469 54.1875 148.03125 62.984375 148.03125 73.839844 Z M 148.03125 73.839844 " fill-opacity="1" fill-rule="evenodd"/><path fill="#ffffff" d="M 41.019531 74.816406 L 41.019531 76.941406 L 43.503906 76.941406 C 44.011719 76.941406 44.402344 76.855469 44.664062 76.679688 C 44.929688 76.503906 45.058594 76.238281 45.058594 75.878906 C 45.058594 75.519531 44.929688 75.25 44.664062 75.078125 C 44.402344 74.902344 44.011719 74.816406 43.503906 74.816406 Z M 54.402344 71.507812 L 53.058594 74.859375 L 55.746094 74.859375 Z M 41.019531 70.742188 L 41.019531 72.761719 L 43.054688 72.761719 C 43.554688 72.761719 43.925781 72.679688 44.175781 72.507812 C 44.429688 72.339844 44.550781 72.082031 44.550781 71.746094 C 44.550781 71.40625 44.429688 71.152344 44.175781 70.988281 C 43.925781 70.824219 43.554688 70.742188 43.054688 70.742188 Z M 72.449219 68.597656 L 75.386719 68.597656 L 75.386719 72.953125 L 79.441406 68.597656 L 82.707031 68.597656 L 78.425781 73.238281 L 82.933594 79.082031 L 79.488281 79.082031 L 76.484375 75.277344 L 75.386719 76.457031 L 75.386719 79.082031 L 72.449219 79.082031 Z M 52.964844 68.597656 L 55.886719 68.597656 L 60.527344 79.082031 L 57.441406 79.082031 L 56.625 77.046875 L 52.179688 77.046875 L 51.363281 79.082031 L 48.335938 79.082031 Z M 38.082031 68.597656 L 43.445312 68.597656 C 44.820312 68.597656 45.851562 68.851562 46.527344 69.355469 C 47.207031 69.859375 47.546875 70.519531 47.546875 71.339844 C 47.546875 71.878906 47.40625 72.351562 47.121094 72.753906 C 46.90625 73.058594 46.628906 73.3125 46.285156 73.523438 L 46.113281 73.613281 L 46.320312 73.683594 C 46.867188 73.910156 47.292969 74.234375 47.597656 74.65625 C 47.902344 75.082031 48.058594 75.597656 48.058594 76.207031 C 48.058594 77.117188 47.6875 77.824219 46.957031 78.328125 C 46.222656 78.832031 45.152344 79.082031 43.742188 79.082031 L 38.082031 79.082031 Z M 66.597656 68.390625 C 67.5625 68.390625 68.429688 68.558594 69.191406 68.898438 C 69.957031 69.238281 70.59375 69.726562 71.105469 70.367188 L 69.214844 72.074219 C 68.875 71.675781 68.503906 71.371094 68.101562 71.160156 C 67.695312 70.949219 67.242188 70.847656 66.746094 70.847656 C 66.316406 70.847656 65.921875 70.914062 65.5625 71.054688 C 65.203125 71.195312 64.898438 71.398438 64.640625 71.664062 C 64.386719 71.925781 64.1875 72.242188 64.042969 72.613281 C 63.898438 72.984375 63.824219 73.390625 63.824219 73.839844 C 63.824219 74.289062 63.898438 74.699219 64.042969 75.070312 C 64.1875 75.4375 64.386719 75.757812 64.640625 76.019531 C 64.898438 76.285156 65.203125 76.488281 65.5625 76.628906 C 65.921875 76.765625 66.316406 76.835938 66.746094 76.835938 C 67.242188 76.835938 67.695312 76.730469 68.101562 76.523438 C 68.503906 76.3125 68.875 76.007812 69.214844 75.609375 L 71.105469 77.316406 C 70.59375 77.945312 69.957031 78.433594 69.191406 78.777344 C 68.429688 79.121094 67.5625 79.292969 66.597656 79.292969 C 65.765625 79.292969 65 79.160156 64.296875 78.898438 C 63.59375 78.632812 62.984375 78.253906 62.46875 77.765625 C 61.957031 77.277344 61.550781 76.699219 61.261719 76.035156 C 60.972656 75.371094 60.828125 74.640625 60.828125 73.839844 C 60.828125 73.042969 60.972656 72.3125 61.261719 71.648438 C 61.550781 70.984375 61.957031 70.40625 62.46875 69.917969 C 62.984375 69.429688 63.59375 69.050781 64.296875 68.785156 C 65 68.523438 65.765625 68.390625 66.597656 68.390625 Z M 66.597656 68.390625 " fill-opacity="1" fill-rule="evenodd"/><path fill="#ffffff" d="M 127.015625 66.167969 C 126.792969 66.152344 126.539062 66.246094 126.269531 66.460938 L 118.589844 72.601562 C 117.722656 73.292969 117.722656 74.414062 118.589844 75.109375 L 122.429688 78.175781 L 126.269531 81.246094 C 127.132812 81.9375 127.839844 81.375 127.839844 79.992188 L 127.839844 77.003906 L 135.457031 77.003906 C 136.125 77.003906 136.671875 76.460938 136.671875 75.792969 L 136.671875 71.917969 C 136.671875 71.246094 136.125 70.703125 135.457031 70.703125 L 127.839844 70.703125 L 127.839844 67.714844 C 127.839844 66.765625 127.507812 66.199219 127.015625 66.167969 Z M 127.304688 58.996094 C 135.507812 58.996094 142.164062 65.648438 142.164062 73.855469 C 142.164062 82.058594 135.507812 88.710938 127.304688 88.710938 C 119.101562 88.710938 112.445312 82.058594 112.445312 73.855469 C 112.445312 65.648438 119.101562 58.996094 127.304688 58.996094 Z M 127.304688 58.996094 " fill-opacity="1" fill-rule="evenodd"/></svg>