<svg xmlns="http://www.w3.org/2000/svg" width="200" viewBox="0 0 150 150" height="200" version="1.0"><defs><clipPath id="a"><path d="M.004 54h149.965v43.375H.004Zm0 0"/></clipPath><clipPath id="b"><path d="M.004 52.625h149.965V96H.004Zm0 0"/></clipPath></defs><g clip-path="url(#a)"><path fill="#3d78b8" d="M149.969 76.148c0 11.72-9.5 21.22-21.215 21.22H21.246c-11.715 0-21.215-9.5-21.215-21.22 0-11.714 9.5-21.214 21.215-21.214h107.508c11.715 0 21.215 9.5 21.215 21.214Zm0 0" fill-rule="evenodd"/></g><g clip-path="url(#b)"><path fill="#fff" d="M149.969 73.84c0 11.719-9.5 21.219-21.215 21.219H21.246c-11.715 0-21.215-9.5-21.215-21.22 0-11.714 9.5-21.214 21.215-21.214h107.508c11.715 0 21.215 9.5 21.215 21.215Zm0 0" fill-rule="evenodd"/></g><path fill="#14213d" d="M148.031 73.84c0 10.855-8.8 19.656-19.656 19.656H21.625c-10.855 0-19.656-8.8-19.656-19.656 0-10.856 8.8-19.653 19.656-19.653h106.75c10.855 0 19.656 8.797 19.656 19.653Zm0 0" fill-rule="evenodd"/><path fill="#fff" d="M41.02 74.816v2.125h2.484c.508 0 .898-.086 1.16-.261.266-.176.395-.442.395-.801 0-.36-.13-.629-.395-.8-.262-.177-.652-.263-1.16-.263Zm13.382-3.308-1.343 3.351h2.687Zm-13.382-.766v2.02h2.035c.5 0 .87-.082 1.12-.254.255-.168.376-.426.376-.762 0-.34-.121-.594-.375-.758-.25-.164-.621-.246-1.121-.246Zm31.43-2.144h2.937v4.355l4.054-4.355h3.266l-4.281 4.64 4.508 5.844h-3.446l-3.004-3.805-1.097 1.18v2.625h-2.938Zm-19.485 0h2.922l4.64 10.484h-3.086l-.816-2.035H52.18l-.817 2.035h-3.027Zm-14.883 0h5.363c1.375 0 2.407.254 3.082.757.68.504 1.02 1.165 1.02 1.985 0 .539-.14 1.012-.426 1.414a2.782 2.782 0 0 1-.836.77l-.172.09.207.07c.547.226.973.55 1.278.972.304.426.46.942.46 1.551 0 .91-.37 1.617-1.101 2.121-.734.504-1.805.754-3.215.754h-5.66Zm28.516-.207c.965 0 1.832.168 2.593.507.766.34 1.403.829 1.914 1.47l-1.89 1.706a3.777 3.777 0 0 0-1.113-.914 2.898 2.898 0 0 0-1.356-.312c-.43 0-.824.066-1.183.207a2.57 2.57 0 0 0-.922.61 2.807 2.807 0 0 0-.598.948 3.343 3.343 0 0 0-.219 1.227c0 .45.074.86.219 1.23.144.368.344.688.598.95.257.265.562.468.921.609.36.137.754.207 1.184.207.496 0 .95-.106 1.356-.313.402-.21.773-.515 1.113-.914l1.89 1.707a5.147 5.147 0 0 1-1.914 1.461c-.761.344-1.629.516-2.593.516a6.541 6.541 0 0 1-2.301-.395 5.406 5.406 0 0 1-1.828-1.132 5.293 5.293 0 0 1-1.207-1.73 5.438 5.438 0 0 1-.434-2.196c0-.797.145-1.528.434-2.192a5.293 5.293 0 0 1 1.207-1.73 5.406 5.406 0 0 1 1.828-1.133 6.541 6.541 0 0 1 2.3-.394ZM127.016 66.168c-.223-.016-.477.078-.746.293l-7.68 6.14c-.867.692-.867 1.813 0 2.508l3.84 3.067 3.84 3.07c.863.692 1.57.129 1.57-1.254v-2.988h7.617c.668 0 1.215-.543 1.215-1.211v-3.875c0-.672-.547-1.215-1.215-1.215h-7.617v-2.988c0-.95-.332-1.516-.824-1.547Zm.289-7.172c8.203 0 14.86 6.652 14.86 14.86 0 8.203-6.657 14.855-14.86 14.855s-14.86-6.652-14.86-14.856c0-8.207 6.657-14.859 14.86-14.859Zm0 0" fill-rule="evenodd"/></svg>