<svg xmlns="http://www.w3.org/2000/svg" xmlns:xlink="http://www.w3.org/1999/xlink" width="200" zoomAndPan="magnify" viewBox="0 0 150 149.999998" height="200" preserveAspectRatio="xMidYMid meet" version="1.0"><path fill="#ffffff" d="M 68.660156 76.183594 L 90.6875 98.210938 C 93.949219 101.472656 93.949219 106.734375 90.6875 109.996094 C 87.449219 113.246094 82.164062 113.246094 78.914062 109.996094 L 52.160156 83.242188 C 47.621094 78.703125 47.621094 71.296875 52.160156 66.757812 L 78.914062 40.003906 C 82.164062 36.753906 87.449219 36.753906 90.6875 40.003906 C 93.949219 43.253906 93.949219 48.527344 90.6875 51.777344 L 68.660156 73.828125 C 68.007812 74.480469 68.007812 75.53125 68.660156 76.183594 Z M 75 0 C 33.585938 0 0 33.570312 0 75 C 0 116.414062 33.585938 150 75 150 C 116.429688 150 150 116.414062 150 75 C 150 33.570312 116.429688 0 75 0 " fill-opacity="1" fill-rule="nonzero"/></svg>