<svg xmlns="http://www.w3.org/2000/svg" width="200" viewBox="0 0 150 150" height="200" version="1.0"><defs><clipPath id="a"><path d="M0 2.438h150v145.5H0Zm0 0"/></clipPath></defs><g clip-path="url(#a)"><path fill="#fff" d="M26.52 147.887a3.97 3.97 0 0 1-3.961-3.969v-20.52a7.38 7.38 0 0 1-1.133.09c-2.387 0-4.602-1.285-5.766-3.328a2007.925 2007.925 0 0 0-8.324-14.328c-.934-1.578-1.195-3.414-.7-5.168.466-1.75 1.66-3.238 3.231-4.113l.203-.117-8.383-15.235a11.217 11.217 0 0 1-1.105-7.761c.086-.38.203-.817.348-1.258a11.063 11.063 0 0 1 5.097-6.04l7.16-3.94c2.735-1.516 6.141-1.778 9.051-.727.64.23 1.254.523 1.836.875.38-1.664.813-3.301 1.309-4.934a97.274 97.274 0 0 1 1.281-3.734 69.633 69.633 0 0 1 3.113-6.89L25.5 24.261c-.379-2.016.059-4.145 1.25-5.809 1.164-1.691 3.027-2.832 5.04-3.152l1.483-.235L112.45 2.578c.438-.058.875-.09 1.309-.09 4.047 0 7.48 2.89 8.21 6.887l2.009 11.324c.699-.406 1.457-.699 2.242-.875a7.966 7.966 0 0 1 1.66-.176c8.992 0 16.328 15.032 19.59 29.946 2.297 10.535 2.531 20.691.61 27.316v67.008a3.967 3.967 0 0 1-3.958 3.969Zm0 0"/></g><path fill="#ffcc51" d="M144.441 76.207v67.711H96.758l-5.266-2.25-5.27 2.25H26.868V75.102c.031-1.051.059-2.102.145-3.125a57.739 57.739 0 0 1 2.535-13.368 35.28 35.28 0 0 1 1.223-3.5 59.348 59.348 0 0 1 3.578-7.648 57.228 57.228 0 0 1 4.222-6.535 62.285 62.285 0 0 1 2.446-3.067c.203-.261.437-.496.64-.757a58.735 58.735 0 0 1 6.578-6.391c.407-.352.844-.672 1.25-1.023a72.427 72.427 0 0 1 3-2.188c.496-.352 1.02-.672 1.512-1.02 1.223-.761 2.445-1.52 3.7-2.19.058-.028.117-.06.202-.087.582-.32 1.192-.613 1.778-.906a58.28 58.28 0 0 1 12.34-4.465 58.232 58.232 0 0 1 13.625-1.605c3.199 0 6.343.261 9.402.757 4.074.645 7.977 1.723 11.73 3.153 1.891.73 3.754 1.547 5.532 2.48 2.21 1.11 4.336 2.395 6.375 3.766.465.32.93.644 1.367.965.64.437 1.25.902 1.832 1.398.234.176.469.352.7.555.03 0 .03.031.058.058 1.601 1.286 3.117 2.688 4.57 4.145.496.496 1.02 1.023 1.484 1.547a55.448 55.448 0 0 1 3.61 4.289 57.575 57.575 0 0 1 6.289 10.246 58.104 58.104 0 0 1 2.27 5.398c0 .028.03.086.058.145a.591.591 0 0 1 .059.207c.175.465.347.934.496 1.398 0 .032.027.059.027.09.027.086.059.172.086.262.031.086.059.176.09.262.289.875.55 1.75.754 2.656.03.117.058.234.09.351.347 1.254.609 2.567.87 3.852.032.117.06.234.06.348.292 1.52.495 3.066.64 4.613 0 .117.031.262.031.379.086.816.145 1.633.172 2.453 0 .117.031.262.031.379.028.582.059 1.168.059 1.75v.351c.058.29.058.497.058.727Zm0 0"/><path fill="#fad2a7" d="M36.387 67.715a3.383 3.383 0 0 1-3.375 3.387 3.384 3.384 0 0 1-3.38-3.387 3.383 3.383 0 0 1 3.38-3.383 3.363 3.363 0 0 1 3.375 3.383ZM96.758 143.918H86.223a5.276 5.276 0 0 1 5.27-5.11 5.275 5.275 0 0 1 5.265 5.11ZM135.36 137.352c0 .46-.09.902-.266 1.328-.176.425-.426.8-.75 1.125-.324.328-.7.578-1.125.754a3.426 3.426 0 0 1-2.649 0 3.373 3.373 0 0 1-1.125-.754 3.422 3.422 0 0 1-.75-1.125 3.464 3.464 0 0 1 0-2.66 3.463 3.463 0 0 1 5.649-1.125c.324.324.574.703.75 1.125.176.425.265.87.265 1.332ZM142.52 93.02c0 .46-.09.902-.266 1.328a3.422 3.422 0 0 1-1.875 1.879 3.411 3.411 0 0 1-1.324.265c-.461 0-.903-.09-1.325-.265a3.422 3.422 0 0 1-1.875-1.88 3.445 3.445 0 0 1 0-2.656 3.422 3.422 0 0 1 1.875-1.879c.422-.18.864-.265 1.325-.265.46 0 .902.086 1.324.266a3.422 3.422 0 0 1 1.875 1.878c.176.426.266.868.266 1.329ZM35.074 129.953a3.457 3.457 0 0 1 2.371 1.191c.301.348.528.739.672 1.176a3.49 3.49 0 0 1-.187 2.653c-.207.41-.485.77-.832 1.07-.344.3-.739.523-1.172.672a3.47 3.47 0 0 1-3.715-1.02 3.433 3.433 0 0 1-.668-1.18 3.471 3.471 0 0 1-.168-1.343 3.455 3.455 0 0 1 1.184-2.375 3.363 3.363 0 0 1 1.175-.672 3.4 3.4 0 0 1 1.34-.172Zm0 0"/><path fill="#5c67c5" d="m134.95 129.852-77.169 8.113-2.59.262c-1.863.203-3.582-1.082-3.96-2.95L29.69 23.473c-.378-2.016.989-3.97 3-4.29l1.485-.234 79.203-12.46c2.36-.38 4.57 1.226 4.98 3.558l20.407 114.637a4.344 4.344 0 0 1-3.817 5.168Zm0 0"/><path fill="#fad2a7" d="m37.988 22.16 20.172 104.8 77.43-8.144L115.62 10.777Zm0 0"/><path fill="#a65d19" d="M62.234 27.793c.293-.059.524 0 .73.176.204.144.321.379.376.668l2.012 12.578c.058.324 0 .586-.176.82a1.13 1.13 0 0 1-.7.438c-.144.027-.288.027-.464 0a.882.882 0 0 1-.407-.176L53.27 32.52l.437-.352 1.719 10.77c.027.265 0 .496-.176.73a.915.915 0 0 1-.64.379c-.294.058-.555 0-.758-.176a1.117 1.117 0 0 1-.38-.64l-2.007-12.61c-.059-.32 0-.582.176-.816a.96.96 0 0 1 .699-.407.933.933 0 0 1 .492.028c.176.031.32.117.438.234l10.101 9.57-.262.352-1.66-10.68a.892.892 0 0 1 .145-.73c.176-.203.379-.352.64-.379ZM67.648 26.918l7.22-1.168a.947.947 0 0 1 .788.176c.23.172.38.379.406.668a.962.962 0 0 1-.175.761 1.048 1.048 0 0 1-.7.38l-6.316 1.05.149-.379.753 4.668-.23-.176 5.324-.843a.96.96 0 0 1 .79.172c.23.175.378.41.406.703a.953.953 0 0 1-.176.758 1.033 1.033 0 0 1-.7.378l-5.296.848.117-.207.758 4.816-.176-.144 6.23-.992c.29-.059.551.027.785.175.235.172.38.38.407.641a.963.963 0 0 1-.172.758c-.176.234-.41.352-.7.41l-7.218 1.168a.947.947 0 0 1-.79-.176 1.135 1.135 0 0 1-.433-.699l-1.98-12.492c-.059-.32 0-.586.203-.817.203-.265.437-.378.726-.437ZM95.043 22.45c.289-.055.55.03.812.175.262.176.438.41.497.762.027.086 0 .23 0 .379l-2.27 13.218a.928.928 0 0 1-.293.555 1.57 1.57 0 0 1-.523.293c-.204.027-.407 0-.61-.09a1.221 1.221 0 0 1-.527-.437l-4.512-7.207.207.058-2.039 8.172c-.086.234-.203.438-.379.582a1.067 1.067 0 0 1-.582.266c-.176 0-.379-.031-.582-.09a1.054 1.054 0 0 1-.465-.41L77.52 26.828c-.06-.144-.118-.234-.118-.348-.058-.351.028-.644.23-.878.208-.23.47-.38.731-.438.23-.027.434 0 .64.09a.968.968 0 0 1 .466.437l5.328 10.215-.379.059 1.922-8.29c.055-.234.172-.41.32-.554a.97.97 0 0 1 .55-.262.852.852 0 0 1 .614.059.95.95 0 0 1 .465.437l4.191 7.063-.293.203 1.864-11.293a.934.934 0 0 1 .32-.586 3.22 3.22 0 0 1 .672-.293ZM104.938 36.168c-.989.145-1.918.176-2.735 0-.816-.145-1.629-.496-2.445-1.023a.944.944 0 0 1-.406-.348.993.993 0 0 1-.207-.469 1.194 1.194 0 0 1 .175-.758c.176-.234.38-.379.672-.437.23-.031.434 0 .668.117.61.406 1.223.672 1.832.848.613.144 1.313.172 2.098.054a4.07 4.07 0 0 0 1.484-.523c.438-.262.758-.555.989-.906.234-.348.32-.727.234-1.137-.086-.496-.293-.906-.613-1.168-.348-.293-.786-.496-1.368-.613a12.853 12.853 0 0 0-2.007-.235c-.727-.027-1.368-.086-1.95-.23-.582-.149-1.105-.352-1.543-.613-.437-.293-.816-.645-1.078-1.082-.289-.438-.465-.961-.582-1.606-.144-.844-.027-1.602.32-2.305.348-.672.876-1.254 1.602-1.722.7-.465 1.543-.758 2.504-.903a7.248 7.248 0 0 1 2.531 0c.817.145 1.485.407 2.04.79.378.23.609.523.64.843.027.262-.031.496-.207.758a.944.944 0 0 1-.637.441.782.782 0 0 1-.527-.09 2.894 2.894 0 0 0-.988-.496 8.996 8.996 0 0 0-1.282-.293 4.461 4.461 0 0 0-1.25 0c-.613.09-1.136.266-1.574.528-.406.234-.726.523-.902.875-.172.351-.262.7-.172 1.11.086.464.262.847.582 1.109.32.261.727.437 1.25.554.523.117 1.105.203 1.746.235.785.054 1.516.113 2.156.23.64.117 1.192.293 1.657.555.468.265.843.613 1.164 1.082.293.465.496 1.05.613 1.75.144.848 0 1.605-.348 2.305a4.628 4.628 0 0 1-1.633 1.75c-.726.554-1.543.847-2.504 1.023ZM44.012 26.86a.344.344 0 0 1-.32-.266.336.336 0 0 1 .261-.38l67.332-11.234a.327.327 0 0 1 .38.262c.026.176-.09.352-.263.38L44.07 26.858h-.058ZM47.941 50.469a.345.345 0 0 1-.32-.262c-.027-.176.09-.352.262-.379l67.097-12.55a.325.325 0 1 1 .117.64L48 50.468h-.059Zm0 0"/><path fill="#ffcc51" d="m49.863 56.246 6.29 33.973 35.687-4.555-6.29-36.86Zm0 0"/><path fill="#a65d19" d="M92.043 62.172c-.145 0-.262-.117-.29-.262-.03-.176.087-.324.263-.351l26.023-4.059c.172-.027.32.09.348.266.031.175-.086.32-.262.347l-26.023 4.059h-.059ZM92.742 66.664c-.144 0-.262-.113-.293-.262-.027-.175.09-.32.266-.347l26.023-4.059a.3.3 0 0 1 .348.262c.027.176-.086.32-.262.351l-26.023 4.055h-.059ZM93.441 71.16c-.144 0-.261-.117-.293-.262-.027-.175.09-.32.262-.351l26.024-4.055c.175-.031.32.086.351.262.028.176-.09.32-.262.348L93.5 71.16h-.059ZM94.14 75.656c-.148 0-.261-.117-.292-.265-.028-.176.09-.32.261-.348l26.024-4.059c.176-.027.32.09.351.262a.304.304 0 0 1-.261.352l-26.024 4.058h-.058ZM94.84 80.148c-.149 0-.266-.117-.293-.261-.027-.176.086-.32.262-.352l26.023-4.055c.176-.03.32.086.352.262.027.176-.09.32-.266.352l-26.023 4.054h-.055ZM60.633 97.895c-.145 0-.29-.118-.29-.266-.03-.172.087-.32.262-.348l26.055-3.797c.172-.027.317.09.348.266.027.176-.086.32-.262.348l-26.055 3.797h-.058ZM61.305 102.387c-.145 0-.293-.117-.293-.262-.028-.176.09-.32.261-.352l26.055-3.793c.176-.027.32.086.348.262.031.176-.086.32-.262.352l-26.05 3.793h-.06ZM61.945 106.91c-.144 0-.293-.117-.293-.262-.027-.175.09-.32.262-.351l26.055-3.793c.176-.027.32.086.347.262.032.175-.086.32-.261.351l-26.051 3.793h-.059ZM62.586 111.406c-.148 0-.293-.117-.293-.261a.304.304 0 0 1 .262-.352L88.609 107c.176-.031.32.086.348.262.031.175-.086.32-.262.351l-26.05 3.793h-.06ZM63.254 115.898c-.145 0-.29-.117-.29-.261-.03-.176.087-.32.263-.352l26.05-3.793c.176-.027.32.09.352.262a.304.304 0 0 1-.262.351l-26.055 3.793h-.058ZM97.078 92.465c-.144 0-.289-.117-.289-.262-.031-.176.086-.32.262-.351l26.05-3.97c.176-.027.32.087.352.263.027.175-.09.32-.262.351l-26.054 3.969h-.059ZM97.777 96.96c-.144 0-.289-.116-.289-.265-.031-.175.086-.32.262-.347l26.05-3.97c.177-.03.321.087.352.263.028.175-.09.32-.261.347l-26.055 3.973h-.059ZM98.45 101.453c-.15 0-.294-.117-.294-.262-.027-.175.086-.32.262-.351l26.055-3.969c.172-.027.32.09.347.262a.302.302 0 0 1-.261.351l-26.055 3.97h-.055ZM99.145 105.95c-.145 0-.29-.118-.29-.266-.03-.172.086-.32.262-.348l26.051-3.969c.176-.031.32.086.352.262.027.176-.086.32-.262.351l-26.055 3.97h-.058ZM99.816 110.441c-.144 0-.293-.117-.293-.261-.027-.176.09-.32.262-.352l26.055-3.969c.176-.027.32.09.347.262.032.176-.085.324-.261.352l-26.051 3.968h-.059ZM89.629 48.863l1.191 8.114 26.434-4.903-1.371-7.937Zm0 0"/><path fill="#fad2a7" d="M100.922 131.223a3.648 3.648 0 0 1 0-7.297 3.643 3.643 0 0 1 3.637 3.648c0 1.985-1.63 3.649-3.637 3.649Zm0-6.977a3.324 3.324 0 0 0-3.32 3.328 3.324 3.324 0 0 0 3.32 3.328 3.324 3.324 0 0 0 3.32-3.328 3.342 3.342 0 0 0-3.32-3.328Zm0 0"/><path fill="#331807" d="m57.781 137.965-2.59.262c-1.863.203-3.582-1.082-3.96-2.95L29.69 23.473c-.378-2.016.989-3.97 3-4.29l1.485-.234Zm0 0"/><path fill="#fff" d="m98.941 117.855-20.695 1.957 2.328-32.28 2.649-7.266 6.957-.672 2.797 4.261Zm0 0"/><path fill="#331807" d="M92.977 83.855c-4.047 1.489-8.18 2.743-12.403 3.676l.496-7.062 11.118-1.051Zm0 0"/><path fill="#fff" d="m139.668 81.871-54.145 1.781-7.918-3.066-4.425-16.254 8.297-9.66 44.449-30.266Zm0 0"/><path fill="#d36b0c" d="M140.074 81.668c-3.32.727-7.277-3.152-10.683-9.75l-.496-15.848-6.958-11.437c-.96-11.324 1.051-19.965 5.415-20.926 5.62-1.227 13.043 10.738 16.535 26.73 3.55 15.997 1.836 29.973-3.813 31.231ZM85.523 83.652l-12.343.407-4.016-9.454-.613-11.09L81.477 54.7c-1.57 9.75-.145 19.992 4.046 28.953Zm0 0"/><path fill="#fad2a7" d="m137.512 60.215-8.094 11.676c-2.356-4.582-4.598-10.567-6.023-17.133-.786-3.59-1.137-7.09-1.426-10.156l11.73 1.52c.988.116 1.774.874 1.98 1.835l2.184 10.422a2.156 2.156 0 0 1-.351 1.836Zm0 0"/><path fill="#d36b0c" d="M138.184 62.578c-2.883-1.867-4.922-4.902-5.59-8.285a12.999 12.999 0 0 1 2.008-9.809l.55.38c-1.804 2.656-2.53 6.128-1.89 9.28.64 3.153 2.62 6.102 5.297 7.852Zm0 0"/><path fill="#331807" d="m73.18 84.059-4.63-20.575s-6.081 4.555-4.655 11.762c1.718 8.524 9.285 8.813 9.285 8.813ZM25.063 68.477l8.585 15.671c1.895 3.442.614 7.79-2.793 9.66l-7.16 3.938c-3.433 1.899-7.773.613-9.636-2.8L5.473 79.272a6.987 6.987 0 0 1-.7-4.992c.059-.261.145-.523.235-.816a7.073 7.073 0 0 1 3.258-3.88l7.164-3.94a7.1 7.1 0 0 1 5.035-.7c.262.059.523.145.785.23 1.57.614 2.969 1.723 3.813 3.302Zm0 0"/><path fill="#ffaa68" d="m8.836 85.387 19.586-10.809.281.512L9.117 85.898ZM21.25 65.207 4.773 74.313c.059-.262.145-.528.235-.817l15.457-8.523c.262.058.523.144.785.234Zm0 0"/><path fill="#a65d19" d="M57.055 143.918h-6.23L36.59 120.57l-4.016-6.597-.73-1.227 7.367-3.879.55 1.11.844 1.691 9.782 19.203 3.726 7.324 2.739 5.371.144.262Zm0 0"/><path fill="#361500" d="M40.605 111.668a69.35 69.35 0 0 1-4.015 8.902l-4.746-7.824 7.367-3.879Zm0 0"/><path fill="#d36b0c" d="M12.082 100.023 38.977 85.2c1.312-.73 2.968-.234 3.699 1.078l8.004 14.594c.726 1.313.23 2.977-1.078 3.707L23.082 119.2c-1.309.727-2.91.262-3.668-1.023a1910.4 1910.4 0 0 0-8.352-14.387c-.785-1.312-.32-3.035 1.02-3.766Zm0 0"/><path fill="#fad2a7" d="m42.73 91.121-2.066-3.734-7.219 3.968-2.504 1.403-4.101 2.246-6.578 3.617-6.871 3.797-.145.059 8.238 15 5.356-2.95 18.426-10.156.988-.555 2.504-1.398.144-.059Zm3.32 12.461-.816.469-18.367 10.129-5.238 2.886-7.95-14.476 7.25-3.996 5.938-3.27 4.426-2.449 1.805-.992 7.453-4.117 2.355 4.289 5.59 10.187Zm0 0"/></svg>