<svg xmlns="http://www.w3.org/2000/svg" xmlns:xlink="http://www.w3.org/1999/xlink" width="200" zoomAndPan="magnify" viewBox="0 0 150 149.999998" height="200" preserveAspectRatio="xMidYMid meet" version="1.0"><defs><clipPath id="96894371c0"><path d="M 0 2.4375 L 150 2.4375 L 150 147.9375 L 0 147.9375 Z M 0 2.4375 " clip-rule="nonzero"/></clipPath></defs><g clip-path="url(#96894371c0)"><path fill="#ffffff" d="M 26.519531 147.886719 C 24.335938 147.886719 22.558594 146.105469 22.558594 143.917969 L 22.558594 123.398438 C 22.179688 123.457031 21.804688 123.488281 21.425781 123.488281 C 19.039062 123.488281 16.824219 122.203125 15.660156 120.160156 C 13.476562 116.367188 9.488281 109.480469 7.335938 105.832031 C 6.402344 104.253906 6.140625 102.417969 6.636719 100.664062 C 7.101562 98.914062 8.296875 97.425781 9.867188 96.550781 L 10.070312 96.433594 L 1.6875 81.199219 C 0.40625 78.835938 0 76.09375 0.582031 73.4375 C 0.667969 73.058594 0.785156 72.621094 0.929688 72.179688 C 1.832031 69.613281 3.636719 67.453125 6.027344 66.140625 L 13.1875 62.199219 C 15.921875 60.683594 19.328125 60.421875 22.238281 61.472656 C 22.878906 61.703125 23.492188 61.996094 24.074219 62.347656 C 24.453125 60.683594 24.886719 59.046875 25.382812 57.414062 C 25.761719 56.21875 26.199219 54.960938 26.664062 53.679688 C 27.566406 51.34375 28.613281 49.039062 29.777344 46.789062 L 25.5 24.261719 C 25.121094 22.246094 25.558594 20.117188 26.75 18.453125 C 27.914062 16.761719 29.777344 15.621094 31.789062 15.300781 L 33.273438 15.066406 L 112.449219 2.578125 C 112.886719 2.519531 113.324219 2.488281 113.757812 2.488281 C 117.804688 2.488281 121.238281 5.378906 121.96875 9.375 L 123.976562 20.699219 C 124.675781 20.292969 125.433594 20 126.21875 19.824219 C 126.769531 19.707031 127.324219 19.648438 127.878906 19.648438 C 136.871094 19.648438 144.207031 34.679688 147.46875 49.59375 C 149.765625 60.128906 150 70.285156 148.078125 76.910156 L 148.078125 143.917969 C 148.078125 146.105469 146.304688 147.886719 144.121094 147.886719 Z M 26.519531 147.886719 " fill-opacity="1" fill-rule="nonzero"/></g><path fill="#ffcc51" d="M 144.441406 76.207031 L 144.441406 143.917969 L 96.757812 143.917969 L 91.492188 141.667969 L 86.222656 143.917969 L 26.867188 143.917969 L 26.867188 76.121094 C 26.867188 75.886719 26.867188 75.683594 26.867188 75.449219 C 26.867188 75.332031 26.867188 75.214844 26.867188 75.101562 C 26.898438 74.050781 26.925781 73 27.011719 71.976562 C 27.332031 67.335938 28.207031 62.871094 29.546875 58.609375 C 29.894531 57.414062 30.304688 56.246094 30.769531 55.109375 C 31.789062 52.453125 32.980469 49.914062 34.347656 47.460938 C 35.601562 45.1875 37.027344 42.996094 38.570312 40.925781 C 39.355469 39.875 40.171875 38.851562 41.015625 37.859375 C 41.21875 37.597656 41.453125 37.363281 41.65625 37.101562 C 43.691406 34.796875 45.875 32.664062 48.234375 30.710938 C 48.640625 30.359375 49.078125 30.039062 49.484375 29.6875 C 50.476562 28.929688 51.464844 28.199219 52.484375 27.5 C 52.980469 27.148438 53.503906 26.828125 53.996094 26.480469 C 55.21875 25.71875 56.441406 24.960938 57.695312 24.289062 C 57.753906 24.261719 57.8125 24.230469 57.898438 24.203125 C 58.480469 23.882812 59.089844 23.589844 59.675781 23.296875 C 63.574219 21.371094 67.707031 19.855469 72.015625 18.832031 C 76.382812 17.78125 80.953125 17.226562 85.640625 17.226562 C 88.839844 17.226562 91.984375 17.488281 95.042969 17.984375 C 99.117188 18.628906 103.019531 19.707031 106.773438 21.136719 C 108.664062 21.867188 110.527344 22.683594 112.304688 23.617188 C 114.515625 24.726562 116.640625 26.011719 118.679688 27.382812 C 119.144531 27.703125 119.609375 28.027344 120.046875 28.347656 C 120.6875 28.785156 121.296875 29.25 121.878906 29.746094 C 122.113281 29.921875 122.347656 30.097656 122.578125 30.300781 C 122.609375 30.300781 122.609375 30.332031 122.636719 30.359375 C 124.238281 31.644531 125.753906 33.046875 127.207031 34.503906 C 127.703125 35 128.226562 35.527344 128.691406 36.050781 C 129.972656 37.421875 131.167969 38.851562 132.300781 40.339844 C 134.746094 43.523438 136.84375 46.9375 138.589844 50.585938 C 139.433594 52.335938 140.191406 54.144531 140.859375 55.984375 C 140.859375 56.011719 140.890625 56.070312 140.917969 56.128906 C 140.945312 56.1875 140.976562 56.277344 140.976562 56.335938 C 141.152344 56.800781 141.324219 57.269531 141.472656 57.734375 C 141.472656 57.765625 141.5 57.792969 141.5 57.824219 C 141.527344 57.910156 141.558594 57.996094 141.585938 58.085938 C 141.617188 58.171875 141.644531 58.261719 141.675781 58.347656 C 141.964844 59.222656 142.226562 60.097656 142.429688 61.003906 C 142.460938 61.121094 142.488281 61.238281 142.519531 61.355469 C 142.867188 62.609375 143.128906 63.921875 143.390625 65.207031 C 143.421875 65.324219 143.449219 65.441406 143.449219 65.554688 C 143.742188 67.074219 143.945312 68.621094 144.089844 70.167969 C 144.089844 70.285156 144.121094 70.429688 144.121094 70.546875 C 144.207031 71.363281 144.265625 72.179688 144.292969 73 C 144.292969 73.117188 144.324219 73.261719 144.324219 73.378906 C 144.351562 73.960938 144.382812 74.546875 144.382812 75.128906 C 144.382812 75.246094 144.382812 75.363281 144.382812 75.480469 C 144.441406 75.769531 144.441406 75.976562 144.441406 76.207031 Z M 144.441406 76.207031 " fill-opacity="1" fill-rule="nonzero"/><path fill="#fad2a7" d="M 36.386719 67.714844 C 36.386719 69.585938 34.871094 71.101562 33.011719 71.101562 C 31.148438 71.101562 29.632812 69.585938 29.632812 67.714844 C 29.632812 65.847656 31.148438 64.332031 33.011719 64.332031 C 34.902344 64.332031 36.386719 65.847656 36.386719 67.714844 Z M 36.386719 67.714844 " fill-opacity="1" fill-rule="nonzero"/><path fill="#fad2a7" d="M 96.757812 143.917969 L 86.222656 143.917969 C 86.308594 141.085938 88.636719 138.808594 91.492188 138.808594 C 94.34375 138.808594 96.671875 141.085938 96.757812 143.917969 Z M 96.757812 143.917969 " fill-opacity="1" fill-rule="nonzero"/><path fill="#fad2a7" d="M 135.359375 137.351562 C 135.359375 137.8125 135.269531 138.253906 135.09375 138.679688 C 134.917969 139.105469 134.667969 139.480469 134.34375 139.804688 C 134.019531 140.132812 133.644531 140.382812 133.21875 140.558594 C 132.796875 140.734375 132.351562 140.824219 131.894531 140.824219 C 131.433594 140.824219 130.992188 140.734375 130.570312 140.558594 C 130.144531 140.382812 129.769531 140.132812 129.445312 139.804688 C 129.121094 139.480469 128.871094 139.105469 128.695312 138.679688 C 128.519531 138.253906 128.429688 137.8125 128.429688 137.351562 C 128.429688 136.890625 128.519531 136.445312 128.695312 136.019531 C 128.871094 135.597656 129.121094 135.21875 129.445312 134.894531 C 129.769531 134.570312 130.144531 134.316406 130.570312 134.140625 C 130.992188 133.964844 131.433594 133.878906 131.894531 133.878906 C 132.351562 133.878906 132.796875 133.964844 133.21875 134.140625 C 133.644531 134.316406 134.019531 134.570312 134.34375 134.894531 C 134.667969 135.21875 134.917969 135.597656 135.09375 136.019531 C 135.269531 136.445312 135.359375 136.890625 135.359375 137.351562 Z M 135.359375 137.351562 " fill-opacity="1" fill-rule="nonzero"/><path fill="#fad2a7" d="M 142.519531 93.019531 C 142.519531 93.480469 142.429688 93.921875 142.253906 94.347656 C 142.078125 94.773438 141.828125 95.148438 141.503906 95.476562 C 141.179688 95.800781 140.804688 96.050781 140.378906 96.226562 C 139.957031 96.402344 139.515625 96.492188 139.054688 96.492188 C 138.59375 96.492188 138.152344 96.402344 137.730469 96.226562 C 137.304688 96.050781 136.929688 95.800781 136.605469 95.476562 C 136.28125 95.148438 136.03125 94.773438 135.855469 94.347656 C 135.679688 93.921875 135.589844 93.480469 135.589844 93.019531 C 135.589844 92.558594 135.679688 92.117188 135.855469 91.691406 C 136.03125 91.265625 136.28125 90.890625 136.605469 90.5625 C 136.929688 90.238281 137.304688 89.988281 137.730469 89.8125 C 138.152344 89.632812 138.59375 89.546875 139.054688 89.546875 C 139.515625 89.546875 139.957031 89.632812 140.378906 89.8125 C 140.804688 89.988281 141.179688 90.238281 141.503906 90.5625 C 141.828125 90.890625 142.078125 91.265625 142.253906 91.691406 C 142.429688 92.117188 142.519531 92.558594 142.519531 93.019531 Z M 142.519531 93.019531 " fill-opacity="1" fill-rule="nonzero"/><path fill="#fad2a7" d="M 35.074219 129.953125 C 35.535156 129.988281 35.96875 130.105469 36.378906 130.3125 C 36.789062 130.519531 37.144531 130.796875 37.445312 131.144531 C 37.746094 131.492188 37.972656 131.882812 38.117188 132.320312 C 38.261719 132.757812 38.316406 133.207031 38.285156 133.664062 C 38.253906 134.125 38.132812 134.558594 37.929688 134.972656 C 37.722656 135.382812 37.445312 135.742188 37.097656 136.042969 C 36.753906 136.34375 36.359375 136.566406 35.925781 136.714844 C 35.488281 136.859375 35.042969 136.914062 34.585938 136.882812 C 34.125 136.851562 33.691406 136.730469 33.28125 136.523438 C 32.871094 136.320312 32.515625 136.042969 32.210938 135.695312 C 31.910156 135.347656 31.6875 134.953125 31.542969 134.515625 C 31.398438 134.082031 31.34375 133.632812 31.375 133.171875 C 31.40625 132.714844 31.527344 132.277344 31.730469 131.867188 C 31.9375 131.453125 32.214844 131.097656 32.558594 130.796875 C 32.90625 130.492188 33.296875 130.269531 33.734375 130.125 C 34.171875 129.976562 34.617188 129.921875 35.074219 129.953125 Z M 35.074219 129.953125 " fill-opacity="1" fill-rule="nonzero"/><path fill="#5c67c5" d="M 134.949219 129.851562 L 57.78125 137.964844 L 55.191406 138.226562 C 53.328125 138.429688 51.609375 137.144531 51.230469 135.277344 L 29.691406 23.472656 C 29.3125 21.457031 30.679688 19.503906 32.691406 19.183594 L 34.175781 18.949219 L 113.378906 6.488281 C 115.738281 6.109375 117.949219 7.714844 118.359375 10.046875 L 138.765625 124.683594 C 139.257812 127.222656 137.484375 129.585938 134.949219 129.851562 Z M 134.949219 129.851562 " fill-opacity="1" fill-rule="nonzero"/><path fill="#fad2a7" d="M 37.988281 22.160156 L 58.160156 126.960938 L 135.589844 118.816406 L 115.621094 10.777344 Z M 37.988281 22.160156 " fill-opacity="1" fill-rule="nonzero"/><path fill="#a65d19" d="M 62.234375 27.792969 C 62.527344 27.734375 62.757812 27.792969 62.964844 27.96875 C 63.167969 28.113281 63.285156 28.347656 63.339844 28.636719 L 65.351562 41.214844 C 65.410156 41.539062 65.351562 41.800781 65.175781 42.035156 C 65 42.265625 64.769531 42.414062 64.476562 42.472656 C 64.332031 42.5 64.1875 42.5 64.011719 42.472656 C 63.835938 42.441406 63.71875 42.382812 63.605469 42.296875 L 53.269531 32.519531 L 53.707031 32.167969 L 55.425781 42.9375 C 55.453125 43.203125 55.425781 43.433594 55.25 43.667969 C 55.105469 43.871094 54.871094 44.019531 54.609375 44.046875 C 54.316406 44.105469 54.054688 44.046875 53.851562 43.871094 C 53.648438 43.699219 53.53125 43.492188 53.472656 43.230469 L 51.464844 30.621094 C 51.40625 30.300781 51.464844 30.039062 51.640625 29.804688 C 51.816406 29.570312 52.046875 29.425781 52.339844 29.398438 C 52.484375 29.367188 52.660156 29.367188 52.832031 29.425781 C 53.007812 29.457031 53.152344 29.542969 53.269531 29.660156 L 63.371094 39.230469 L 63.109375 39.582031 L 61.449219 28.902344 C 61.390625 28.609375 61.449219 28.375 61.59375 28.171875 C 61.769531 27.96875 61.972656 27.820312 62.234375 27.792969 Z M 62.234375 27.792969 " fill-opacity="1" fill-rule="nonzero"/><path fill="#a65d19" d="M 67.648438 26.917969 L 74.867188 25.75 C 75.160156 25.691406 75.421875 25.75 75.65625 25.925781 C 75.886719 26.097656 76.035156 26.304688 76.0625 26.59375 C 76.121094 26.886719 76.035156 27.148438 75.886719 27.355469 C 75.714844 27.558594 75.480469 27.703125 75.1875 27.734375 L 68.871094 28.785156 L 69.019531 28.40625 L 69.773438 33.074219 L 69.542969 32.898438 L 74.867188 32.054688 C 75.160156 31.996094 75.421875 32.054688 75.65625 32.226562 C 75.886719 32.402344 76.035156 32.636719 76.0625 32.929688 C 76.121094 33.21875 76.035156 33.484375 75.886719 33.6875 C 75.714844 33.890625 75.480469 34.039062 75.1875 34.066406 L 69.890625 34.914062 L 70.007812 34.707031 L 70.765625 39.523438 L 70.589844 39.378906 L 76.820312 38.386719 C 77.109375 38.328125 77.371094 38.414062 77.605469 38.5625 C 77.839844 38.734375 77.984375 38.941406 78.011719 39.203125 C 78.070312 39.496094 77.984375 39.757812 77.839844 39.960938 C 77.664062 40.195312 77.429688 40.3125 77.140625 40.371094 L 69.921875 41.539062 C 69.628906 41.597656 69.367188 41.539062 69.132812 41.363281 C 68.902344 41.1875 68.757812 40.953125 68.699219 40.664062 L 66.71875 28.171875 C 66.660156 27.851562 66.71875 27.585938 66.921875 27.355469 C 67.125 27.089844 67.359375 26.976562 67.648438 26.917969 Z M 67.648438 26.917969 " fill-opacity="1" fill-rule="nonzero"/><path fill="#a65d19" d="M 95.042969 22.449219 C 95.332031 22.394531 95.59375 22.480469 95.855469 22.625 C 96.117188 22.800781 96.292969 23.035156 96.351562 23.386719 C 96.378906 23.472656 96.351562 23.617188 96.351562 23.765625 L 94.082031 36.984375 C 94.050781 37.21875 93.9375 37.394531 93.789062 37.539062 C 93.617188 37.683594 93.441406 37.773438 93.265625 37.832031 C 93.0625 37.859375 92.859375 37.832031 92.65625 37.742188 C 92.449219 37.65625 92.277344 37.511719 92.128906 37.304688 L 87.617188 30.097656 L 87.824219 30.15625 L 85.785156 38.328125 C 85.699219 38.5625 85.582031 38.765625 85.40625 38.910156 C 85.230469 39.058594 85.058594 39.144531 84.824219 39.175781 C 84.648438 39.175781 84.445312 39.144531 84.242188 39.085938 C 84.039062 39 83.894531 38.851562 83.777344 38.675781 L 77.519531 26.828125 C 77.460938 26.683594 77.402344 26.59375 77.402344 26.480469 C 77.34375 26.128906 77.429688 25.835938 77.632812 25.601562 C 77.839844 25.371094 78.101562 25.222656 78.363281 25.164062 C 78.59375 25.136719 78.796875 25.164062 79.003906 25.253906 C 79.207031 25.339844 79.351562 25.488281 79.46875 25.691406 L 84.796875 35.90625 L 84.417969 35.964844 L 86.339844 27.675781 C 86.394531 27.441406 86.511719 27.265625 86.660156 27.121094 C 86.804688 26.976562 87.007812 26.886719 87.210938 26.859375 C 87.445312 26.800781 87.648438 26.828125 87.824219 26.917969 C 88.027344 27.003906 88.171875 27.148438 88.289062 27.355469 L 92.480469 34.417969 L 92.1875 34.621094 L 94.050781 23.328125 C 94.082031 23.09375 94.199219 22.890625 94.371094 22.742188 C 94.632812 22.597656 94.839844 22.507812 95.042969 22.449219 Z M 95.042969 22.449219 " fill-opacity="1" fill-rule="nonzero"/><path fill="#a65d19" d="M 104.9375 36.167969 C 103.949219 36.3125 103.019531 36.34375 102.203125 36.167969 C 101.386719 36.023438 100.574219 35.671875 99.757812 35.144531 C 99.582031 35.058594 99.4375 34.941406 99.351562 34.796875 C 99.234375 34.648438 99.175781 34.503906 99.144531 34.328125 C 99.117188 34.066406 99.175781 33.804688 99.320312 33.570312 C 99.496094 33.335938 99.699219 33.191406 99.992188 33.132812 C 100.222656 33.101562 100.425781 33.132812 100.660156 33.25 C 101.269531 33.65625 101.882812 33.921875 102.492188 34.097656 C 103.105469 34.242188 103.804688 34.269531 104.589844 34.152344 C 105.144531 34.066406 105.636719 33.890625 106.074219 33.628906 C 106.511719 33.367188 106.832031 33.074219 107.0625 32.722656 C 107.296875 32.375 107.382812 31.996094 107.296875 31.585938 C 107.210938 31.089844 107.003906 30.679688 106.683594 30.417969 C 106.335938 30.125 105.898438 29.921875 105.316406 29.804688 C 104.734375 29.6875 104.066406 29.601562 103.308594 29.570312 C 102.582031 29.542969 101.941406 29.484375 101.359375 29.339844 C 100.777344 29.191406 100.253906 28.988281 99.816406 28.726562 C 99.378906 28.433594 99 28.082031 98.738281 27.644531 C 98.449219 27.207031 98.273438 26.683594 98.15625 26.039062 C 98.011719 25.195312 98.128906 24.4375 98.476562 23.734375 C 98.824219 23.0625 99.351562 22.480469 100.078125 22.011719 C 100.777344 21.546875 101.621094 21.253906 102.582031 21.109375 C 103.453125 20.960938 104.296875 20.960938 105.113281 21.109375 C 105.929688 21.253906 106.597656 21.515625 107.152344 21.898438 C 107.53125 22.128906 107.761719 22.421875 107.792969 22.742188 C 107.820312 23.003906 107.761719 23.238281 107.585938 23.5 C 107.414062 23.765625 107.210938 23.882812 106.949219 23.941406 C 106.742188 23.96875 106.570312 23.941406 106.421875 23.851562 C 106.160156 23.648438 105.839844 23.472656 105.433594 23.355469 C 105.027344 23.238281 104.589844 23.121094 104.152344 23.0625 C 103.714844 23.003906 103.28125 23.003906 102.902344 23.0625 C 102.289062 23.152344 101.765625 23.328125 101.328125 23.589844 C 100.921875 23.824219 100.601562 24.113281 100.425781 24.464844 C 100.253906 24.816406 100.164062 25.164062 100.253906 25.574219 C 100.339844 26.039062 100.515625 26.421875 100.835938 26.683594 C 101.15625 26.945312 101.5625 27.121094 102.085938 27.238281 C 102.609375 27.355469 103.191406 27.441406 103.832031 27.472656 C 104.617188 27.527344 105.347656 27.585938 105.988281 27.703125 C 106.628906 27.820312 107.179688 27.996094 107.644531 28.257812 C 108.113281 28.523438 108.488281 28.871094 108.808594 29.339844 C 109.101562 29.804688 109.304688 30.390625 109.421875 31.089844 C 109.566406 31.9375 109.421875 32.695312 109.074219 33.394531 C 108.695312 34.097656 108.171875 34.679688 107.441406 35.144531 C 106.714844 35.699219 105.898438 35.992188 104.9375 36.167969 Z M 104.9375 36.167969 " fill-opacity="1" fill-rule="nonzero"/><path fill="#a65d19" d="M 44.011719 26.859375 C 43.867188 26.859375 43.722656 26.742188 43.691406 26.59375 C 43.664062 26.421875 43.78125 26.246094 43.953125 26.214844 L 111.285156 14.980469 C 111.460938 14.949219 111.632812 15.066406 111.664062 15.242188 C 111.691406 15.417969 111.574219 15.59375 111.402344 15.621094 L 44.070312 26.859375 C 44.070312 26.859375 44.042969 26.859375 44.011719 26.859375 Z M 44.011719 26.859375 " fill-opacity="1" fill-rule="nonzero"/><path fill="#a65d19" d="M 47.941406 50.46875 C 47.796875 50.46875 47.652344 50.351562 47.621094 50.207031 C 47.59375 50.03125 47.710938 49.855469 47.882812 49.828125 L 114.980469 37.277344 C 115.15625 37.246094 115.332031 37.363281 115.359375 37.539062 C 115.390625 37.714844 115.273438 37.890625 115.097656 37.917969 L 48 50.46875 C 48 50.46875 47.972656 50.46875 47.941406 50.46875 Z M 47.941406 50.46875 " fill-opacity="1" fill-rule="nonzero"/><path fill="#ffcc51" d="M 49.863281 56.246094 L 56.152344 90.21875 L 91.839844 85.664062 L 85.550781 48.804688 Z M 49.863281 56.246094 " fill-opacity="1" fill-rule="nonzero"/><path fill="#a65d19" d="M 92.042969 62.171875 C 91.898438 62.171875 91.78125 62.054688 91.753906 61.910156 C 91.722656 61.734375 91.839844 61.585938 92.015625 61.558594 L 118.039062 57.5 C 118.210938 57.472656 118.359375 57.589844 118.386719 57.765625 C 118.417969 57.941406 118.300781 58.085938 118.125 58.113281 L 92.101562 62.171875 C 92.074219 62.171875 92.074219 62.171875 92.042969 62.171875 Z M 92.042969 62.171875 " fill-opacity="1" fill-rule="nonzero"/><path fill="#a65d19" d="M 92.742188 66.664062 C 92.597656 66.664062 92.480469 66.550781 92.449219 66.402344 C 92.421875 66.226562 92.539062 66.082031 92.714844 66.054688 L 118.738281 61.996094 C 118.910156 61.96875 119.058594 62.082031 119.085938 62.257812 C 119.113281 62.433594 119 62.578125 118.824219 62.609375 L 92.800781 66.664062 C 92.769531 66.664062 92.769531 66.664062 92.742188 66.664062 Z M 92.742188 66.664062 " fill-opacity="1" fill-rule="nonzero"/><path fill="#a65d19" d="M 93.441406 71.160156 C 93.296875 71.160156 93.179688 71.042969 93.148438 70.898438 C 93.121094 70.722656 93.238281 70.578125 93.410156 70.546875 L 119.433594 66.492188 C 119.609375 66.460938 119.753906 66.578125 119.785156 66.753906 C 119.8125 66.929688 119.695312 67.074219 119.523438 67.101562 L 93.5 71.160156 C 93.46875 71.160156 93.46875 71.160156 93.441406 71.160156 Z M 93.441406 71.160156 " fill-opacity="1" fill-rule="nonzero"/><path fill="#a65d19" d="M 94.140625 75.65625 C 93.992188 75.65625 93.878906 75.539062 93.847656 75.390625 C 93.820312 75.214844 93.9375 75.070312 94.109375 75.042969 L 120.132812 70.984375 C 120.308594 70.957031 120.453125 71.074219 120.484375 71.246094 C 120.511719 71.421875 120.394531 71.570312 120.222656 71.597656 L 94.199219 75.65625 C 94.167969 75.65625 94.167969 75.65625 94.140625 75.65625 Z M 94.140625 75.65625 " fill-opacity="1" fill-rule="nonzero"/><path fill="#a65d19" d="M 94.839844 80.148438 C 94.691406 80.148438 94.574219 80.03125 94.546875 79.886719 C 94.519531 79.710938 94.632812 79.566406 94.808594 79.535156 L 120.832031 75.480469 C 121.007812 75.449219 121.152344 75.566406 121.183594 75.742188 C 121.210938 75.917969 121.09375 76.0625 120.917969 76.09375 L 94.894531 80.148438 C 94.867188 80.148438 94.867188 80.148438 94.839844 80.148438 Z M 94.839844 80.148438 " fill-opacity="1" fill-rule="nonzero"/><path fill="#a65d19" d="M 60.632812 97.894531 C 60.488281 97.894531 60.34375 97.777344 60.34375 97.628906 C 60.3125 97.457031 60.429688 97.308594 60.605469 97.28125 L 86.660156 93.484375 C 86.832031 93.457031 86.976562 93.574219 87.007812 93.75 C 87.035156 93.925781 86.921875 94.070312 86.746094 94.097656 L 60.691406 97.894531 C 60.664062 97.894531 60.664062 97.894531 60.632812 97.894531 Z M 60.632812 97.894531 " fill-opacity="1" fill-rule="nonzero"/><path fill="#a65d19" d="M 61.304688 102.386719 C 61.160156 102.386719 61.011719 102.269531 61.011719 102.125 C 60.984375 101.949219 61.101562 101.804688 61.273438 101.773438 L 87.328125 97.980469 C 87.503906 97.953125 87.648438 98.066406 87.675781 98.242188 C 87.707031 98.417969 87.589844 98.5625 87.414062 98.59375 L 61.363281 102.386719 C 61.332031 102.386719 61.304688 102.386719 61.304688 102.386719 Z M 61.304688 102.386719 " fill-opacity="1" fill-rule="nonzero"/><path fill="#a65d19" d="M 61.945312 106.910156 C 61.800781 106.910156 61.652344 106.792969 61.652344 106.648438 C 61.625 106.472656 61.742188 106.328125 61.914062 106.296875 L 87.96875 102.503906 C 88.144531 102.476562 88.289062 102.589844 88.316406 102.765625 C 88.347656 102.941406 88.230469 103.085938 88.054688 103.117188 L 62.003906 106.910156 C 61.972656 106.910156 61.972656 106.910156 61.945312 106.910156 Z M 61.945312 106.910156 " fill-opacity="1" fill-rule="nonzero"/><path fill="#a65d19" d="M 62.585938 111.40625 C 62.4375 111.40625 62.292969 111.289062 62.292969 111.144531 C 62.265625 110.96875 62.382812 110.820312 62.554688 110.792969 L 88.609375 107 C 88.785156 106.96875 88.929688 107.085938 88.957031 107.261719 C 88.988281 107.4375 88.871094 107.582031 88.695312 107.613281 L 62.644531 111.40625 C 62.613281 111.40625 62.613281 111.40625 62.585938 111.40625 Z M 62.585938 111.40625 " fill-opacity="1" fill-rule="nonzero"/><path fill="#a65d19" d="M 63.253906 115.898438 C 63.109375 115.898438 62.964844 115.78125 62.964844 115.636719 C 62.933594 115.460938 63.050781 115.316406 63.226562 115.285156 L 89.277344 111.492188 C 89.453125 111.464844 89.597656 111.582031 89.628906 111.753906 C 89.65625 111.929688 89.539062 112.078125 89.367188 112.105469 L 63.3125 115.898438 C 63.285156 115.898438 63.253906 115.898438 63.253906 115.898438 Z M 63.253906 115.898438 " fill-opacity="1" fill-rule="nonzero"/><path fill="#a65d19" d="M 97.078125 92.464844 C 96.933594 92.464844 96.789062 92.347656 96.789062 92.203125 C 96.757812 92.027344 96.875 91.882812 97.050781 91.851562 L 123.101562 87.882812 C 123.277344 87.855469 123.421875 87.96875 123.453125 88.144531 C 123.480469 88.320312 123.363281 88.464844 123.191406 88.496094 L 97.136719 92.464844 C 97.109375 92.464844 97.109375 92.464844 97.078125 92.464844 Z M 97.078125 92.464844 " fill-opacity="1" fill-rule="nonzero"/><path fill="#a65d19" d="M 97.777344 96.960938 C 97.632812 96.960938 97.488281 96.84375 97.488281 96.695312 C 97.457031 96.519531 97.574219 96.375 97.75 96.347656 L 123.800781 92.378906 C 123.976562 92.347656 124.121094 92.464844 124.152344 92.640625 C 124.179688 92.816406 124.0625 92.960938 123.890625 92.988281 L 97.835938 96.960938 C 97.808594 96.960938 97.777344 96.960938 97.777344 96.960938 Z M 97.777344 96.960938 " fill-opacity="1" fill-rule="nonzero"/><path fill="#a65d19" d="M 98.449219 101.453125 C 98.300781 101.453125 98.15625 101.335938 98.15625 101.191406 C 98.128906 101.015625 98.242188 100.871094 98.417969 100.839844 L 124.472656 96.871094 C 124.644531 96.84375 124.792969 96.960938 124.820312 97.132812 C 124.847656 97.308594 124.734375 97.457031 124.558594 97.484375 L 98.503906 101.453125 C 98.476562 101.453125 98.476562 101.453125 98.449219 101.453125 Z M 98.449219 101.453125 " fill-opacity="1" fill-rule="nonzero"/><path fill="#a65d19" d="M 99.144531 105.949219 C 99 105.949219 98.855469 105.832031 98.855469 105.683594 C 98.824219 105.511719 98.941406 105.363281 99.117188 105.335938 L 125.167969 101.367188 C 125.34375 101.335938 125.488281 101.453125 125.519531 101.628906 C 125.546875 101.804688 125.433594 101.949219 125.257812 101.980469 L 99.203125 105.949219 C 99.175781 105.949219 99.144531 105.949219 99.144531 105.949219 Z M 99.144531 105.949219 " fill-opacity="1" fill-rule="nonzero"/><path fill="#a65d19" d="M 99.816406 110.441406 C 99.671875 110.441406 99.523438 110.324219 99.523438 110.179688 C 99.496094 110.003906 99.613281 109.859375 99.785156 109.828125 L 125.839844 105.859375 C 126.015625 105.832031 126.160156 105.949219 126.1875 106.121094 C 126.21875 106.296875 126.101562 106.445312 125.925781 106.472656 L 99.875 110.441406 C 99.84375 110.441406 99.84375 110.441406 99.816406 110.441406 Z M 99.816406 110.441406 " fill-opacity="1" fill-rule="nonzero"/><path fill="#a65d19" d="M 89.628906 48.863281 L 90.820312 56.976562 L 117.253906 52.074219 L 115.882812 44.136719 Z M 89.628906 48.863281 " fill-opacity="1" fill-rule="nonzero"/><path fill="#fad2a7" d="M 100.921875 131.222656 C 98.914062 131.222656 97.28125 129.585938 97.28125 127.574219 C 97.28125 125.558594 98.914062 123.925781 100.921875 123.925781 C 102.929688 123.925781 104.558594 125.558594 104.558594 127.574219 C 104.558594 129.558594 102.929688 131.222656 100.921875 131.222656 Z M 100.921875 124.246094 C 99.089844 124.246094 97.601562 125.734375 97.601562 127.574219 C 97.601562 129.414062 99.089844 130.902344 100.921875 130.902344 C 102.753906 130.902344 104.242188 129.414062 104.242188 127.574219 C 104.242188 125.734375 102.726562 124.246094 100.921875 124.246094 Z M 100.921875 124.246094 " fill-opacity="1" fill-rule="nonzero"/><path fill="#331807" d="M 57.78125 137.964844 L 55.191406 138.226562 C 53.328125 138.429688 51.609375 137.144531 51.230469 135.277344 L 29.691406 23.472656 C 29.3125 21.457031 30.679688 19.503906 32.691406 19.183594 L 34.175781 18.949219 Z M 57.78125 137.964844 " fill-opacity="1" fill-rule="nonzero"/><path fill="#ffffff" d="M 98.941406 117.855469 L 78.246094 119.8125 L 80.574219 87.53125 L 83.222656 80.265625 L 90.179688 79.59375 L 92.976562 83.855469 Z M 98.941406 117.855469 " fill-opacity="1" fill-rule="nonzero"/><path fill="#331807" d="M 92.976562 83.855469 C 88.929688 85.34375 84.796875 86.597656 80.574219 87.53125 L 81.070312 80.46875 L 92.1875 79.417969 Z M 92.976562 83.855469 " fill-opacity="1" fill-rule="nonzero"/><path fill="#ffffff" d="M 139.667969 81.871094 L 85.523438 83.652344 L 77.605469 80.585938 L 73.179688 64.332031 L 81.476562 54.671875 L 125.925781 24.40625 Z M 139.667969 81.871094 " fill-opacity="1" fill-rule="nonzero"/><path fill="#d36b0c" d="M 140.074219 81.667969 C 136.753906 82.394531 132.796875 78.515625 129.390625 71.917969 L 128.894531 56.070312 L 121.9375 44.632812 C 120.976562 33.308594 122.988281 24.667969 127.351562 23.707031 C 132.972656 22.480469 140.394531 34.445312 143.886719 50.4375 C 147.4375 66.433594 145.722656 80.410156 140.074219 81.667969 Z M 140.074219 81.667969 " fill-opacity="1" fill-rule="nonzero"/><path fill="#d36b0c" d="M 85.523438 83.652344 L 73.179688 84.058594 L 69.164062 74.605469 L 68.550781 63.515625 L 81.476562 54.699219 C 79.90625 64.449219 81.332031 74.691406 85.523438 83.652344 Z M 85.523438 83.652344 " fill-opacity="1" fill-rule="nonzero"/><path fill="#fad2a7" d="M 137.511719 60.214844 L 129.417969 71.890625 C 127.0625 67.308594 124.820312 61.324219 123.394531 54.757812 C 122.609375 51.167969 122.257812 47.667969 121.96875 44.601562 L 133.699219 46.121094 C 134.6875 46.238281 135.472656 46.996094 135.679688 47.957031 L 137.863281 58.378906 C 138.035156 59.046875 137.890625 59.691406 137.511719 60.214844 Z M 137.511719 60.214844 " fill-opacity="1" fill-rule="nonzero"/><path fill="#d36b0c" d="M 138.183594 62.578125 C 135.300781 60.710938 133.261719 57.675781 132.59375 54.292969 C 131.921875 50.90625 132.652344 47.34375 134.601562 44.484375 L 135.152344 44.863281 C 133.347656 47.519531 132.621094 50.992188 133.261719 54.144531 C 133.902344 57.296875 135.882812 60.246094 138.558594 61.996094 Z M 138.183594 62.578125 " fill-opacity="1" fill-rule="nonzero"/><path fill="#331807" d="M 73.179688 84.058594 L 68.550781 63.484375 C 68.550781 63.484375 62.46875 68.039062 63.894531 75.246094 C 65.613281 83.769531 73.179688 84.058594 73.179688 84.058594 Z M 73.179688 84.058594 " fill-opacity="1" fill-rule="nonzero"/><path fill="#331807" d="M 25.0625 68.476562 L 33.648438 84.148438 C 35.542969 87.589844 34.261719 91.9375 30.855469 93.808594 L 23.695312 97.746094 C 20.261719 99.644531 15.921875 98.359375 14.058594 94.945312 L 5.472656 79.273438 C 4.597656 77.699219 4.394531 75.945312 4.773438 74.28125 C 4.832031 74.019531 4.917969 73.757812 5.007812 73.464844 C 5.558594 71.859375 6.695312 70.460938 8.265625 69.585938 L 15.429688 65.644531 C 17.027344 64.769531 18.804688 64.5625 20.464844 64.945312 C 20.726562 65.003906 20.988281 65.089844 21.25 65.175781 C 22.820312 65.789062 24.21875 66.898438 25.0625 68.476562 Z M 25.0625 68.476562 " fill-opacity="1" fill-rule="nonzero"/><path fill="#ffaa68" d="M 8.835938 85.386719 L 28.421875 74.578125 L 28.703125 75.089844 L 9.117188 85.898438 Z M 8.835938 85.386719 " fill-opacity="1" fill-rule="nonzero"/><path fill="#ffaa68" d="M 21.25 65.207031 L 4.773438 74.3125 C 4.832031 74.050781 4.917969 73.785156 5.007812 73.496094 L 20.464844 64.972656 C 20.726562 65.03125 20.988281 65.117188 21.25 65.207031 Z M 21.25 65.207031 " fill-opacity="1" fill-rule="nonzero"/><path fill="#a65d19" d="M 57.054688 143.917969 L 50.824219 143.917969 L 36.589844 120.570312 L 32.574219 113.972656 L 31.84375 112.746094 L 39.210938 108.867188 L 39.761719 109.976562 L 40.605469 111.667969 L 50.386719 130.871094 L 54.113281 138.195312 L 56.851562 143.566406 L 56.996094 143.828125 Z M 57.054688 143.917969 " fill-opacity="1" fill-rule="nonzero"/><path fill="#361500" d="M 40.605469 111.667969 C 39.472656 114.734375 38.132812 117.710938 36.589844 120.570312 L 31.84375 112.746094 L 39.210938 108.867188 Z M 40.605469 111.667969 " fill-opacity="1" fill-rule="nonzero"/><path fill="#d36b0c" d="M 12.082031 100.023438 L 38.976562 85.199219 C 40.289062 84.46875 41.945312 84.964844 42.675781 86.277344 L 50.679688 100.871094 C 51.40625 102.183594 50.910156 103.847656 49.601562 104.578125 L 23.082031 119.199219 C 21.773438 119.925781 20.171875 119.460938 19.414062 118.175781 C 17.320312 114.527344 13.246094 107.496094 11.0625 103.789062 C 10.277344 102.476562 10.742188 100.753906 12.082031 100.023438 Z M 12.082031 100.023438 " fill-opacity="1" fill-rule="nonzero"/><path fill="#fad2a7" d="M 42.730469 91.121094 L 40.664062 87.386719 L 33.445312 91.355469 L 30.941406 92.757812 L 26.839844 95.003906 L 20.261719 98.621094 L 13.390625 102.417969 L 13.246094 102.476562 L 21.484375 117.476562 L 26.839844 114.527344 L 45.265625 104.371094 L 46.253906 103.816406 L 48.757812 102.417969 L 48.902344 102.359375 Z M 46.050781 103.582031 L 45.234375 104.050781 L 26.867188 114.179688 L 21.628906 117.066406 L 13.679688 102.589844 L 20.929688 98.59375 L 26.867188 95.324219 L 31.292969 92.875 L 33.097656 91.882812 L 40.550781 87.765625 L 42.90625 92.054688 L 48.496094 102.242188 Z M 46.050781 103.582031 " fill-opacity="1" fill-rule="nonzero"/></svg>