<svg xmlns="http://www.w3.org/2000/svg" width="200" viewBox="0 0 150 150" height="200" version="1.0"><defs><clipPath id="a"><path d="M1.313 0h147v147h-147Zm0 0"/></clipPath></defs><path fill="#e5e5e5" d="M66.11 73.852c4.46 2.859 9.933 3.16 15.019.82a2.154 2.154 0 0 0 1.058-2.863 2.156 2.156 0 0 0-2.859-1.059c-3.723 1.71-7.691 1.52-10.894-.531-3.121-2.004-4.989-5.403-4.989-9.094 0-5.95 4.844-10.79 10.793-10.79 5.95 0 10.79 4.84 10.79 10.79a2.161 2.161 0 0 1-2.16 2.156c-1.087 0-2.102-.824-2.157-2.125v-.031c0-3.57-2.902-6.477-6.473-6.477a6.485 6.485 0 0 0-6.476 6.477c0 3.57 2.906 6.473 6.476 6.473a6.435 6.435 0 0 0 4.313-1.653 6.453 6.453 0 0 0 4.316 1.653c3.57 0 6.477-2.903 6.477-6.473 0-8.328-6.778-15.105-15.106-15.105-8.332 0-15.105 6.777-15.105 15.105 0 5.172 2.605 9.93 6.976 12.727Zm8.128-10.57a2.159 2.159 0 1 1 0-4.317c1.106 0 2.02.84 2.145 1.914-.035.195-.04.394-.016.59a2.162 2.162 0 0 1-2.129 1.812Zm0 0"/><path fill="#e5e5e5" d="M107.844 109.96H41.785a.863.863 0 0 1-.863-.858V64.52a.86.86 0 0 1 .863-.86.86.86 0 0 1 .86.86v43.718h64.34V64.52c0-.477.382-.86.859-.86a.86.86 0 0 1 .863.86v44.582c0 .472-.387.859-.863.859Zm0 0"/><path fill="#e5e5e5" d="M107.844 110.938H41.785a1.84 1.84 0 0 1-1.84-1.836V64.52a1.839 1.839 0 0 1 3.676 0v42.742h62.387V64.52c0-1.012.824-1.836 1.836-1.836 1.011 0 1.836.824 1.836 1.836v44.582a1.839 1.839 0 0 1-1.836 1.835Zm0 0"/><path fill="#e5e5e5" d="m108.418 63.703-33.031-29.52a.864.864 0 0 0-1.145 0l-33.031 29.52a.857.857 0 0 0 0 1.285l24.215 21.86 1.465-1.301-23.817-21.203L74.813 35.98l31.742 28.364-23.883 21.363 1.465 1.3 24.281-22.019a.865.865 0 0 0 .289-.644.863.863 0 0 0-.289-.64Zm0 0"/><path fill="#e5e5e5" d="m84.145 88.32-2.938-2.613 23.879-21.363-30.273-27.051-30.27 27.05 23.816 21.2-2.937 2.613-24.867-22.441a1.846 1.846 0 0 1-.61-1.371c0-.52.223-1.02.614-1.367l33.03-29.52a1.837 1.837 0 0 1 2.446 0l33.031 29.52a1.834 1.834 0 0 1 0 2.738Zm0 0"/><path fill="#e5e5e5" d="M107.844 109.96H41.785a.86.86 0 0 1-.574-1.504l33.031-29.515a.855.855 0 0 1 1.145 0l33.031 29.516a.86.86 0 0 1-.574 1.504Zm-63.805-1.722h61.55l-30.776-27.5Zm0 0"/><path fill="#e5e5e5" d="M107.844 110.938H41.785c-.762 0-1.45-.477-1.719-1.188-.27-.7-.07-1.516.493-2.02l33.03-29.52c.7-.62 1.75-.62 2.45 0l33.031 29.52a1.84 1.84 0 0 1-1.227 3.207Zm-61.246-3.676h56.433L74.812 82.047Zm0 0"/><g clip-path="url(#a)"><path fill="#e5e5e5" d="M74.813 147.008c-9.922 0-19.547-1.946-28.614-5.778-8.75-3.703-16.61-9-23.36-15.75s-12.05-14.609-15.75-23.363c-3.835-9.062-5.777-18.691-5.777-28.61 0-9.921 1.942-19.55 5.778-28.612 3.7-8.754 9-16.614 15.75-23.364A73.281 73.281 0 0 1 46.2 5.781C55.265 1.945 64.89.004 74.811.004c9.922 0 19.547 1.941 28.61 5.777 8.754 3.7 16.613 9 23.363 15.75a73.255 73.255 0 0 1 15.75 23.364c3.836 9.062 5.778 18.69 5.778 28.613 0 9.918-1.946 19.547-5.778 28.61a73.255 73.255 0 0 1-15.75 23.362 73.255 73.255 0 0 1-23.363 15.75c-9.063 3.833-18.688 5.778-28.61 5.778Zm0-141.676c-18.211 0-35.329 7.094-48.204 19.969C13.73 38.176 6.641 55.297 6.641 73.504c0 18.21 7.093 35.328 19.968 48.207 12.875 12.875 29.993 19.965 48.203 19.965 18.211 0 35.329-7.09 48.208-19.965 12.875-12.875 19.964-29.996 19.964-48.207 0-18.207-7.09-35.328-19.964-48.203-12.88-12.875-30-19.969-48.207-19.969Zm0 0"/></g></svg>