<svg xmlns="http://www.w3.org/2000/svg" xmlns:xlink="http://www.w3.org/1999/xlink" width="200" zoomAndPan="magnify" viewBox="0 0 150 149.999998" height="200" preserveAspectRatio="xMidYMid meet" version="1.0"><defs><clipPath id="e1aab696b3"><path d="M 1.3125 0 L 148.3125 0 L 148.3125 147 L 1.3125 147 Z M 1.3125 0 " clip-rule="nonzero"/></clipPath></defs><path fill="#e5e5e5" d="M 66.109375 73.851562 C 70.570312 76.710938 76.042969 77.011719 81.128906 74.671875 C 82.214844 74.175781 82.6875 72.890625 82.1875 71.808594 C 81.691406 70.726562 80.410156 70.253906 79.328125 70.75 C 75.605469 72.460938 71.636719 72.269531 68.433594 70.21875 C 65.3125 68.214844 63.445312 64.816406 63.445312 61.125 C 63.445312 55.175781 68.289062 50.335938 74.238281 50.335938 C 80.1875 50.335938 85.027344 55.175781 85.027344 61.125 C 85.027344 62.3125 84.058594 63.28125 82.867188 63.28125 C 81.78125 63.28125 80.765625 62.457031 80.710938 61.15625 C 80.710938 61.148438 80.710938 61.136719 80.710938 61.125 C 80.710938 57.554688 77.808594 54.648438 74.238281 54.648438 C 70.667969 54.648438 67.761719 57.554688 67.761719 61.125 C 67.761719 64.695312 70.667969 67.597656 74.238281 67.597656 C 75.894531 67.597656 77.40625 66.972656 78.550781 65.945312 C 79.699219 66.972656 81.210938 67.597656 82.867188 67.597656 C 86.4375 67.597656 89.34375 64.695312 89.34375 61.125 C 89.34375 52.796875 82.566406 46.019531 74.238281 46.019531 C 65.90625 46.019531 59.132812 52.796875 59.132812 61.125 C 59.132812 66.296875 61.738281 71.054688 66.109375 73.851562 Z M 74.238281 63.28125 C 73.046875 63.28125 72.078125 62.316406 72.078125 61.125 C 72.078125 59.933594 73.046875 58.964844 74.238281 58.964844 C 75.34375 58.964844 76.257812 59.804688 76.382812 60.878906 C 76.347656 61.074219 76.34375 61.273438 76.367188 61.46875 C 76.199219 62.496094 75.308594 63.28125 74.238281 63.28125 Z M 74.238281 63.28125 " fill-opacity="1" fill-rule="nonzero"/><path fill="#e5e5e5" d="M 107.84375 109.960938 L 41.785156 109.960938 C 41.308594 109.960938 40.921875 109.574219 40.921875 109.101562 L 40.921875 64.519531 C 40.921875 64.042969 41.308594 63.660156 41.785156 63.660156 C 42.257812 63.660156 42.644531 64.042969 42.644531 64.519531 L 42.644531 108.238281 L 106.984375 108.238281 L 106.984375 64.519531 C 106.984375 64.042969 107.367188 63.660156 107.84375 63.660156 C 108.320312 63.660156 108.707031 64.042969 108.707031 64.519531 L 108.707031 109.101562 C 108.707031 109.574219 108.320312 109.960938 107.84375 109.960938 Z M 107.84375 109.960938 " fill-opacity="1" fill-rule="nonzero"/><path fill="#e5e5e5" d="M 107.84375 110.9375 L 41.785156 110.9375 C 40.769531 110.9375 39.945312 110.113281 39.945312 109.101562 L 39.945312 64.519531 C 39.945312 63.507812 40.769531 62.683594 41.785156 62.683594 C 42.796875 62.683594 43.621094 63.507812 43.621094 64.519531 L 43.621094 107.261719 L 106.007812 107.261719 L 106.007812 64.519531 C 106.007812 63.507812 106.832031 62.683594 107.84375 62.683594 C 108.855469 62.683594 109.679688 63.507812 109.679688 64.519531 L 109.679688 109.101562 C 109.679688 110.113281 108.855469 110.9375 107.84375 110.9375 Z M 107.84375 110.9375 " fill-opacity="1" fill-rule="nonzero"/><path fill="#e5e5e5" d="M 108.417969 63.703125 L 75.386719 34.183594 C 75.0625 33.894531 74.566406 33.894531 74.242188 34.183594 L 41.210938 63.703125 C 41.027344 63.867188 40.921875 64.101562 40.921875 64.347656 C 40.921875 64.59375 41.027344 64.824219 41.210938 64.988281 L 65.425781 86.847656 L 66.890625 85.546875 L 43.074219 64.34375 L 74.8125 35.980469 L 106.554688 64.34375 L 82.671875 85.707031 L 84.136719 87.007812 L 108.417969 64.988281 C 108.601562 64.824219 108.707031 64.589844 108.707031 64.34375 C 108.707031 64.101562 108.601562 63.867188 108.417969 63.703125 Z M 108.417969 63.703125 " fill-opacity="1" fill-rule="nonzero"/><path fill="#e5e5e5" d="M 84.144531 88.320312 L 81.207031 85.707031 L 105.085938 64.34375 L 74.8125 37.292969 L 44.542969 64.34375 L 68.359375 85.542969 L 65.421875 88.15625 L 40.554688 65.714844 C 40.167969 65.367188 39.945312 64.867188 39.945312 64.34375 C 39.945312 63.824219 40.167969 63.324219 40.558594 62.976562 L 73.589844 33.457031 C 74.285156 32.835938 75.339844 32.835938 76.035156 33.457031 L 109.066406 62.976562 C 109.457031 63.324219 109.679688 63.824219 109.679688 64.34375 C 109.679688 64.867188 109.457031 65.367188 109.066406 65.714844 Z M 84.144531 88.320312 " fill-opacity="1" fill-rule="nonzero"/><path fill="#e5e5e5" d="M 107.84375 109.960938 L 41.785156 109.960938 C 41.425781 109.960938 41.105469 109.742188 40.980469 109.40625 C 40.851562 109.074219 40.945312 108.695312 41.210938 108.457031 L 74.242188 78.941406 C 74.566406 78.648438 75.0625 78.648438 75.386719 78.941406 L 108.417969 108.457031 C 108.683594 108.695312 108.777344 109.074219 108.648438 109.40625 C 108.523438 109.742188 108.199219 109.960938 107.84375 109.960938 Z M 44.039062 108.238281 L 105.589844 108.238281 L 74.8125 80.738281 Z M 44.039062 108.238281 " fill-opacity="1" fill-rule="nonzero"/><path fill="#e5e5e5" d="M 107.84375 110.9375 L 41.785156 110.9375 C 41.023438 110.9375 40.335938 110.460938 40.066406 109.75 C 39.796875 109.050781 39.996094 108.234375 40.558594 107.730469 L 73.589844 78.210938 C 74.289062 77.589844 75.339844 77.589844 76.039062 78.210938 L 109.070312 107.730469 C 109.632812 108.234375 109.832031 109.050781 109.558594 109.757812 C 109.292969 110.460938 108.605469 110.9375 107.84375 110.9375 Z M 46.597656 107.261719 L 103.03125 107.261719 L 74.8125 82.046875 Z M 46.597656 107.261719 " fill-opacity="1" fill-rule="nonzero"/><g clip-path="url(#e1aab696b3)"><path fill="#e5e5e5" d="M 74.8125 147.007812 C 64.890625 147.007812 55.265625 145.0625 46.199219 141.230469 C 37.449219 137.527344 29.589844 132.230469 22.839844 125.480469 C 16.089844 118.730469 10.789062 110.871094 7.089844 102.117188 C 3.253906 93.054688 1.3125 83.425781 1.3125 73.507812 C 1.3125 63.585938 3.253906 53.957031 7.089844 44.894531 C 10.789062 36.140625 16.089844 28.28125 22.839844 21.53125 C 29.589844 14.78125 37.449219 9.484375 46.199219 5.78125 C 55.265625 1.945312 64.890625 0.00390625 74.8125 0.00390625 C 84.734375 0.00390625 94.359375 1.945312 103.421875 5.78125 C 112.175781 9.480469 120.035156 14.78125 126.785156 21.53125 C 133.535156 28.28125 138.832031 36.140625 142.535156 44.894531 C 146.371094 53.957031 148.3125 63.585938 148.3125 73.507812 C 148.3125 83.425781 146.367188 93.054688 142.535156 102.117188 C 138.832031 110.871094 133.535156 118.730469 126.785156 125.480469 C 120.035156 132.230469 112.175781 137.527344 103.421875 141.230469 C 94.359375 145.0625 84.734375 147.007812 74.8125 147.007812 Z M 74.8125 5.332031 C 56.601562 5.332031 39.484375 12.425781 26.609375 25.300781 C 13.730469 38.175781 6.640625 55.296875 6.640625 73.503906 C 6.640625 91.714844 13.734375 108.832031 26.609375 121.710938 C 39.484375 134.585938 56.601562 141.675781 74.8125 141.675781 C 93.023438 141.675781 110.140625 134.585938 123.019531 121.710938 C 135.894531 108.835938 142.984375 91.714844 142.984375 73.503906 C 142.984375 55.296875 135.894531 38.175781 123.019531 25.300781 C 110.140625 12.425781 93.019531 5.332031 74.8125 5.332031 Z M 74.8125 5.332031 " fill-opacity="1" fill-rule="nonzero"/></g></svg>