<svg xmlns="http://www.w3.org/2000/svg" xmlns:xlink="http://www.w3.org/1999/xlink" width="200" zoomAndPan="magnify" viewBox="0 0 150 149.999998" height="200" preserveAspectRatio="xMidYMid meet" version="1.0"><defs><clipPath id="c04643dd56"><path d="M 1.871094 1.820312 L 148.070312 1.820312 L 148.070312 148.070312 L 1.871094 148.070312 Z M 1.871094 1.820312 " clip-rule="nonzero"/></clipPath></defs><g clip-path="url(#c04643dd56)"><path fill="#e5e5e5" d="M 75.039062 14 C 41.363281 14 14.066406 41.296875 14.066406 74.972656 C 14.066406 108.648438 41.363281 135.949219 75.039062 135.949219 C 108.714844 135.949219 136.015625 108.648438 136.015625 74.972656 C 136.015625 41.296875 108.714844 14 75.039062 14 Z M 1.871094 74.972656 C 1.871094 34.5625 34.628906 1.804688 75.039062 1.804688 C 115.453125 1.804688 148.210938 34.5625 148.210938 74.972656 C 148.210938 115.386719 115.453125 148.144531 75.039062 148.144531 C 34.628906 148.144531 1.871094 115.386719 1.871094 74.972656 Z M 1.871094 74.972656 " fill-opacity="1" fill-rule="evenodd"/></g><path fill="#e5e5e5" d="M 60.355469 140.4375 C 59.765625 139.675781 59.765625 132.894531 60.355469 120.089844 C 54.039062 120.308594 50.046875 119.871094 48.382812 118.777344 C 45.886719 117.132812 43.386719 112.066406 41.164062 108.5 C 38.949219 104.929688 34.023438 104.363281 32.035156 103.566406 C 30.046875 102.769531 29.546875 99.515625 37.515625 101.976562 C 45.480469 104.4375 45.871094 111.136719 48.382812 112.703125 C 50.894531 114.269531 56.90625 113.582031 59.628906 112.328125 C 62.351562 111.074219 62.152344 106.402344 62.636719 104.550781 C 63.25 102.820312 61.085938 102.4375 61.039062 102.425781 C 58.378906 102.425781 44.414062 99.386719 40.574219 85.859375 C 36.738281 72.335938 41.679688 63.492188 44.316406 59.691406 C 46.074219 57.160156 45.921875 51.757812 43.851562 43.492188 C 51.363281 42.53125 57.160156 44.894531 61.238281 50.585938 C 61.242188 50.617188 66.589844 47.40625 75.042969 47.40625 C 83.492188 47.40625 86.488281 50.023438 88.804688 50.585938 C 91.117188 51.148438 92.96875 40.628906 107.257812 43.492188 C 104.273438 49.355469 101.773438 56.683594 103.683594 59.691406 C 105.589844 62.703125 113.074219 72.277344 108.476562 85.859375 C 105.410156 94.917969 99.386719 100.4375 90.402344 102.425781 C 89.371094 102.753906 88.855469 103.285156 88.855469 104.015625 C 88.855469 105.113281 90.25 105.234375 92.253906 110.375 C 93.59375 113.804688 93.691406 123.597656 92.546875 139.75 C 89.644531 140.488281 87.390625 140.984375 85.777344 141.238281 C 82.921875 141.6875 79.816406 141.941406 76.769531 142.035156 C 73.71875 142.132812 72.660156 142.125 68.445312 141.730469 C 65.636719 141.46875 62.9375 141.039062 60.355469 140.4375 Z M 60.355469 140.4375 " fill-opacity="1" fill-rule="evenodd"/></svg>