<svg xmlns="http://www.w3.org/2000/svg" xmlns:xlink="http://www.w3.org/1999/xlink" width="200" zoomAndPan="magnify" viewBox="0 0 150 149.999998" height="200" preserveAspectRatio="xMidYMid meet" version="1.0"><defs><clipPath id="df63a49b5a"><path d="M 0.0507812 0 L 150 0 L 150 149.96875 L 0.0507812 149.96875 Z M 0.0507812 0 " clip-rule="nonzero"/></clipPath></defs><g clip-path="url(#df63a49b5a)"><path fill="#14213d" d="M 75.042969 12.480469 C 40.527344 12.480469 12.546875 40.460938 12.546875 74.976562 C 12.546875 109.488281 40.527344 137.46875 75.042969 137.46875 C 109.554688 137.46875 137.535156 109.488281 137.535156 74.976562 C 137.535156 40.460938 109.554688 12.480469 75.042969 12.480469 Z M 0.0507812 74.976562 C 0.0507812 33.558594 33.625 -0.0195312 75.042969 -0.0195312 C 116.460938 -0.0195312 150.035156 33.558594 150.035156 74.976562 C 150.035156 116.390625 116.460938 149.96875 75.042969 149.96875 C 33.625 149.96875 0.0507812 116.390625 0.0507812 74.976562 Z M 0.0507812 74.976562 " fill-opacity="1" fill-rule="evenodd"/></g><path fill="#14213d" d="M 59.992188 142.066406 C 59.386719 141.285156 59.386719 134.335938 59.992188 121.214844 C 53.515625 121.4375 49.425781 120.988281 47.722656 119.867188 C 45.160156 118.183594 42.597656 112.992188 40.324219 109.332031 C 38.050781 105.675781 33.003906 105.097656 30.964844 104.277344 C 28.925781 103.460938 28.414062 100.128906 36.582031 102.648438 C 44.746094 105.167969 45.144531 112.035156 47.722656 113.640625 C 50.296875 115.246094 56.453125 114.542969 59.246094 113.257812 C 62.039062 111.972656 61.832031 107.183594 62.332031 105.285156 C 62.960938 103.515625 60.742188 103.121094 60.691406 103.109375 C 57.96875 103.109375 43.652344 99.996094 39.71875 86.132812 C 35.785156 72.269531 40.851562 63.207031 43.554688 59.3125 C 45.355469 56.714844 45.195312 51.179688 43.078125 42.707031 C 50.773438 41.726562 56.714844 44.148438 60.898438 49.976562 C 60.902344 50.011719 66.382812 46.71875 75.042969 46.71875 C 83.703125 46.71875 86.777344 49.402344 89.148438 49.976562 C 91.519531 50.554688 93.414062 39.773438 108.0625 42.707031 C 105.003906 48.71875 102.441406 56.226562 104.398438 59.3125 C 106.351562 62.398438 114.023438 72.207031 109.308594 86.132812 C 106.167969 95.414062 99.992188 101.074219 90.785156 103.109375 C 89.730469 103.445312 89.203125 103.988281 89.203125 104.738281 C 89.203125 105.863281 90.628906 105.988281 92.6875 111.257812 C 94.058594 114.773438 94.15625 124.808594 92.984375 141.363281 C 90.011719 142.121094 87.699219 142.628906 86.046875 142.890625 C 83.117188 143.351562 79.9375 143.609375 76.8125 143.707031 C 73.6875 143.808594 72.605469 143.796875 68.285156 143.394531 C 65.402344 143.125 62.640625 142.683594 59.992188 142.066406 Z M 59.992188 142.066406 " fill-opacity="1" fill-rule="evenodd"/></svg>