<svg xmlns="http://www.w3.org/2000/svg" width="200" viewBox="0 0 150 150" height="200" version="1.0"><defs><clipPath id="a"><path d="M1.871 1.82h146.2v146.25H1.87Zm0 0"/></clipPath></defs><g clip-path="url(#a)"><path fill="#e5e5e5" d="M75.04 14c-33.677 0-60.974 27.297-60.974 60.973 0 33.675 27.297 60.976 60.973 60.976s60.977-27.3 60.977-60.976S108.715 14 75.039 14ZM1.87 74.973c0-40.41 32.758-73.168 73.168-73.168 40.414 0 73.172 32.758 73.172 73.168 0 40.414-32.758 73.172-73.172 73.172-40.41 0-73.168-32.758-73.168-73.172Zm0 0" fill-rule="evenodd"/></g><path fill="#e5e5e5" d="M60.355 140.438c-.59-.762-.59-7.543 0-20.348-6.316.219-10.308-.219-11.972-1.313-2.496-1.644-4.996-6.71-7.219-10.277-2.215-3.57-7.14-4.137-9.129-4.934-1.988-.796-2.488-4.05 5.48-1.59 7.965 2.462 8.356 9.16 10.868 10.727 2.512 1.567 8.523.879 11.246-.375 2.723-1.254 2.523-5.926 3.008-7.777.613-1.73-1.551-2.114-1.598-2.125-2.66 0-16.625-3.04-20.465-16.567-3.836-13.523 1.106-22.367 3.742-26.168 1.758-2.53 1.606-7.933-.464-16.199 7.511-.96 13.308 1.403 17.386 7.094.004.031 5.352-3.18 13.805-3.18 8.45 0 11.445 2.617 13.762 3.18 2.312.562 4.164-9.957 18.453-7.094-2.985 5.863-5.485 13.192-3.574 16.2 1.906 3.011 9.39 12.585 4.793 26.167-3.067 9.059-9.09 14.579-18.075 16.567-1.03.328-1.547.86-1.547 1.59 0 1.097 1.395 1.218 3.399 6.359 1.34 3.43 1.437 13.223.293 29.375-2.902.738-5.156 1.234-6.77 1.488-2.855.45-5.96.703-9.007.797-3.051.098-4.11.09-8.325-.305a60.303 60.303 0 0 1-8.09-1.292Zm0 0" fill-rule="evenodd"/></svg>