<svg xmlns="http://www.w3.org/2000/svg" width="200" viewBox="0 0 150 150" height="200" version="1.0"><defs><clipPath id="a"><path d="M.05 0H150v149.969H.05Zm0 0"/></clipPath></defs><g clip-path="url(#a)"><path fill="#14213d" d="M75.043 12.48c-34.516 0-62.496 27.98-62.496 62.497 0 34.511 27.98 62.492 62.496 62.492 34.512 0 62.492-27.98 62.492-62.492 0-34.516-27.98-62.497-62.492-62.497ZM.051 74.977C.05 33.559 33.625-.02 75.043-.02c41.418 0 74.992 33.579 74.992 74.997 0 41.414-33.574 74.992-74.992 74.992-41.418 0-74.992-33.578-74.992-74.992Zm0 0" fill-rule="evenodd"/></g><path fill="#14213d" d="M59.992 142.066c-.605-.78-.605-7.73 0-20.851-6.476.222-10.566-.227-12.27-1.348-2.562-1.683-5.124-6.875-7.398-10.535-2.273-3.656-7.32-4.234-9.36-5.055-2.038-.816-2.55-4.148 5.618-1.629 8.164 2.52 8.563 9.387 11.14 10.993 2.575 1.605 8.731.902 11.524-.383 2.793-1.285 2.586-6.074 3.086-7.973.629-1.77-1.59-2.164-1.64-2.176-2.723 0-17.04-3.113-20.973-16.976-3.934-13.863 1.133-22.926 3.836-26.82 1.8-2.598 1.64-8.133-.477-16.606 7.695-.98 13.637 1.441 17.82 7.27.004.035 5.485-3.258 14.145-3.258s11.734 2.683 14.105 3.258c2.372.578 4.266-10.204 18.915-7.27-3.06 6.012-5.622 13.52-3.665 16.605 1.954 3.086 9.625 12.895 4.91 26.82-3.14 9.282-9.316 14.942-18.523 16.977-1.055.336-1.582.88-1.582 1.63 0 1.124 1.426 1.25 3.484 6.519 1.372 3.515 1.47 13.55.297 30.105-2.972.758-5.285 1.266-6.937 1.528-2.93.46-6.11.718-9.234.816-3.126.102-4.208.09-8.528-.312a61.875 61.875 0 0 1-8.293-1.329Zm0 0" fill-rule="evenodd"/></svg>