<svg xmlns="http://www.w3.org/2000/svg" width="200" viewBox="0 0 150 150" height="200" version="1.0"><defs><clipPath id="a"><path d="M1.281 0H149v147.75H1.281Zm0 0"/></clipPath></defs><g clip-path="url(#a)"><path fill="#e5e5e5" d="M75 0C34.352 0 1.285 33.07 1.285 73.715c0 40.648 33.067 73.719 73.715 73.719 40.645 0 73.715-33.07 73.715-73.72C148.715 33.07 115.645 0 75 0Zm0 143.52c-38.488 0-69.8-31.317-69.8-69.805 0-38.485 31.312-69.8 69.8-69.8s69.8 31.315 69.8 69.8c0 38.488-31.312 69.805-69.8 69.805Zm0 0"/></g><path fill="#e5e5e5" d="M89.621 31.043H60.38c-15.469 0-28.05 12.586-28.05 28.05v29.243c0 15.469 12.581 28.055 28.05 28.055H89.62c15.465 0 28.05-12.586 28.05-28.055V59.094c0-15.465-12.581-28.051-28.05-28.051Zm24.137 57.297c0 13.308-10.828 24.137-24.137 24.137H60.38c-13.309 0-24.137-10.829-24.137-24.137V59.094c0-13.309 10.828-24.137 24.137-24.137H89.62c13.309 0 24.137 10.828 24.137 24.137Zm0 0"/><path fill="#e5e5e5" d="M75 49.344c-13.441 0-24.375 10.933-24.375 24.37C50.625 87.157 61.559 98.09 75 98.09s24.375-10.934 24.375-24.375c0-13.438-10.934-24.371-24.375-24.371Zm0 44.832c-11.281 0-20.46-9.176-20.46-20.461 0-11.281 9.179-20.457 20.46-20.457s20.46 9.176 20.46 20.457c0 11.285-9.179 20.46-20.46 20.46Zm0 0"/><path fill="#e5e5e5" d="M96.703 43.746a6.918 6.918 0 0 0-6.91 6.91c0 3.809 3.102 6.907 6.91 6.907 3.809 0 6.91-3.098 6.91-6.907a6.918 6.918 0 0 0-6.91-6.91Zm0 9.902a2.998 2.998 0 0 1-2.996-2.992 3 3 0 0 1 2.996-2.996 3 3 0 0 1 2.996 2.996 2.998 2.998 0 0 1-2.996 2.992Zm0 0"/></svg>