<svg xmlns="http://www.w3.org/2000/svg" xmlns:xlink="http://www.w3.org/1999/xlink" width="200" zoomAndPan="magnify" viewBox="0 0 150 149.999998" height="200" preserveAspectRatio="xMidYMid meet" version="1.0"><defs><filter x="0%" y="0%" width="100%" height="100%" id="f6df2017b2"><feColorMatrix values="0 0 0 0 1 0 0 0 0 1 0 0 0 0 1 0 0 0 1 0" color-interpolation-filters="sRGB"/></filter><mask id="297e2469e2"><g filter="url(#f6df2017b2)"><rect x="-15" width="180" fill="#000000" y="-15" height="179.999997" fill-opacity="0.83"/></g></mask><clipPath id="b8905cfd71"><path d="M 0.421875 0.195312 L 47.269531 0.195312 L 47.269531 47.042969 L 0.421875 47.042969 Z M 0.421875 0.195312 " clip-rule="nonzero"/></clipPath><clipPath id="aaf56df281"><path d="M 23.847656 0.195312 C 10.910156 0.195312 0.421875 10.683594 0.421875 23.621094 C 0.421875 36.554688 10.910156 47.042969 23.847656 47.042969 C 36.785156 47.042969 47.269531 36.554688 47.269531 23.621094 C 47.269531 10.683594 36.785156 0.195312 23.847656 0.195312 Z M 23.847656 0.195312 " clip-rule="nonzero"/></clipPath><clipPath id="b3d4f723a9"><rect x="0" width="48" y="0" height="48"/></clipPath><mask id="d7ddef1be4"><g filter="url(#f6df2017b2)"><rect x="-15" width="180" fill="#000000" y="-15" height="179.999997" fill-opacity="0.52"/></g></mask><clipPath id="b60a86a7f4"><path d="M 0.269531 1 L 30.5625 1 L 30.5625 31.289062 L 0.269531 31.289062 Z M 0.269531 1 " clip-rule="nonzero"/></clipPath><clipPath id="3b99ccce0f"><path d="M 15.414062 1 C 7.050781 1 0.269531 7.78125 0.269531 16.144531 C 0.269531 24.507812 7.050781 31.289062 15.414062 31.289062 C 23.78125 31.289062 30.5625 24.507812 30.5625 16.144531 C 30.5625 7.78125 23.78125 1 15.414062 1 Z M 15.414062 1 " clip-rule="nonzero"/></clipPath><clipPath id="4f75420ae7"><rect x="0" width="31" y="0" height="32"/></clipPath><clipPath id="520a9a1c0d"><path d="M 90.148438 43.117188 L 150 43.117188 L 150 102.96875 L 90.148438 102.96875 Z M 90.148438 43.117188 " clip-rule="nonzero"/></clipPath><clipPath id="d04a5a653c"><path d="M 120.074219 43.117188 C 103.546875 43.117188 90.148438 56.515625 90.148438 73.042969 C 90.148438 89.570312 103.546875 102.96875 120.074219 102.96875 C 136.601562 102.96875 150 89.570312 150 73.042969 C 150 56.515625 136.601562 43.117188 120.074219 43.117188 Z M 120.074219 43.117188 " clip-rule="nonzero"/></clipPath><mask id="b91a3b19de"><g filter="url(#f6df2017b2)"><rect x="-15" width="180" fill="#000000" y="-15" height="179.999997" fill-opacity="0.76"/></g></mask><clipPath id="736dfc2c9e"><path d="M 0.6875 0.421875 L 32.507812 0.421875 L 32.507812 31.28125 L 0.6875 31.28125 Z M 0.6875 0.421875 " clip-rule="nonzero"/></clipPath><clipPath id="ec1d721318"><path d="M 16.546875 0.421875 C 7.785156 0.421875 0.6875 7.332031 0.6875 15.851562 C 0.6875 24.375 7.785156 31.28125 16.546875 31.28125 C 25.304688 31.28125 32.40625 24.375 32.40625 15.851562 C 32.40625 7.332031 25.304688 0.421875 16.546875 0.421875 Z M 16.546875 0.421875 " clip-rule="nonzero"/></clipPath><clipPath id="abf6172481"><rect x="0" width="33" y="0" height="32"/></clipPath></defs><g mask="url(#297e2469e2)"><g transform="matrix(1, 0, 0, 1, -0.000000000000000028, 26)"><g clip-path="url(#b3d4f723a9)"><g clip-path="url(#b8905cfd71)"><g clip-path="url(#aaf56df281)"><path fill="#d9d9d9" d="M 0.421875 0.195312 L 47.269531 0.195312 L 47.269531 47.042969 L 0.421875 47.042969 Z M 0.421875 0.195312 " fill-opacity="1" fill-rule="nonzero"/></g></g></g></g></g><g mask="url(#d7ddef1be4)"><g transform="matrix(1, 0, 0, 1, 47, 14)"><g clip-path="url(#4f75420ae7)"><g clip-path="url(#b60a86a7f4)"><g clip-path="url(#3b99ccce0f)"><path fill="#d9d9d9" d="M 0.269531 1 L 30.5625 1 L 30.5625 31.289062 L 0.269531 31.289062 Z M 0.269531 1 " fill-opacity="1" fill-rule="nonzero"/></g></g></g></g></g><g clip-path="url(#520a9a1c0d)"><g clip-path="url(#d04a5a653c)"><path fill="#e5e5e5" d="M 90.148438 43.117188 L 150 43.117188 L 150 102.96875 L 90.148438 102.96875 Z M 90.148438 43.117188 " fill-opacity="1" fill-rule="nonzero"/></g></g><g mask="url(#b91a3b19de)"><g transform="matrix(1, 0, 0, 1, 14, 103)"><g clip-path="url(#abf6172481)"><g clip-path="url(#736dfc2c9e)"><g clip-path="url(#ec1d721318)"><path fill="#d9d9d9" d="M 0.6875 0.421875 L 32.390625 0.421875 L 32.390625 31.28125 L 0.6875 31.28125 Z M 0.6875 0.421875 " fill-opacity="1" fill-rule="nonzero"/></g></g></g></g></g></svg>