<svg xmlns="http://www.w3.org/2000/svg" width="200" viewBox="0 0 150 150" height="200" version="1.0"><defs><clipPath id="i"><path d="M15.414 1C7.051 1 .27 7.781.27 16.145c0 8.363 6.78 15.144 15.144 15.144 8.367 0 15.149-6.781 15.149-15.144C30.563 7.78 23.78 1 15.414 1Zm0 0"/></clipPath><clipPath id="m"><path d="M0 0h33v32H0z"/></clipPath><clipPath id="d"><path d="M.422.195H47.27v46.848H.422Zm0 0"/></clipPath><clipPath id="e"><path d="M23.848.195C10.91.195.422 10.684.422 23.621c0 12.934 10.488 23.422 23.426 23.422 12.937 0 23.422-10.488 23.422-23.422C47.27 10.684 36.785.195 23.848.195Zm0 0"/></clipPath><clipPath id="c"><path d="M0 0h48v48H0z"/></clipPath><clipPath id="o"><path d="M16.547.422C7.785.422.687 7.332.687 15.852c0 8.523 7.098 15.43 15.86 15.43 8.758 0 15.86-6.907 15.86-15.43 0-8.52-7.102-15.43-15.86-15.43Zm0 0"/></clipPath><clipPath id="h"><path d="M.27 1h30.293v30.29H.27Zm0 0"/></clipPath><clipPath id="n"><path d="M.688.422h31.82v30.86H.688Zm0 0"/></clipPath><clipPath id="g"><path d="M0 0h31v32H0z"/></clipPath><clipPath id="j"><path d="M90.148 43.117H150v59.852H90.148Zm0 0"/></clipPath><clipPath id="k"><path d="M120.074 43.117c-16.527 0-29.926 13.399-29.926 29.926s13.399 29.926 29.926 29.926c16.528 0 29.926-13.399 29.926-29.926s-13.398-29.926-29.926-29.926Zm0 0"/></clipPath><mask id="l"><g filter="url(#a)"><path fill-opacity=".76" d="M-15-15h180v180H-15z"/></g></mask><mask id="b"><g filter="url(#a)"><path fill-opacity=".83" d="M-15-15h180v180H-15z"/></g></mask><mask id="f"><g filter="url(#a)"><path fill-opacity=".52" d="M-15-15h180v180H-15z"/></g></mask><filter x="0%" y="0%" width="100%" height="100%" id="a"><feColorMatrix values="0 0 0 0 1 0 0 0 0 1 0 0 0 0 1 0 0 0 1 0" color-interpolation-filters="sRGB"/></filter></defs><g mask="url(#b)"><g clip-path="url(#c)" transform="translate(0 26)"><g clip-path="url(#d)"><g clip-path="url(#e)"><path fill="#d9d9d9" d="M.422.195H47.27v46.848H.422Zm0 0"/></g></g></g></g><g mask="url(#f)"><g clip-path="url(#g)" transform="translate(47 14)"><g clip-path="url(#h)"><g clip-path="url(#i)"><path fill="#d9d9d9" d="M.27 1h30.293v30.29H.27Zm0 0"/></g></g></g></g><g clip-path="url(#j)"><g clip-path="url(#k)"><path fill="#e5e5e5" d="M90.148 43.117H150v59.852H90.148Zm0 0"/></g></g><g mask="url(#l)"><g clip-path="url(#m)" transform="translate(14 103)"><g clip-path="url(#n)"><g clip-path="url(#o)"><path fill="#d9d9d9" d="M.688.422H32.39v30.86H.688Zm0 0"/></g></g></g></g></svg>