<svg xmlns="http://www.w3.org/2000/svg" xmlns:xlink="http://www.w3.org/1999/xlink" width="200" zoomAndPan="magnify" viewBox="0 0 150 149.999998" height="200" preserveAspectRatio="xMidYMid meet" version="1.0"><path fill="#ffffff" d="M 81.339844 76.183594 L 59.3125 98.210938 C 56.050781 101.472656 56.050781 106.734375 59.3125 109.996094 C 62.546875 113.246094 67.835938 113.246094 71.085938 109.996094 L 97.839844 83.242188 C 102.378906 78.703125 102.378906 71.296875 97.839844 66.757812 L 71.085938 40.003906 C 67.835938 36.753906 62.546875 36.753906 59.3125 40.003906 C 56.050781 43.253906 56.050781 48.527344 59.3125 51.777344 L 81.339844 73.828125 C 81.992188 74.480469 81.992188 75.53125 81.339844 76.183594 Z M 75 0 C 116.414062 0 150 33.570312 150 75 C 150 116.414062 116.414062 150 75 150 C 33.570312 150 0 116.414062 0 75 C 0 33.570312 33.570312 0 75 0 " fill-opacity="1" fill-rule="nonzero"/></svg>