<svg xmlns="http://www.w3.org/2000/svg" xmlns:xlink="http://www.w3.org/1999/xlink" width="200" zoomAndPan="magnify" viewBox="0 0 150 149.999998" height="200" preserveAspectRatio="xMidYMid meet" version="1.0"><defs><clipPath id="fae0ecfa7e"><path d="M 92 88 L 126.84375 88 L 126.84375 128 L 92 128 Z M 92 88 " clip-rule="nonzero"/></clipPath><clipPath id="6a87ce72eb"><path d="M 92 87 L 126.84375 87 L 126.84375 128 L 92 128 Z M 92 87 " clip-rule="nonzero"/></clipPath><clipPath id="712e851160"><path d="M 23.34375 0 L 69 0 L 69 48 L 23.34375 48 Z M 23.34375 0 " clip-rule="nonzero"/></clipPath></defs><path fill="#ffffff" d="M 88.8125 124.355469 C 87.683594 126.863281 88.917969 128.96875 92.988281 130.632812 C 97.0625 132.296875 97.441406 134.734375 97.484375 135.183594 C 97.640625 136.707031 97.269531 149.957031 89.941406 148.957031 C 84.777344 148.253906 84.742188 139.40625 84.742188 139.40625 C 84.742188 139.40625 71.394531 139.5 67.875 116.960938 Z M 88.8125 124.355469 " fill-opacity="1" fill-rule="nonzero"/><path fill="#371a45" d="M 89.941406 148.960938 C 84.777344 148.253906 84.742188 139.40625 84.742188 139.40625 C 84.742188 139.40625 71.394531 139.5 67.875 116.960938 L 81.574219 121.796875 C 80.679688 132.199219 87.511719 136.277344 87.511719 136.277344 C 87.511719 136.277344 84.753906 145.355469 91.855469 147.371094 C 93.769531 147.914062 94.800781 145.800781 95.621094 145.375 C 94.492188 147.671875 92.714844 149.335938 89.941406 148.960938 Z M 89.941406 148.960938 " fill-opacity="0.35" fill-rule="nonzero"/><path fill="#371a45" d="M 80.296875 134.304688 C 79.570312 134.304688 78.855469 134.230469 78.152344 134.074219 C 72.722656 132.875 70.152344 127.5 70.042969 127.269531 C 69.90625 126.976562 70.035156 126.628906 70.328125 126.492188 C 70.621094 126.355469 70.972656 126.480469 71.109375 126.773438 C 71.132812 126.824219 73.554688 131.863281 78.417969 132.929688 C 81.90625 133.695312 85.824219 132.277344 90.0625 128.722656 C 90.3125 128.511719 90.683594 128.542969 90.894531 128.792969 C 91.101562 129.042969 91.070312 129.410156 90.820312 129.621094 C 87.105469 132.734375 83.574219 134.304688 80.296875 134.304688 Z M 80.296875 134.304688 " fill-opacity="1" fill-rule="nonzero"/><path fill="#371a45" d="M 90.71875 149.722656 C 90.433594 149.722656 90.144531 149.703125 89.847656 149.664062 C 84.957031 148.996094 84.175781 142.246094 84.054688 140.070312 C 82.828125 139.929688 80.140625 139.378906 77.203125 137.207031 C 73.652344 134.578125 69.027344 128.953125 67.171875 117.070312 C 67.109375 116.683594 67.375 116.320312 67.761719 116.257812 C 68.152344 116.199219 68.515625 116.464844 68.578125 116.851562 C 70.359375 128.257812 74.710938 133.59375 78.050781 136.066406 C 81.59375 138.6875 84.703125 138.6875 84.734375 138.695312 L 85.449219 138.691406 L 85.453125 139.402344 C 85.453125 139.484375 85.546875 147.640625 90.039062 148.253906 C 91.414062 148.441406 92.558594 148.078125 93.535156 147.132812 C 96.726562 144.058594 96.871094 136.203125 96.777344 135.257812 C 96.734375 134.855469 96.347656 132.773438 92.71875 131.292969 C 90.132812 130.234375 88.582031 128.988281 87.976562 127.476562 C 87.554688 126.421875 87.617188 125.273438 88.160156 124.0625 C 88.320312 123.707031 88.742188 123.546875 89.101562 123.707031 C 89.460938 123.867188 89.621094 124.285156 89.460938 124.644531 C 89.074219 125.503906 89.019531 126.257812 89.296875 126.949219 C 89.746094 128.066406 91.078125 129.085938 93.257812 129.976562 C 97.53125 131.722656 98.113281 134.351562 98.191406 135.113281 C 98.300781 136.195312 98.167969 144.648438 94.523438 148.15625 C 93.445312 149.199219 92.167969 149.722656 90.71875 149.722656 Z M 90.71875 149.722656 " fill-opacity="1" fill-rule="nonzero"/><path fill="#ffffff" d="M 87.566406 90.5625 C 87.988281 90.742188 98.34375 92.242188 103.59375 95.808594 C 107.972656 98.785156 106.539062 119.230469 102.464844 122.167969 C 98.691406 124.890625 88.863281 123.148438 88.863281 123.148438 Z M 87.566406 90.5625 " fill-opacity="1" fill-rule="nonzero"/><path fill="#ffffff" d="M 87.566406 90.5625 L 87.777344 95.859375 L 88.863281 123.152344 C 88.863281 123.152344 93.628906 123.996094 97.796875 123.585938 C 99.617188 123.410156 101.320312 122.996094 102.464844 122.167969 C 106.539062 119.230469 107.972656 98.785156 103.59375 95.808594 C 98.34375 92.242188 87.988281 90.742188 87.566406 90.5625 Z M 87.566406 90.5625 " fill-opacity="1" fill-rule="nonzero"/><path fill="#371a45" d="M 87.777344 95.859375 L 88.863281 123.152344 C 88.863281 123.152344 88.867188 123.152344 88.871094 123.152344 C 88.894531 123.15625 88.964844 123.167969 89.078125 123.1875 C 89.101562 123.191406 89.125 123.195312 89.152344 123.199219 C 89.15625 123.199219 89.160156 123.199219 89.167969 123.199219 C 89.191406 123.203125 89.21875 123.207031 89.242188 123.214844 C 89.308594 123.222656 89.382812 123.234375 89.460938 123.246094 C 89.480469 123.246094 89.503906 123.253906 89.523438 123.253906 C 89.542969 123.257812 89.5625 123.261719 89.578125 123.261719 C 89.605469 123.265625 89.628906 123.269531 89.65625 123.273438 C 89.914062 123.3125 90.230469 123.351562 90.59375 123.394531 C 90.636719 123.402344 90.679688 123.40625 90.726562 123.410156 C 90.863281 123.425781 91.003906 123.445312 91.152344 123.460938 C 91.199219 123.464844 91.25 123.46875 91.300781 123.476562 C 91.359375 123.480469 91.417969 123.488281 91.480469 123.492188 C 91.550781 123.5 91.625 123.507812 91.703125 123.515625 C 91.726562 123.519531 91.746094 123.519531 91.769531 123.519531 C 91.824219 123.527344 91.878906 123.53125 91.933594 123.535156 C 92.09375 123.550781 92.253906 123.566406 92.417969 123.578125 C 92.421875 123.578125 92.429688 123.578125 92.433594 123.578125 C 92.546875 123.585938 92.664062 123.597656 92.78125 123.605469 C 92.785156 123.605469 92.789062 123.605469 92.792969 123.605469 C 92.878906 123.609375 92.960938 123.617188 93.046875 123.621094 C 93.101562 123.625 93.15625 123.628906 93.210938 123.632812 C 93.417969 123.644531 93.628906 123.65625 93.84375 123.664062 C 93.980469 123.671875 94.121094 123.675781 94.261719 123.679688 C 94.386719 123.683594 94.515625 123.6875 94.644531 123.691406 C 94.773438 123.695312 94.902344 123.695312 95.035156 123.699219 C 95.164062 123.699219 95.296875 123.699219 95.425781 123.699219 C 95.558594 123.699219 95.691406 123.695312 95.820312 123.695312 C 95.953125 123.691406 96.085938 123.691406 96.21875 123.683594 C 96.21875 123.6875 96.21875 123.6875 96.21875 123.683594 C 96.351562 123.679688 96.484375 123.675781 96.613281 123.671875 C 96.746094 123.664062 96.878906 123.65625 97.011719 123.648438 C 97.03125 123.648438 97.054688 123.648438 97.074219 123.644531 C 97.183594 123.636719 97.296875 123.628906 97.40625 123.621094 C 97.535156 123.609375 97.667969 123.597656 97.796875 123.585938 C 99.617188 123.410156 101.320312 122.996094 102.464844 122.167969 C 104.589844 120.636719 105.996094 114.335938 106.234375 108.238281 C 105.578125 111.777344 104.519531 114.667969 103.171875 115.640625 C 102.703125 115.980469 102.136719 116.25 101.507812 116.460938 C 100.773438 116.710938 100.03125 116.859375 99.300781 116.917969 C 99.832031 109.648438 98.394531 99.832031 95.242188 98.175781 C 93.417969 97.21875 91.089844 96.535156 88.753906 96.050781 C 88.429688 95.984375 88.101562 95.917969 87.777344 95.859375 Z M 87.777344 95.859375 " fill-opacity="0.35" fill-rule="nonzero"/><path fill="#371a45" d="M 95.296875 124.410156 C 91.96875 124.410156 88.964844 123.890625 88.738281 123.851562 L 88.175781 123.75 L 86.8125 89.457031 L 87.820312 89.894531 C 87.933594 89.925781 88.289062 89.992188 88.667969 90.066406 C 91.628906 90.640625 99.496094 92.164062 103.996094 95.222656 C 106.484375 96.914062 106.933594 102.578125 106.976562 105.804688 C 107.074219 112.609375 105.566406 120.808594 102.882812 122.746094 C 101.078125 124.046875 98.074219 124.410156 95.296875 124.410156 Z M 89.550781 122.539062 C 91.652344 122.847656 99.058594 123.75 102.050781 121.59375 C 104.046875 120.148438 105.652344 112.929688 105.554688 105.824219 C 105.484375 100.953125 104.582031 97.339844 103.195312 96.398438 C 98.9375 93.503906 91.003906 91.964844 88.394531 91.460938 C 88.367188 91.457031 88.34375 91.449219 88.316406 91.445312 Z M 87.84375 89.90625 L 87.855469 89.910156 C 87.851562 89.910156 87.847656 89.90625 87.84375 89.90625 Z M 87.84375 89.90625 " fill-opacity="1" fill-rule="nonzero"/><path fill="#371a45" d="M 104.324219 96.976562 C 103.683594 97.101562 103.035156 97.238281 102.390625 97.386719 C 101.746094 97.53125 101.105469 97.6875 100.46875 97.859375 C 99.832031 98.027344 99.195312 98.207031 98.574219 98.410156 C 97.953125 98.613281 97.335938 98.832031 96.757812 99.101562 L 96.753906 99.105469 C 96.550781 99.199219 96.308594 99.113281 96.214844 98.910156 C 96.121094 98.714844 96.203125 98.480469 96.390625 98.378906 C 97.003906 98.050781 97.632812 97.789062 98.265625 97.539062 C 98.894531 97.292969 99.535156 97.074219 100.175781 96.867188 C 100.816406 96.65625 101.457031 96.464844 102.105469 96.277344 C 102.753906 96.09375 103.394531 95.917969 104.058594 95.753906 C 104.394531 95.667969 104.734375 95.871094 104.820312 96.207031 C 104.90625 96.546875 104.699219 96.886719 104.363281 96.96875 C 104.351562 96.972656 104.339844 96.976562 104.332031 96.976562 Z M 104.324219 96.976562 " fill-opacity="1" fill-rule="nonzero"/><path fill="#ffffff" d="M 106.386719 109.113281 L 100.71875 109.570312 C 100.214844 109.609375 99.800781 109.984375 99.710938 110.484375 C 99.390625 112.3125 98.871094 116.570312 100.660156 117.964844 C 102.140625 119.125 104.539062 118.972656 105.9375 117.777344 C 107.5 116.441406 107.628906 112.265625 107.589844 110.199219 C 107.578125 109.558594 107.027344 109.0625 106.386719 109.113281 Z M 106.386719 109.113281 " fill-opacity="1" fill-rule="nonzero"/><path fill="#371a45" d="M 99.710938 110.484375 C 99.390625 112.3125 98.871094 116.570312 100.660156 117.964844 C 102.140625 119.125 104.539062 118.972656 105.9375 117.777344 C 106.898438 116.953125 107.316406 115.058594 107.488281 113.242188 C 107.238281 114.152344 106.839844 114.890625 106.34375 115.375 C 103.503906 118.164062 101.351562 114.910156 101.351562 114.910156 C 101.351562 114.910156 100.988281 115.703125 100.691406 115.75 C 99.460938 115.945312 99.691406 112.089844 99.859375 110.097656 C 99.789062 110.214844 99.738281 110.34375 99.710938 110.484375 Z M 99.710938 110.484375 " fill-opacity="0.35" fill-rule="nonzero"/><path fill="#371a45" d="M 103.132812 119.46875 C 102.074219 119.46875 101.03125 119.15625 100.21875 118.527344 C 98.199219 116.949219 98.59375 112.734375 99.011719 110.363281 C 99.15625 109.546875 99.832031 108.929688 100.664062 108.863281 L 106.328125 108.40625 C 106.832031 108.363281 107.332031 108.535156 107.703125 108.871094 C 108.074219 109.207031 108.292969 109.6875 108.304688 110.1875 C 108.355469 113.109375 108.066406 116.890625 106.398438 118.320312 C 105.503906 119.082031 104.3125 119.46875 103.132812 119.46875 Z M 106.476562 109.820312 C 106.46875 109.820312 106.457031 109.820312 106.445312 109.820312 L 100.777344 110.277344 C 100.59375 110.292969 100.445312 110.429688 100.414062 110.605469 C 99.945312 113.269531 99.882812 116.457031 101.097656 117.40625 C 102.28125 118.332031 104.285156 118.253906 105.472656 117.238281 C 106.417969 116.429688 106.945312 113.804688 106.878906 110.214844 C 106.878906 110.0625 106.796875 109.96875 106.75 109.921875 C 106.703125 109.882812 106.609375 109.820312 106.476562 109.820312 Z M 106.386719 109.113281 L 106.390625 109.113281 Z M 106.386719 109.113281 " fill-opacity="1" fill-rule="nonzero"/><path fill="#371a45" d="M 103.199219 119.308594 C 103.066406 119.234375 103.003906 119.183594 102.917969 119.121094 C 102.839844 119.0625 102.765625 119 102.695312 118.933594 C 102.550781 118.808594 102.421875 118.671875 102.304688 118.53125 C 102.066406 118.246094 101.855469 117.949219 101.695312 117.628906 C 101.355469 116.996094 101.152344 116.316406 101.054688 115.636719 C 100.957031 114.957031 100.957031 114.28125 100.988281 113.625 C 101.003906 113.296875 101.03125 112.964844 101.078125 112.632812 C 101.128906 112.300781 101.175781 111.984375 101.300781 111.632812 C 101.335938 111.535156 101.441406 111.484375 101.539062 111.519531 C 101.628906 111.550781 101.679688 111.648438 101.660156 111.738281 L 101.652344 111.761719 C 101.59375 112.03125 101.570312 112.367188 101.5625 112.675781 C 101.554688 112.988281 101.566406 113.304688 101.585938 113.625 C 101.625 114.261719 101.699219 114.882812 101.855469 115.472656 C 102.011719 116.0625 102.253906 116.621094 102.585938 117.097656 C 102.742188 117.339844 102.9375 117.554688 103.136719 117.746094 C 103.238281 117.839844 103.34375 117.929688 103.453125 118.007812 C 103.507812 118.046875 103.5625 118.082031 103.617188 118.113281 C 103.667969 118.140625 103.738281 118.179688 103.75 118.183594 C 104.105469 118.230469 104.355469 118.558594 104.308594 118.914062 C 104.261719 119.269531 103.933594 119.519531 103.578125 119.46875 C 103.492188 119.460938 103.414062 119.433594 103.34375 119.394531 Z M 103.199219 119.308594 " fill-opacity="1" fill-rule="nonzero"/><path fill="#ffffff" d="M 70.195312 97.152344 C 70.195312 97.152344 68.207031 96.207031 65.503906 94.121094 C 60.097656 89.953125 51.816406 81.238281 50.800781 66.457031 C 50.667969 64.53125 46.269531 60.878906 49.273438 59.027344 C 50.183594 58.464844 51.28125 58.945312 51.28125 58.945312 C 51.28125 58.945312 50.230469 57.402344 51.554688 56.125 C 53.652344 54.109375 57.292969 57.964844 57.292969 57.964844 C 57.292969 57.964844 56.851562 55.496094 57.476562 53.859375 C 57.914062 52.710938 59.210938 52.269531 59.992188 52.4375 C 62.203125 52.925781 64.066406 57.972656 65.289062 60.910156 C 66.441406 63.679688 66.582031 66.371094 66.730469 69.140625 C 66.964844 73.457031 67.230469 77.957031 71.410156 83.230469 C 72.8125 84.996094 74.652344 86.847656 77.078125 88.808594 L 72.4375 94.4375 Z M 70.195312 97.152344 " fill-opacity="1" fill-rule="nonzero"/><path fill="#371a45" d="M 70.195312 97.152344 C 70.195312 97.152344 68.207031 96.207031 65.503906 94.121094 C 60.097656 89.953125 51.816406 81.238281 50.800781 66.457031 C 50.6875 64.828125 47.523438 61.964844 48.371094 60 C 49.308594 59.425781 51.007812 63.941406 51.71875 64.761719 C 53.097656 66.355469 54.148438 65.570312 54.515625 65.167969 C 55.914062 63.636719 50.152344 58.550781 51.0625 57 C 52.222656 55.023438 52.035156 59.730469 56.769531 62.988281 C 58.269531 64.015625 59.882812 62.394531 59.855469 62.566406 C 59.011719 67.570312 54.308594 68.277344 54.359375 71.945312 C 54.503906 82.910156 63.066406 86.855469 67.644531 90.386719 C 70.347656 92.46875 72.335938 93.417969 72.335938 93.417969 L 74.578125 90.699219 L 76.515625 88.347656 C 76.699219 88.503906 76.886719 88.65625 77.078125 88.808594 L 72.433594 94.4375 Z M 70.195312 97.152344 " fill-opacity="0.35" fill-rule="nonzero"/><path fill="#371a45" d="M 70.195312 97.863281 C 70.089844 97.863281 69.988281 97.84375 69.886719 97.796875 C 69.699219 97.707031 65.246094 95.550781 60.550781 90.609375 C 56.222656 86.050781 50.890625 78.167969 50.089844 66.503906 C 50.058594 66.035156 49.550781 65.222656 49.058594 64.433594 C 48.210938 63.082031 47.25 61.546875 47.582031 60.125 C 47.746094 59.433594 48.1875 58.863281 48.898438 58.425781 C 49.335938 58.15625 49.792969 58.058594 50.207031 58.046875 C 50.097656 57.292969 50.25 56.394531 51.0625 55.617188 C 51.621094 55.078125 52.304688 54.816406 53.089844 54.832031 C 54.300781 54.863281 55.527344 55.574219 56.429688 56.257812 C 56.417969 55.417969 56.496094 54.433594 56.808594 53.605469 C 57.355469 52.175781 58.976562 51.488281 60.144531 51.746094 C 62.339844 52.226562 63.917969 55.679688 65.605469 59.800781 C 65.722656 60.09375 65.839844 60.375 65.949219 60.636719 C 67.136719 63.496094 67.289062 66.3125 67.4375 69.035156 C 67.746094 74.726562 68.066406 80.613281 77.523438 88.257812 C 77.828125 88.503906 77.878906 88.953125 77.628906 89.257812 C 77.382812 89.5625 76.933594 89.609375 76.628906 89.363281 C 66.675781 81.320312 66.324219 74.832031 66.015625 69.109375 C 65.867188 66.386719 65.726562 63.816406 64.632812 61.183594 C 64.523438 60.917969 64.40625 60.632812 64.285156 60.339844 C 63.238281 57.777344 61.484375 53.496094 59.839844 53.132812 C 59.414062 53.039062 58.453125 53.292969 58.140625 54.113281 C 57.597656 55.542969 57.988281 57.820312 57.992188 57.839844 C 58.046875 58.148438 57.890625 58.457031 57.609375 58.601562 C 57.328125 58.742188 56.988281 58.679688 56.773438 58.453125 C 56.203125 57.851562 54.425781 56.285156 53.054688 56.253906 C 52.644531 56.242188 52.332031 56.367188 52.050781 56.636719 C 51.195312 57.460938 51.800781 58.4375 51.875 58.546875 C 52.046875 58.8125 52.027344 59.160156 51.824219 59.398438 C 51.621094 59.640625 51.285156 59.71875 50.996094 59.59375 C 50.996094 59.59375 50.222656 59.277344 49.648438 59.632812 C 49.265625 59.867188 49.042969 60.136719 48.96875 60.445312 C 48.773438 61.292969 49.566406 62.5625 50.265625 63.679688 C 50.875 64.660156 51.453125 65.582031 51.511719 66.40625 C 52.28125 77.625 57.394531 85.203125 61.546875 89.589844 C 66.0625 94.355469 70.457031 96.492188 70.5 96.511719 C 70.855469 96.683594 71.007812 97.105469 70.835938 97.460938 C 70.714844 97.714844 70.460938 97.863281 70.195312 97.863281 Z M 70.195312 97.863281 " fill-opacity="1" fill-rule="nonzero"/><path fill="#ffffff" d="M 112.726562 140.96875 C 107.96875 142.351562 106.558594 136.023438 106.558594 136.023438 C 106.558594 136.023438 98.152344 142.292969 90.789062 139.890625 C 84.605469 137.875 80.382812 130.15625 80.382812 130.15625 C 80.382812 130.15625 54.140625 121.683594 65.503906 94.121094 C 66.285156 92.234375 67.238281 90.253906 68.390625 88.179688 C 69.277344 86.585938 70.28125 84.9375 71.410156 83.230469 C 72.003906 82.339844 72.628906 81.433594 73.289062 80.511719 L 92.769531 90.972656 L 95.015625 92.179688 L 95.574219 92.480469 C 95.527344 92.617188 95.480469 92.753906 95.433594 92.890625 C 94.144531 96.816406 94.269531 100.519531 94.863281 103.789062 C 95.617188 107.945312 97.121094 111.40625 97.4375 113.761719 C 97.609375 115.058594 97.640625 116.230469 97.609375 117.199219 C 97.554688 118.925781 97.300781 120.011719 97.300781 120.011719 C 97.6875 121.179688 99.03125 124.714844 102.058594 124.730469 C 103.109375 124.734375 104.144531 124.25 105.167969 123.652344 C 106.980469 122.59375 108.757812 121.1875 110.539062 121.523438 C 113.109375 122.007812 114.914062 124.296875 115.90625 126.972656 C 116.523438 128.644531 116.824219 130.472656 116.792969 132.109375 C 116.742188 134.929688 116.203125 139.960938 112.726562 140.96875 Z M 112.726562 140.96875 " fill-opacity="1" fill-rule="nonzero"/><path fill="#371a45" d="M 113.628906 140.585938 C 113.351562 140.746094 113.050781 140.875 112.726562 140.96875 C 107.96875 142.351562 106.558594 136.023438 106.558594 136.023438 C 106.558594 136.023438 98.152344 142.292969 90.789062 139.890625 C 84.605469 137.875 80.382812 130.15625 80.382812 130.15625 C 80.382812 130.15625 54.847656 121.910156 65.066406 95.226562 C 59.488281 114.972656 74.449219 123.515625 79.773438 125.875 C 80.917969 126.382812 81.898438 127.199219 82.601562 128.238281 C 84.214844 130.621094 87.605469 134.898438 91.980469 136.324219 C 99.34375 138.726562 106.203125 131.695312 109.34375 132.785156 C 110.078125 133.042969 106.851562 140.628906 113.628906 140.585938 Z M 113.628906 140.585938 " fill-opacity="0.35" fill-rule="nonzero"/><path fill="#371a45" d="M 111.414062 141.878906 C 110.605469 141.878906 109.847656 141.671875 109.148438 141.257812 C 107.480469 140.273438 106.578125 138.34375 106.160156 137.167969 C 104.28125 138.394531 99.492188 141.15625 94.40625 141.15625 C 93.132812 141.15625 91.839844 140.980469 90.570312 140.566406 C 84.746094 138.667969 80.695312 132.117188 79.898438 130.738281 C 77.96875 130.054688 66.792969 125.664062 63.097656 114.480469 C 59.949219 104.964844 63.183594 93.398438 72.707031 80.097656 C 72.9375 79.777344 73.382812 79.703125 73.703125 79.933594 C 74.023438 80.160156 74.09375 80.605469 73.867188 80.925781 C 64.621094 93.835938 61.453125 104.976562 64.449219 114.035156 C 68.1875 125.351562 80.480469 129.4375 80.601562 129.476562 L 80.871094 129.566406 L 81.007812 129.8125 C 81.050781 129.886719 85.171875 137.3125 91.011719 139.214844 C 92.113281 139.574219 93.246094 139.726562 94.367188 139.726562 C 100.3125 139.726562 106.066406 135.507812 106.136719 135.457031 L 107.015625 134.800781 L 107.253906 135.871094 C 107.261719 135.902344 107.960938 138.90625 109.875 140.035156 C 110.65625 140.496094 111.523438 140.578125 112.527344 140.289062 C 115.503906 139.425781 116.035156 134.785156 116.085938 132.097656 C 116.164062 127.878906 114.015625 122.902344 110.40625 122.222656 C 109.210938 121.992188 107.890625 122.8125 106.492188 123.679688 C 105.089844 124.546875 103.632812 125.457031 102.054688 125.4375 C 99.691406 125.429688 97.710938 123.53125 96.625 120.230469 L 96.5625 120.042969 L 96.609375 119.847656 C 96.613281 119.824219 97.1875 117.273438 96.730469 113.855469 C 96.589844 112.808594 96.1875 111.488281 95.722656 109.957031 C 94.34375 105.414062 92.453125 99.191406 94.902344 92.242188 C 95.035156 91.875 95.441406 91.679688 95.8125 91.808594 C 96.183594 91.941406 96.375 92.347656 96.246094 92.714844 C 93.949219 99.222656 95.761719 105.1875 97.085938 109.546875 C 97.570312 111.132812 97.984375 112.503906 98.140625 113.667969 C 98.566406 116.828125 98.175781 119.257812 98.039062 119.964844 C 98.589844 121.554688 99.804688 124.007812 102.0625 124.019531 C 102.066406 124.019531 102.070312 124.019531 102.074219 124.019531 C 103.242188 124.019531 104.511719 123.230469 105.742188 122.472656 C 107.308594 121.5 108.929688 120.496094 110.671875 120.828125 C 115.066406 121.65625 117.597656 127.222656 117.507812 132.121094 C 117.40625 137.515625 115.820312 140.8125 112.925781 141.652344 C 112.40625 141.804688 111.898438 141.878906 111.414062 141.878906 Z M 111.414062 141.878906 " fill-opacity="1" fill-rule="nonzero"/><path fill="#ffffff" d="M 65.15625 62.800781 C 65.207031 59.53125 62.441406 56.914062 61.75 56.625 C 61.222656 56.40625 59.121094 57.171875 59.664062 58.828125 C 60.210938 60.488281 61.175781 61.089844 60.863281 61.535156 C 60.546875 61.976562 58.703125 63.078125 58.90625 65.480469 Z M 65.15625 62.800781 " fill-opacity="1" fill-rule="nonzero"/><path fill="#371a45" d="M 65.039062 62.800781 C 64.792969 62.039062 64.519531 61.371094 64.179688 60.738281 C 63.847656 60.105469 63.464844 59.507812 63.03125 58.941406 C 62.816406 58.660156 62.59375 58.382812 62.359375 58.121094 C 62.125 57.867188 61.871094 57.605469 61.628906 57.417969 C 61.578125 57.378906 61.503906 57.320312 61.488281 57.316406 L 61.46875 57.300781 C 61.472656 57.300781 61.492188 57.3125 61.503906 57.3125 C 61.546875 57.316406 61.527344 57.316406 61.515625 57.316406 C 61.464844 57.3125 61.320312 57.324219 61.195312 57.371094 C 60.929688 57.445312 60.679688 57.609375 60.519531 57.78125 C 60.199219 58.15625 60.265625 58.402344 60.601562 59.132812 C 60.753906 59.441406 60.925781 59.730469 61.128906 60.035156 C 61.234375 60.191406 61.339844 60.351562 61.464844 60.5625 C 61.496094 60.625 61.523438 60.667969 61.558594 60.75 C 61.589844 60.820312 61.625 60.890625 61.65625 61.003906 C 61.683594 61.089844 61.707031 61.246094 61.703125 61.382812 C 61.691406 61.546875 61.652344 61.71875 61.570312 61.851562 C 61.480469 62.019531 61.4375 62.046875 61.375 62.125 C 61.320312 62.1875 61.285156 62.214844 61.238281 62.261719 L 61.007812 62.464844 C 60.867188 62.59375 60.734375 62.703125 60.609375 62.824219 C 60.363281 63.058594 60.148438 63.304688 59.953125 63.566406 C 59.753906 63.828125 59.585938 64.109375 59.429688 64.421875 C 59.269531 64.734375 59.164062 65.082031 59.027344 65.472656 L 59.023438 65.480469 C 59 65.546875 58.925781 65.582031 58.863281 65.558594 C 58.828125 65.546875 58.804688 65.519531 58.789062 65.492188 C 58.746094 65.394531 58.703125 65.296875 58.671875 65.195312 L 58.617188 65.042969 L 58.585938 64.882812 C 58.566406 64.777344 58.539062 64.671875 58.53125 64.5625 C 58.523438 64.453125 58.519531 64.34375 58.519531 64.230469 C 58.523438 63.789062 58.628906 63.339844 58.808594 62.925781 C 58.992188 62.511719 59.253906 62.140625 59.539062 61.816406 C 59.679688 61.65625 59.824219 61.496094 59.964844 61.359375 L 60.160156 61.164062 C 60.179688 61.144531 60.214844 61.105469 60.222656 61.097656 C 60.21875 61.097656 60.25 61.054688 60.195312 61.132812 C 60.171875 61.1875 60.140625 61.261719 60.144531 61.328125 C 60.132812 61.371094 60.152344 61.425781 60.148438 61.421875 C 60.148438 61.425781 60.15625 61.4375 60.152344 61.429688 C 60.148438 61.421875 60.144531 61.414062 60.140625 61.40625 C 60.140625 61.398438 60.113281 61.359375 60.101562 61.335938 C 60.03125 61.214844 59.917969 61.050781 59.8125 60.882812 C 59.597656 60.539062 59.382812 60.160156 59.214844 59.761719 C 59.128906 59.558594 59.054688 59.359375 58.988281 59.152344 C 58.953125 59.0625 58.921875 58.90625 58.894531 58.78125 C 58.859375 58.652344 58.855469 58.503906 58.847656 58.363281 C 58.839844 58.078125 58.902344 57.777344 59.011719 57.503906 C 59.070312 57.375 59.140625 57.246094 59.214844 57.125 C 59.296875 57.019531 59.375 56.894531 59.472656 56.808594 C 59.566406 56.710938 59.660156 56.617188 59.765625 56.542969 C 59.863281 56.457031 59.96875 56.390625 60.078125 56.328125 C 60.289062 56.195312 60.511719 56.089844 60.75 56.011719 C 60.871094 55.972656 60.992188 55.9375 61.125 55.914062 C 61.1875 55.898438 61.257812 55.886719 61.332031 55.878906 C 61.402344 55.875 61.472656 55.863281 61.566406 55.871094 C 61.65625 55.875 61.730469 55.871094 61.867188 55.90625 C 61.925781 55.921875 61.992188 55.941406 62.039062 55.957031 L 62.148438 56.011719 C 62.308594 56.089844 62.386719 56.152344 62.496094 56.21875 C 62.878906 56.488281 63.1875 56.769531 63.484375 57.074219 C 63.628906 57.226562 63.773438 57.378906 63.902344 57.546875 C 64.035156 57.707031 64.160156 57.875 64.28125 58.046875 C 64.753906 58.734375 65.128906 59.5 65.324219 60.324219 C 65.519531 61.140625 65.539062 62.015625 65.277344 62.804688 C 65.253906 62.867188 65.183594 62.902344 65.117188 62.882812 C 65.078125 62.867188 65.050781 62.839844 65.039062 62.800781 Z M 65.039062 62.800781 " fill-opacity="1" fill-rule="nonzero"/><path fill="#ffffff" d="M 63.316406 97.671875 L 64.175781 110.679688 L 70.402344 115.714844 L 73.695312 118.375 C 73.695312 118.375 77.089844 119.125 77.921875 119.292969 C 79.042969 119.527344 79.394531 118.214844 79.375 117.347656 C 79.339844 115.859375 79.457031 114.472656 79.640625 113.195312 C 79.9375 111.136719 80.421875 109.355469 80.761719 107.863281 C 81.042969 106.640625 80.464844 105.378906 79.347656 104.800781 C 72.667969 101.363281 66.554688 97.289062 66.554688 97.289062 Z M 63.316406 97.671875 " fill-opacity="1" fill-rule="nonzero"/><path fill="#371a45" d="M 78.175781 120.027344 C 78.046875 120.027344 77.914062 120.011719 77.777344 119.984375 C 76.953125 119.816406 73.679688 119.09375 73.542969 119.0625 C 73.433594 119.039062 73.335938 118.992188 73.25 118.921875 L 63.730469 111.226562 C 63.578125 111.105469 63.484375 110.921875 63.46875 110.726562 L 62.609375 97.71875 C 62.585938 97.34375 62.859375 97.015625 63.234375 96.972656 L 66.472656 96.589844 C 66.640625 96.570312 66.808594 96.609375 66.945312 96.703125 C 67.007812 96.746094 73.109375 100.792969 79.671875 104.175781 C 81.070312 104.898438 81.804688 106.480469 81.449219 108.023438 C 81.375 108.351562 81.292969 108.691406 81.207031 109.050781 C 80.671875 111.28125 80.007812 114.058594 80.082031 117.332031 C 80.097656 118.09375 79.882812 119.105469 79.230469 119.648438 C 78.925781 119.898438 78.566406 120.027344 78.175781 120.027344 Z M 74.007812 117.722656 C 74.695312 117.875 77.351562 118.457031 78.0625 118.605469 C 78.234375 118.640625 78.289062 118.59375 78.324219 118.5625 C 78.53125 118.390625 78.679688 117.875 78.667969 117.363281 C 78.59375 113.90625 79.28125 111.03125 79.835938 108.722656 C 79.917969 108.371094 80 108.03125 80.074219 107.707031 C 80.285156 106.792969 79.851562 105.855469 79.023438 105.425781 C 73.089844 102.371094 67.535156 98.777344 66.382812 98.019531 L 64.066406 98.292969 L 64.859375 110.328125 Z M 74.007812 117.722656 " fill-opacity="1" fill-rule="nonzero"/><path fill="#371a45" d="M 70.402344 115.714844 L 73.695312 118.375 C 73.695312 118.375 77.089844 119.125 77.921875 119.292969 C 78.777344 119.472656 79.183594 118.746094 79.320312 118.007812 C 79.363281 117.78125 79.378906 117.550781 79.375 117.34375 C 79.339844 115.859375 79.457031 114.472656 79.640625 113.195312 C 79.203125 113.546875 79.089844 112.808594 78.203125 111.726562 C 77.15625 110.449219 77.257812 108.914062 76.660156 108.144531 C 74.917969 105.894531 71.492188 112.832031 70.402344 115.714844 Z M 70.402344 115.714844 " fill-opacity="0.3" fill-rule="nonzero"/><path fill="#ffffff" d="M 63.757812 106.0625 C 63.515625 107.09375 63.105469 108.339844 63.105469 108.339844 C 63.105469 108.339844 65.148438 109.027344 65.320312 109.066406 C 65.882812 109.199219 66.617188 108.105469 66.960938 106.628906 C 67.304688 105.152344 67.132812 103.851562 66.570312 103.71875 C 66.160156 103.625 64.523438 103.054688 64.523438 103.054688 C 64.523438 103.054688 63.851562 105.667969 63.757812 106.0625 Z M 63.757812 106.0625 " fill-opacity="1" fill-rule="nonzero"/><path fill="#ffffff" d="M 64.464844 103.03125 C 64.644531 103.074219 64.800781 103.179688 64.933594 103.355469 C 65.070312 103.53125 65.171875 103.757812 65.238281 104.039062 C 65.308594 104.316406 65.335938 104.628906 65.328125 104.972656 C 65.320312 105.316406 65.277344 105.664062 65.191406 106.019531 C 65.109375 106.375 64.996094 106.707031 64.851562 107.019531 C 64.707031 107.332031 64.539062 107.597656 64.355469 107.820312 C 64.167969 108.039062 63.976562 108.199219 63.78125 108.296875 C 63.582031 108.394531 63.394531 108.421875 63.214844 108.378906 C 63.035156 108.335938 62.878906 108.230469 62.746094 108.054688 C 62.609375 107.878906 62.507812 107.652344 62.441406 107.375 C 62.375 107.09375 62.34375 106.78125 62.351562 106.4375 C 62.359375 106.09375 62.402344 105.746094 62.488281 105.390625 C 62.570312 105.035156 62.683594 104.703125 62.828125 104.390625 C 62.972656 104.078125 63.140625 103.8125 63.324219 103.59375 C 63.511719 103.371094 63.703125 103.210938 63.898438 103.113281 C 64.097656 103.015625 64.285156 102.988281 64.464844 103.03125 Z M 64.464844 103.03125 " fill-opacity="1" fill-rule="nonzero"/><path fill="#ffffff" d="M 63.160156 98.25 C 63.074219 99.410156 62.933594 101.246094 62.839844 103.179688 C 62.714844 105.941406 62.691406 108.886719 63.105469 110.273438 C 63.820312 112.6875 69.671875 116.429688 73.695312 118.375 C 74.75 118.886719 75.980469 118.238281 75.972656 117.066406 C 75.964844 115.148438 76.074219 113.320312 76.21875 111.753906 C 76.355469 110.273438 76.523438 109.019531 76.660156 108.144531 C 76.785156 107.339844 76.359375 106.550781 75.617188 106.207031 C 69.183594 103.234375 65.554688 99.65625 64.070312 97.949219 C 63.765625 97.601562 63.195312 97.789062 63.160156 98.25 Z M 63.160156 98.25 " fill-opacity="1" fill-rule="nonzero"/><path fill="#371a45" d="M 62.761719 106.613281 C 62.769531 107.839844 62.832031 108.949219 62.984375 109.753906 C 63.015625 109.945312 63.058594 110.121094 63.105469 110.273438 C 63.820312 112.6875 69.671875 116.429688 73.695312 118.375 C 74.75 118.886719 75.980469 118.238281 75.972656 117.066406 C 75.964844 115.148438 76.074219 113.320312 76.21875 111.753906 C 75.335938 112.675781 73.007812 114.382812 68.777344 112.722656 C 67.683594 112.292969 66.761719 111.507812 65.988281 110.519531 C 66.429688 110.164062 66.875 109.304688 67.121094 108.246094 C 67.46875 106.769531 67.292969 105.46875 66.730469 105.335938 C 66.390625 105.257812 65.191406 104.84375 64.804688 104.714844 C 64.75 104.683594 64.691406 104.660156 64.628906 104.648438 C 64.234375 104.554688 63.796875 104.808594 63.425781 105.289062 C 63.160156 105.632812 62.925781 106.085938 62.761719 106.613281 Z M 62.761719 106.613281 " fill-opacity="0.3" fill-rule="nonzero"/><path fill="#371a45" d="M 62.761719 106.613281 C 62.925781 106.085938 63.160156 105.632812 63.425781 105.289062 C 63.195312 104.5625 63 103.847656 62.839844 103.179688 C 62.789062 104.332031 62.753906 105.519531 62.761719 106.613281 Z M 62.761719 106.613281 " fill-opacity="0.3" fill-rule="nonzero"/><path fill="#371a45" d="M 74.453125 119.257812 C 74.09375 119.257812 73.730469 119.175781 73.386719 119.007812 C 70.652344 117.6875 63.347656 113.574219 62.429688 110.472656 C 61.714844 108.070312 62.203125 101.59375 62.4375 98.480469 L 62.457031 98.195312 C 62.496094 97.703125 62.824219 97.28125 63.292969 97.125 C 63.765625 96.972656 64.277344 97.113281 64.601562 97.484375 C 66.152344 99.269531 69.6875 102.691406 75.914062 105.570312 C 76.9375 106.039062 77.53125 107.144531 77.359375 108.25 C 77.097656 109.945312 76.660156 113.339844 76.679688 117.0625 C 76.683594 117.828125 76.320312 118.503906 75.679688 118.90625 C 75.304688 119.140625 74.882812 119.257812 74.453125 119.257812 Z M 63.832031 98.742188 C 63.617188 101.617188 63.15625 107.960938 63.78125 110.074219 C 64.363281 112.039062 69.539062 115.585938 74.003906 117.742188 C 74.3125 117.890625 74.660156 117.882812 74.925781 117.714844 C 75.054688 117.632812 75.269531 117.441406 75.269531 117.066406 C 75.246094 113.25 75.695312 109.769531 75.960938 108.035156 C 76.039062 107.546875 75.773438 107.058594 75.320312 106.847656 C 69.21875 104.027344 65.589844 100.679688 63.832031 98.742188 Z M 63.832031 98.742188 " fill-opacity="1" fill-rule="nonzero"/><path fill="#22a7f0" d="M 63.757812 106.0625 C 63.515625 107.09375 63.105469 108.339844 63.105469 108.339844 C 63.105469 108.339844 65.148438 109.027344 65.320312 109.066406 C 65.882812 109.199219 66.617188 108.105469 66.960938 106.628906 C 67.304688 105.152344 67.132812 103.851562 66.570312 103.71875 C 66.160156 103.625 64.523438 103.054688 64.523438 103.054688 C 64.523438 103.054688 63.851562 105.667969 63.757812 106.0625 Z M 63.757812 106.0625 " fill-opacity="1" fill-rule="nonzero"/><path fill="#ffffff" d="M 64.523438 103.054688 C 64.523438 103.054688 63.851562 105.667969 63.757812 106.0625 C 63.519531 107.09375 63.105469 108.339844 63.105469 108.339844 C 63.105469 108.339844 63.144531 108.351562 63.214844 108.378906 C 63.335938 107.960938 63.480469 107.460938 63.585938 107.003906 C 63.675781 106.605469 64.351562 103.992188 64.351562 103.992188 C 64.351562 103.992188 65.984375 104.5625 66.398438 104.660156 C 66.851562 104.765625 67.054688 105.644531 66.929688 106.765625 C 66.9375 106.71875 66.949219 106.675781 66.960938 106.632812 C 67.304688 105.15625 67.132812 103.851562 66.570312 103.71875 C 66.160156 103.625 64.523438 103.054688 64.523438 103.054688 Z M 64.523438 103.054688 " fill-opacity="0.8" fill-rule="nonzero"/><path fill="#371a45" d="M 63.632812 106.550781 C 63.398438 107.449219 63.105469 108.339844 63.105469 108.339844 C 63.105469 108.339844 65.148438 109.027344 65.320312 109.066406 C 65.878906 109.199219 66.613281 108.105469 66.960938 106.628906 C 67.078125 106.132812 67.136719 105.652344 67.136719 105.234375 C 66.761719 106.464844 66.121094 107.320312 65.621094 107.203125 C 65.488281 107.171875 64.171875 106.730469 63.632812 106.550781 Z M 63.632812 106.550781 " fill-opacity="0.3" fill-rule="nonzero"/><path fill="#371a45" d="M 65.410156 109.546875 C 65.332031 109.546875 65.269531 109.539062 65.210938 109.523438 C 65.039062 109.484375 63.578125 108.992188 62.957031 108.785156 C 62.710938 108.703125 62.578125 108.4375 62.660156 108.191406 C 62.664062 108.179688 63.066406 106.953125 63.300781 105.957031 L 63.757812 106.0625 L 63.300781 105.957031 C 63.390625 105.558594 64.039062 103.042969 64.066406 102.9375 C 64.101562 102.808594 64.183594 102.703125 64.300781 102.640625 C 64.417969 102.578125 64.554688 102.566406 64.679688 102.609375 C 65.125 102.765625 66.359375 103.1875 66.675781 103.261719 C 66.953125 103.324219 67.433594 103.585938 67.570312 104.609375 C 67.652344 105.214844 67.597656 105.96875 67.417969 106.738281 C 67.238281 107.503906 66.953125 108.207031 66.613281 108.714844 C 66.152344 109.398438 65.710938 109.546875 65.410156 109.546875 Z M 63.695312 108.042969 C 64.519531 108.316406 65.320312 108.582031 65.429688 108.609375 C 65.585938 108.582031 66.175781 107.925781 66.503906 106.523438 C 66.832031 105.117188 66.597656 104.269531 66.445312 104.171875 C 66.167969 104.109375 65.378906 103.84375 64.851562 103.664062 C 64.652344 104.441406 64.28125 105.886719 64.214844 106.171875 C 64.058594 106.835938 63.839844 107.582031 63.695312 108.042969 Z M 63.695312 108.042969 " fill-opacity="1" fill-rule="nonzero"/><path fill="#22a7f0" d="M 64.464844 103.03125 C 64.644531 103.074219 64.800781 103.179688 64.933594 103.355469 C 65.070312 103.53125 65.171875 103.757812 65.238281 104.039062 C 65.308594 104.316406 65.335938 104.628906 65.328125 104.972656 C 65.320312 105.316406 65.277344 105.664062 65.191406 106.019531 C 65.109375 106.375 64.996094 106.707031 64.851562 107.019531 C 64.707031 107.332031 64.539062 107.597656 64.355469 107.820312 C 64.167969 108.039062 63.976562 108.199219 63.78125 108.296875 C 63.582031 108.394531 63.394531 108.421875 63.214844 108.378906 C 63.035156 108.335938 62.878906 108.230469 62.746094 108.054688 C 62.609375 107.878906 62.507812 107.652344 62.441406 107.375 C 62.375 107.09375 62.34375 106.78125 62.351562 106.4375 C 62.359375 106.09375 62.402344 105.746094 62.488281 105.390625 C 62.570312 105.035156 62.683594 104.703125 62.828125 104.390625 C 62.972656 104.078125 63.140625 103.8125 63.324219 103.59375 C 63.511719 103.371094 63.703125 103.210938 63.898438 103.113281 C 64.097656 103.015625 64.285156 102.988281 64.464844 103.03125 Z M 64.464844 103.03125 " fill-opacity="1" fill-rule="nonzero"/><path fill="#ffffff" d="M 62.492188 105.386719 C 62.46875 105.484375 62.449219 105.582031 62.433594 105.675781 C 62.855469 104.597656 63.570312 103.902344 64.183594 104.042969 C 64.882812 104.207031 65.214844 105.386719 64.972656 106.746094 C 65.058594 106.519531 65.136719 106.277344 65.199219 106.019531 C 65.542969 104.542969 65.214844 103.203125 64.46875 103.03125 C 63.722656 102.855469 62.835938 103.910156 62.492188 105.386719 Z M 62.492188 105.386719 " fill-opacity="0.8" fill-rule="nonzero"/><path fill="#371a45" d="M 62.464844 105.515625 C 62.164062 106.941406 62.492188 108.207031 63.21875 108.378906 C 63.964844 108.550781 64.851562 107.496094 65.199219 106.019531 C 65.378906 105.246094 65.375 104.515625 65.226562 103.964844 C 65.214844 104.003906 65.207031 104.046875 65.199219 104.085938 C 64.851562 105.5625 63.964844 106.621094 63.21875 106.445312 C 62.863281 106.363281 62.601562 106.015625 62.464844 105.515625 Z M 62.464844 105.515625 " fill-opacity="0.3" fill-rule="nonzero"/><path fill="#371a45" d="M 63.382812 108.867188 C 63.292969 108.867188 63.203125 108.855469 63.113281 108.835938 C 62.078125 108.59375 61.613281 107.066406 62.03125 105.28125 C 62.214844 104.496094 62.546875 103.789062 62.96875 103.289062 C 63.460938 102.699219 64.03125 102.445312 64.574219 102.574219 C 65.609375 102.8125 66.074219 104.339844 65.65625 106.125 C 65.273438 107.753906 64.332031 108.867188 63.382812 108.867188 Z M 64.304688 103.480469 C 64.136719 103.480469 63.90625 103.632812 63.691406 103.890625 C 63.367188 104.277344 63.097656 104.859375 62.949219 105.496094 C 62.632812 106.847656 62.960938 107.835938 63.324219 107.921875 C 63.6875 108.003906 64.421875 107.265625 64.738281 105.914062 C 65.054688 104.558594 64.726562 103.574219 64.363281 103.488281 C 64.34375 103.484375 64.324219 103.480469 64.304688 103.480469 Z M 64.304688 103.480469 " fill-opacity="1" fill-rule="nonzero"/><path fill="#371a45" d="M 69.175781 116.328125 C 69.167969 116.328125 69.15625 116.328125 69.148438 116.324219 C 68.886719 116.308594 68.691406 116.085938 68.707031 115.828125 L 69.046875 110.40625 C 69.058594 110.183594 69.226562 110 69.445312 109.96875 L 71.121094 109.722656 L 72.042969 104.53125 C 72.089844 104.273438 72.332031 104.101562 72.589844 104.148438 C 72.84375 104.195312 73.015625 104.4375 72.96875 104.695312 L 71.988281 110.21875 C 71.953125 110.417969 71.792969 110.574219 71.59375 110.601562 L 69.960938 110.84375 L 69.644531 115.886719 C 69.628906 116.132812 69.421875 116.328125 69.175781 116.328125 Z M 69.175781 116.328125 " fill-opacity="1" fill-rule="nonzero"/><path fill="#371a45" d="M 92.664062 140.910156 C 92.390625 140.910156 92.148438 140.71875 92.089844 140.441406 C 92.019531 140.125 92.226562 139.8125 92.542969 139.746094 C 99.714844 138.234375 100.9375 124.777344 100.949219 124.640625 C 100.976562 124.316406 101.261719 124.078125 101.585938 124.105469 C 101.910156 124.132812 102.148438 124.417969 102.121094 124.738281 C 102.074219 125.328125 100.808594 139.207031 92.785156 140.898438 C 92.746094 140.90625 92.703125 140.910156 92.664062 140.910156 Z M 92.664062 140.910156 " fill-opacity="1" fill-rule="nonzero"/><path fill="#371a45" d="M 58.902344 84.253906 C 57.757812 84.253906 56.554688 83.964844 55.308594 83.261719 C 55.023438 83.101562 54.925781 82.746094 55.085938 82.460938 C 55.246094 82.179688 55.605469 82.082031 55.886719 82.238281 C 62.128906 85.761719 67.429688 76.925781 67.480469 76.835938 C 67.644531 76.554688 68.007812 76.464844 68.285156 76.628906 C 68.566406 76.792969 68.660156 77.152344 68.496094 77.429688 C 68.445312 77.511719 64.398438 84.253906 58.902344 84.253906 Z M 58.902344 84.253906 " fill-opacity="1" fill-rule="nonzero"/><path fill="#371a45" d="M 54.605469 64.085938 C 54.347656 64.085938 54.097656 63.945312 53.96875 63.699219 C 53.503906 62.789062 52.976562 62.226562 52.417969 61.628906 C 51.824219 60.992188 51.207031 60.335938 50.652344 59.273438 C 50.46875 58.925781 50.605469 58.496094 50.953125 58.316406 C 51.300781 58.132812 51.730469 58.265625 51.914062 58.613281 C 52.382812 59.507812 52.902344 60.066406 53.457031 60.65625 C 54.058594 61.300781 54.683594 61.964844 55.238281 63.054688 C 55.417969 63.402344 55.277344 63.832031 54.929688 64.011719 C 54.824219 64.0625 54.714844 64.085938 54.605469 64.085938 Z M 54.605469 64.085938 " fill-opacity="1" fill-rule="nonzero"/><path fill="#371a45" d="M 58.261719 62.628906 C 57.960938 62.628906 57.679688 62.433594 57.582031 62.132812 C 56.699219 59.320312 56.585938 58.074219 56.582031 58.023438 C 56.550781 57.632812 56.839844 57.289062 57.230469 57.257812 C 57.621094 57.226562 57.96875 57.515625 58 57.90625 C 58.003906 57.929688 58.117188 59.097656 58.941406 61.707031 C 59.058594 62.078125 58.851562 62.476562 58.476562 62.597656 C 58.40625 62.617188 58.332031 62.628906 58.261719 62.628906 Z M 58.261719 62.628906 " fill-opacity="1" fill-rule="nonzero"/><path fill="#ffffff" d="M 97.667969 118.691406 C 89.929688 125.042969 76.296875 117.90625 77.789062 113.003906 C 78.292969 111.34375 79.992188 111.214844 79.992188 111.214844 C 79.992188 111.214844 90.785156 118.394531 98.113281 113.476562 C 98.113281 113.476562 100.347656 116.488281 97.667969 118.691406 Z M 97.667969 118.691406 " fill-opacity="1" fill-rule="nonzero"/><path fill="#371a45" d="M 97.667969 118.6875 C 89.929688 125.042969 76.296875 117.90625 77.789062 113.003906 C 77.988281 112.34375 78.375 111.925781 78.773438 111.660156 C 78.601562 117.390625 93.078125 122.761719 98.648438 115.761719 C 98.734375 115.652344 98.851562 115.585938 98.941406 115.496094 C 99.097656 116.484375 98.90625 117.671875 97.667969 118.6875 Z M 97.667969 118.6875 " fill-opacity="0.3" fill-rule="nonzero"/><path fill="#371a45" d="M 90.152344 121.921875 C 86.765625 121.921875 83.339844 120.796875 80.710938 119.042969 C 77.847656 117.132812 76.496094 114.796875 77.105469 112.796875 C 77.746094 110.695312 79.847656 110.511719 79.9375 110.507812 C 80.097656 110.496094 80.253906 110.535156 80.386719 110.625 C 80.488281 110.691406 90.875 117.480469 97.71875 112.890625 C 98.03125 112.675781 98.460938 112.75 98.6875 113.054688 C 99.597656 114.285156 100.65625 117.15625 98.117188 119.238281 C 95.820312 121.125 93 121.921875 90.152344 121.921875 Z M 79.835938 111.960938 C 79.472656 112.050781 78.734375 112.335938 78.46875 113.210938 C 78.058594 114.558594 79.222656 116.34375 81.503906 117.863281 C 85.796875 120.722656 92.765625 121.792969 97.214844 118.140625 C 98.75 116.878906 98.285156 115.292969 97.875 114.460938 C 90.832031 118.496094 81.492188 113.003906 79.835938 111.960938 Z M 97.667969 118.691406 Z M 97.667969 118.691406 " fill-opacity="1" fill-rule="nonzero"/><g clip-path="url(#fae0ecfa7e)"><path fill="#ffffff" d="M 121.902344 125.21875 C 121.902344 125.21875 121.386719 126.320312 120.3125 126.703125 C 119.777344 126.894531 119.046875 126.992188 118.226562 127.027344 C 117.5 127.054688 116.703125 127.03125 115.90625 126.972656 C 114.152344 126.847656 112.398438 126.566406 111.40625 126.332031 C 109.320312 125.847656 107.203125 124.902344 105.171875 123.652344 C 102.390625 121.941406 99.773438 119.664062 97.609375 117.199219 C 95.578125 114.882812 93.953125 112.398438 92.980469 110.078125 L 92.953125 107.425781 L 92.910156 103.800781 L 92.769531 90.972656 L 92.738281 88.058594 C 92.773438 88.132812 93.601562 89.757812 95.015625 92.179688 C 95.148438 92.410156 95.289062 92.648438 95.433594 92.890625 C 97.054688 95.621094 99.324219 99.164062 101.996094 102.605469 C 106.152344 107.960938 111.289062 113.074219 116.496094 114.476562 C 122.5625 116.109375 125.707031 116.453125 126.085938 118.585938 C 126.464844 120.75 123.769531 121.523438 123.769531 121.523438 C 123.769531 121.523438 124.351562 123.027344 123.613281 124.160156 C 123.027344 125.058594 121.902344 125.21875 121.902344 125.21875 Z M 121.902344 125.21875 " fill-opacity="1" fill-rule="nonzero"/></g><path fill="#371a45" d="M 115.960938 119.460938 C 115.960938 119.460938 115.726562 119.714844 115.207031 120.007812 C 115.644531 119.664062 115.960938 119.460938 115.960938 119.460938 Z M 115.960938 119.460938 " fill-opacity="0.35" fill-rule="nonzero"/><path fill="#371a45" d="M 118.226562 127.023438 C 117.5 127.054688 116.703125 127.027344 115.90625 126.972656 C 114.152344 126.847656 112.398438 126.566406 111.40625 126.332031 C 109.320312 125.84375 107.203125 124.902344 105.171875 123.648438 C 102.390625 121.941406 99.773438 119.660156 97.609375 117.199219 C 95.578125 114.878906 93.953125 112.398438 92.980469 110.078125 C 92.972656 109.242188 94.027344 108.878906 94.539062 109.535156 C 97.164062 112.929688 101.644531 118.214844 104.929688 119.492188 C 110.738281 121.746094 113.890625 120.75 115.207031 120.007812 C 113.953125 120.996094 111.722656 123.140625 113.371094 124.871094 C 114 125.535156 116.484375 126.699219 118.226562 127.023438 Z M 118.226562 127.023438 " fill-opacity="0.35" fill-rule="nonzero"/><g clip-path="url(#6a87ce72eb)"><path fill="#371a45" d="M 92.949219 87.949219 C 94.28125 89.648438 95.398438 91.449219 96.523438 93.242188 C 97.660156 95.03125 98.757812 96.847656 99.953125 98.59375 C 101.144531 100.34375 102.421875 102.035156 103.757812 103.667969 C 105.101562 105.300781 106.515625 106.867188 108.035156 108.316406 C 109.546875 109.765625 111.183594 111.082031 112.953125 112.144531 C 113.832031 112.6875 114.765625 113.113281 115.710938 113.476562 C 116.644531 113.800781 117.703125 114.058594 118.730469 114.324219 C 119.761719 114.585938 120.800781 114.839844 121.84375 115.125 C 122.367188 115.265625 122.890625 115.414062 123.417969 115.589844 C 123.945312 115.769531 124.480469 115.964844 125.011719 116.25 C 125.277344 116.398438 125.546875 116.566406 125.800781 116.78125 C 126.050781 116.996094 126.292969 117.265625 126.46875 117.582031 C 126.648438 117.898438 126.761719 118.25 126.796875 118.59375 C 126.808594 118.765625 126.84375 118.933594 126.820312 119.113281 C 126.808594 119.292969 126.800781 119.472656 126.746094 119.644531 C 126.726562 119.734375 126.707031 119.820312 126.675781 119.90625 L 126.570312 120.152344 C 126.507812 120.324219 126.402344 120.460938 126.3125 120.613281 C 126.105469 120.886719 125.875 121.136719 125.621094 121.332031 C 125.371094 121.535156 125.109375 121.699219 124.835938 121.84375 C 124.699219 121.914062 124.558594 121.980469 124.417969 122.039062 C 124.273438 122.101562 124.144531 122.152344 123.964844 122.207031 L 124.429688 121.265625 C 124.488281 121.414062 124.511719 121.507812 124.542969 121.628906 C 124.574219 121.742188 124.597656 121.859375 124.621094 121.972656 C 124.664062 122.203125 124.691406 122.4375 124.695312 122.679688 C 124.710938 123.160156 124.636719 123.671875 124.417969 124.15625 C 124.207031 124.640625 123.832031 125.074219 123.40625 125.355469 C 123.195312 125.5 122.972656 125.617188 122.742188 125.707031 C 122.628906 125.757812 122.511719 125.792969 122.394531 125.832031 C 122.332031 125.847656 122.273438 125.863281 122.210938 125.878906 C 122.144531 125.894531 122.097656 125.90625 122 125.921875 L 122.546875 125.515625 C 122.476562 125.660156 122.429688 125.738281 122.363281 125.84375 C 122.304688 125.941406 122.238281 126.035156 122.171875 126.125 C 122.035156 126.308594 121.882812 126.480469 121.710938 126.640625 C 121.378906 126.960938 120.953125 127.242188 120.488281 127.390625 C 119.621094 127.664062 118.816406 127.710938 118.019531 127.738281 C 116.429688 127.769531 114.886719 127.625 113.347656 127.40625 C 111.820312 127.195312 110.230469 126.832031 108.777344 126.238281 C 108.59375 126.167969 108.40625 126.105469 108.222656 126.027344 L 107.6875 125.78125 C 107.335938 125.613281 106.96875 125.464844 106.625 125.277344 L 105.59375 124.71875 L 105.335938 124.578125 L 105.085938 124.421875 L 104.589844 124.113281 C 103.917969 123.714844 103.292969 123.25 102.65625 122.804688 C 102.339844 122.574219 102.042969 122.328125 101.734375 122.089844 C 101.425781 121.851562 101.121094 121.613281 100.832031 121.351562 L 99.953125 120.585938 C 99.667969 120.324219 99.390625 120.054688 99.109375 119.785156 L 98.6875 119.382812 L 98.285156 118.964844 L 97.480469 118.121094 L 96.714844 117.242188 C 96.585938 117.097656 96.453125 116.957031 96.328125 116.804688 L 95.960938 116.355469 C 95.71875 116.050781 95.457031 115.761719 95.230469 115.445312 C 95 115.128906 94.777344 114.808594 94.554688 114.488281 C 93.71875 113.175781 92.988281 111.75 92.761719 110.167969 C 92.742188 110.03125 92.835938 109.910156 92.96875 109.890625 C 93.058594 109.878906 93.140625 109.914062 93.195312 109.980469 L 93.199219 109.984375 C 94.167969 111.199219 94.960938 112.421875 95.8125 113.636719 C 96.660156 114.851562 97.539062 116.058594 98.535156 117.164062 L 99.308594 117.976562 L 99.695312 118.378906 L 100.097656 118.765625 C 100.371094 119.023438 100.636719 119.285156 100.910156 119.535156 L 101.753906 120.269531 C 102.03125 120.519531 102.324219 120.746094 102.617188 120.976562 C 102.914062 121.203125 103.199219 121.441406 103.5 121.660156 C 104.113281 122.082031 104.707031 122.53125 105.347656 122.90625 L 105.820312 123.203125 L 106.054688 123.351562 L 106.300781 123.484375 L 107.273438 124.011719 C 107.601562 124.191406 107.941406 124.328125 108.273438 124.488281 L 108.777344 124.71875 C 108.945312 124.789062 109.121094 124.847656 109.292969 124.914062 C 110.660156 125.46875 112.0625 125.789062 113.550781 126 C 115.027344 126.210938 116.527344 126.347656 117.984375 126.320312 C 118.703125 126.300781 119.4375 126.234375 120.027344 126.046875 C 120.164062 126 120.273438 125.949219 120.394531 125.875 C 120.511719 125.800781 120.625 125.710938 120.730469 125.613281 C 120.835938 125.511719 120.9375 125.398438 121.027344 125.273438 C 121.074219 125.214844 121.117188 125.152344 121.15625 125.085938 C 121.195312 125.027344 121.242188 124.945312 121.253906 124.914062 L 121.417969 124.59375 L 121.800781 124.511719 L 121.882812 124.496094 C 121.917969 124.488281 121.957031 124.476562 121.992188 124.464844 C 122.066406 124.445312 122.140625 124.421875 122.210938 124.390625 C 122.351562 124.332031 122.484375 124.261719 122.601562 124.179688 C 122.84375 124.019531 123.007812 123.820312 123.121094 123.574219 C 123.230469 123.328125 123.28125 123.03125 123.273438 122.714844 C 123.269531 122.554688 123.25 122.390625 123.21875 122.230469 C 123.207031 122.148438 123.1875 122.066406 123.167969 121.988281 C 123.148438 121.914062 123.117188 121.816406 123.101562 121.777344 L 122.835938 121.066406 L 123.570312 120.839844 C 123.644531 120.816406 123.765625 120.769531 123.867188 120.726562 C 123.972656 120.683594 124.074219 120.636719 124.175781 120.582031 C 124.375 120.476562 124.566406 120.359375 124.730469 120.222656 C 124.898438 120.09375 125.03125 119.945312 125.144531 119.792969 C 125.1875 119.710938 125.253906 119.640625 125.277344 119.558594 L 125.332031 119.4375 C 125.34375 119.394531 125.351562 119.351562 125.363281 119.3125 C 125.394531 119.230469 125.390625 119.140625 125.398438 119.054688 C 125.417969 118.96875 125.386719 118.871094 125.386719 118.777344 C 125.367188 118.589844 125.3125 118.425781 125.226562 118.277344 C 125.066406 117.980469 124.738281 117.71875 124.332031 117.5 C 123.921875 117.277344 123.453125 117.097656 122.96875 116.9375 C 122.484375 116.773438 121.976562 116.632812 121.46875 116.492188 C 120.453125 116.21875 119.414062 115.964844 118.375 115.699219 C 117.335938 115.429688 116.316406 115.1875 115.226562 114.8125 C 114.179688 114.414062 113.164062 113.941406 112.222656 113.363281 C 110.328125 112.226562 108.621094 110.84375 107.050781 109.34375 C 103.90625 106.339844 101.242188 102.925781 98.761719 99.417969 C 97.523438 97.660156 96.3125 95.878906 95.234375 94.019531 C 94.15625 92.160156 93.148438 90.257812 92.523438 88.160156 C 92.484375 88.035156 92.558594 87.898438 92.683594 87.863281 C 92.78125 87.832031 92.882812 87.867188 92.941406 87.945312 Z M 92.949219 87.949219 " fill-opacity="1" fill-rule="nonzero"/></g><path fill="#ffffff" d="M 65.910156 66.175781 C 60.976562 102.902344 111.820312 111.558594 120.355469 76.902344 C 126.296875 39.429688 73.734375 30.53125 65.910156 66.175781 Z M 65.910156 66.175781 " fill-opacity="1" fill-rule="nonzero"/><path fill="#ffffff" d="M 65.910156 66.175781 C 60.976562 102.902344 111.820312 111.558594 120.355469 76.902344 C 126.296875 39.429688 73.734375 30.53125 65.910156 66.175781 Z M 65.910156 66.175781 " fill-opacity="1" fill-rule="nonzero"/><path fill="#371a45" d="M 101.996094 102.601562 C 99.675781 103.304688 97.273438 103.699219 94.863281 103.789062 C 94.214844 103.8125 93.5625 103.816406 92.910156 103.800781 C 85.210938 103.582031 77.605469 100.339844 72.4375 94.4375 C 70.828125 92.605469 69.457031 90.515625 68.390625 88.179688 C 69.277344 86.585938 70.28125 84.9375 71.410156 83.230469 C 72.003906 82.339844 72.628906 81.433594 73.289062 80.511719 L 92.769531 90.972656 L 92.738281 88.058594 C 92.773438 88.132812 93.597656 89.757812 95.015625 92.179688 L 95.574219 92.480469 C 95.527344 92.617188 95.480469 92.753906 95.433594 92.890625 C 97.054688 95.621094 99.324219 99.164062 101.996094 102.601562 Z M 101.996094 102.601562 " fill-opacity="0.35" fill-rule="nonzero"/><path fill="#ffffff" d="M 65.910156 66.175781 C 60.976562 102.902344 111.820312 111.558594 120.355469 76.902344 C 126.296875 39.429688 73.734375 30.53125 65.910156 66.175781 Z M 65.910156 66.175781 " fill-opacity="1" fill-rule="nonzero"/><path fill="#371a45" d="M 93.457031 99.308594 C 91.597656 99.308594 89.71875 99.132812 87.847656 98.78125 C 80.882812 97.464844 74.789062 93.800781 70.6875 88.472656 C 66.074219 82.472656 64.246094 74.742188 65.40625 66.109375 L 65.410156 66.066406 C 67.265625 57.617188 71.742188 51.050781 78.351562 47.074219 C 84.246094 43.527344 91.410156 42.308594 98.523438 43.648438 C 105.617188 44.984375 111.789062 48.714844 115.902344 54.15625 C 120.535156 60.292969 122.25 68.1875 120.855469 76.984375 L 120.847656 77.023438 C 118.820312 85.25 114.289062 91.636719 107.746094 95.484375 C 103.464844 98.007812 98.53125 99.308594 93.457031 99.308594 Z M 66.410156 66.265625 C 63.9375 84.746094 75.488281 95.414062 88.039062 97.785156 C 89.769531 98.113281 91.5625 98.28125 93.375 98.28125 C 104.375 98.28125 116.101562 92.019531 119.855469 76.804688 C 122.820312 58.046875 110.78125 46.984375 98.335938 44.644531 C 85.765625 42.277344 70.421875 48.035156 66.410156 66.265625 Z M 66.410156 66.265625 " fill-opacity="1" fill-rule="nonzero"/><path fill="#371a45" d="M 65.910156 66.175781 C 61.097656 97.824219 101.871094 111.261719 117.429688 84.703125 C 109.851562 91.292969 106.929688 89.484375 99.71875 90.191406 C 76.925781 93.1875 64.789062 68.125 74.707031 50.535156 C 70.042969 54.6875 67.011719 60.230469 65.910156 66.175781 Z M 65.910156 66.175781 " fill-opacity="0.35" fill-rule="nonzero"/><path fill="#293856" d="M 93.457031 99.511719 C 91.585938 99.511719 89.695312 99.335938 87.808594 98.980469 C 80.796875 97.65625 74.660156 93.964844 70.527344 88.59375 C 65.878906 82.554688 64.035156 74.769531 65.203125 66.082031 L 65.214844 66.023438 C 67.082031 57.519531 71.585938 50.90625 78.246094 46.898438 C 84.1875 43.324219 91.402344 42.097656 98.5625 43.445312 C 105.707031 44.792969 111.921875 48.550781 116.066406 54.035156 C 120.734375 60.214844 122.460938 68.164062 121.054688 77.015625 L 121.042969 77.074219 C 119.003906 85.355469 114.441406 91.78125 107.851562 95.660156 C 103.539062 98.199219 98.566406 99.511719 93.457031 99.511719 Z M 66.609375 66.300781 C 64.160156 84.644531 75.625 95.230469 88.074219 97.585938 C 100.242188 99.882812 115.308594 94.347656 119.65625 76.761719 C 122.59375 58.148438 110.644531 47.167969 98.296875 44.84375 C 85.828125 42.496094 70.597656 48.210938 66.609375 66.300781 Z M 66.609375 66.300781 " fill-opacity="1" fill-rule="nonzero"/><path fill="#371a45" d="M 93.457031 99.511719 C 91.585938 99.511719 89.695312 99.335938 87.808594 98.980469 C 80.796875 97.65625 74.660156 93.964844 70.527344 88.59375 C 65.878906 82.554688 64.035156 74.769531 65.203125 66.082031 L 65.214844 66.023438 C 67.082031 57.519531 71.585938 50.90625 78.246094 46.898438 C 84.1875 43.324219 91.402344 42.097656 98.5625 43.445312 C 105.707031 44.792969 111.921875 48.550781 116.066406 54.035156 C 120.734375 60.214844 122.460938 68.164062 121.054688 77.015625 L 121.042969 77.074219 C 119.003906 85.355469 114.441406 91.78125 107.851562 95.660156 C 103.539062 98.199219 98.566406 99.511719 93.457031 99.511719 Z M 66.609375 66.300781 C 64.160156 84.644531 75.625 95.230469 88.074219 97.585938 C 100.242188 99.882812 115.308594 94.347656 119.65625 76.761719 C 122.59375 58.148438 110.644531 47.167969 98.296875 44.84375 C 85.828125 42.496094 70.597656 48.210938 66.609375 66.300781 Z M 66.609375 66.300781 " fill-opacity="1" fill-rule="nonzero"/><path fill="#371a45" d="M 65.519531 73.261719 C 75.488281 104.238281 115.0625 95.613281 111.78125 67.320312 C 106.171875 35.847656 64.542969 40.183594 65.519531 73.261719 Z M 65.519531 73.261719 " fill-opacity="1" fill-rule="nonzero"/><path fill="#21102b" d="M 72.742188 53.890625 C 53.074219 75.78125 82.921875 105.554688 104.195312 88.488281 C 83.570312 91.363281 69.167969 69.757812 72.742188 53.890625 Z M 72.742188 53.890625 " fill-opacity="1" fill-rule="nonzero"/><path fill="#371a45" d="M 89.808594 96.519531 C 87.464844 96.519531 85.105469 96.214844 82.804688 95.59375 C 76.972656 94.023438 72.011719 90.53125 68.832031 85.769531 C 65.253906 80.402344 63.996094 73.589844 65.207031 66.0625 L 65.207031 66.058594 C 67.300781 53.617188 79.761719 41.371094 94.972656 42.964844 L 95.089844 42.988281 C 102.304688 45.015625 108.558594 50.273438 112.253906 57.410156 C 115.933594 64.523438 116.613281 72.613281 114.117188 79.601562 C 111.523438 86.304688 106.910156 91.328125 100.765625 94.144531 C 97.332031 95.722656 93.585938 96.519531 89.808594 96.519531 Z M 66.613281 66.289062 C 63.949219 82.894531 73.867188 91.714844 83.171875 94.21875 C 93.867188 97.101562 107.472656 92.835938 112.78125 79.109375 C 115.140625 72.503906 114.488281 64.828125 110.988281 58.0625 C 107.484375 51.292969 101.574219 46.304688 94.761719 44.371094 C 80.375 42.902344 68.597656 54.503906 66.613281 66.289062 Z M 66.613281 66.289062 " fill-opacity="1" fill-rule="nonzero"/><path fill="#371a45" d="M 89.675781 93.5625 C 85.445312 93.5625 81.265625 92.449219 77.546875 90.285156 C 71.675781 86.875 67.285156 81.0625 64.84375 73.480469 L 64.8125 73.386719 L 64.808594 73.285156 C 64.574219 65.34375 66.753906 58.453125 71.117188 53.363281 C 75.019531 48.804688 80.453125 45.957031 86.421875 45.34375 C 92.25 44.742188 98 46.34375 102.613281 49.855469 C 107.742188 53.757812 111.15625 59.753906 112.480469 67.195312 L 112.488281 67.238281 C 113.253906 73.832031 111.78125 79.820312 108.230469 84.550781 C 105.015625 88.832031 100.246094 91.835938 94.792969 93.015625 C 93.097656 93.378906 91.382812 93.5625 89.675781 93.5625 Z M 66.230469 73.140625 C 71.382812 89.011719 84.128906 93.863281 94.492188 91.625 C 103.90625 89.59375 112.679688 81.320312 111.074219 67.421875 C 108.265625 51.691406 96.742188 45.710938 86.566406 46.757812 C 76.449219 47.796875 65.78125 56.5 66.230469 73.140625 Z M 66.230469 73.140625 " fill-opacity="1" fill-rule="nonzero"/><path fill="#ffffff" d="M 112.921875 96.320312 C 102.976562 104.816406 93.609375 95.585938 102.285156 86.515625 C 112.378906 77.230469 122.394531 87.097656 112.921875 96.320312 Z M 112.921875 96.320312 " fill-opacity="1" fill-rule="nonzero"/><path fill="#371a45" d="M 100.492188 97.941406 C 97.664062 95.191406 98.664062 89.695312 102.761719 86.066406 C 100.886719 91.976562 111.578125 88.832031 113.664062 87.082031 C 119.613281 95.640625 105.578125 103.097656 100.492188 97.941406 Z M 100.492188 97.941406 " fill-opacity="0.35" fill-rule="nonzero"/><path fill="#371a45" d="M 105.140625 100.394531 C 102.945312 100.394531 101.113281 99.566406 99.902344 98.292969 C 97.457031 95.714844 97.085938 90.921875 101.769531 86.027344 L 101.800781 85.996094 C 107.257812 80.976562 112.898438 81.285156 115.65625 84.1875 C 118.144531 86.804688 118.503906 91.878906 113.417969 96.828125 L 113.386719 96.859375 C 110.429688 99.386719 107.5625 100.394531 105.140625 100.394531 Z M 102.78125 87.023438 C 98.761719 91.238281 98.957031 95.226562 100.9375 97.316406 C 103.03125 99.523438 107.523438 99.988281 112.441406 95.796875 C 116.816406 91.523438 116.640625 87.292969 114.621094 85.167969 C 112.347656 82.773438 107.554688 82.644531 102.78125 87.023438 Z M 112.921875 96.320312 L 112.925781 96.320312 Z M 112.921875 96.320312 " fill-opacity="1" fill-rule="nonzero"/><path fill="#ffffff" d="M 112.832031 97.195312 C 104.765625 104.074219 97.628906 97.277344 104.644531 89.941406 C 112.882812 82.292969 120.628906 89.6875 112.832031 97.195312 Z M 112.832031 97.195312 " fill-opacity="1" fill-rule="nonzero"/><path fill="#371a45" d="M 106.34375 100.761719 C 104.660156 100.761719 103.277344 100.152344 102.371094 99.195312 C 100.5 97.21875 100.316406 93.441406 104.128906 89.449219 L 104.160156 89.421875 C 108.710938 85.195312 113.289062 85.300781 115.457031 87.585938 C 117.386719 89.617188 117.539062 93.648438 113.324219 97.707031 L 113.292969 97.738281 C 110.753906 99.902344 108.339844 100.761719 106.34375 100.761719 Z M 105.144531 90.445312 C 101.988281 93.753906 101.996094 96.734375 103.40625 98.21875 C 104.9375 99.835938 108.390625 100.039062 112.351562 96.671875 C 115.855469 93.289062 115.882812 90.097656 114.425781 88.5625 C 112.738281 86.785156 109.011719 86.863281 105.144531 90.445312 Z M 112.832031 97.195312 Z M 112.832031 97.195312 " fill-opacity="1" fill-rule="nonzero"/><path fill="#ffffff" d="M 103.847656 81.082031 C 99.238281 84.097656 95.722656 78.921875 99.265625 75.644531 C 103.96875 71.765625 108.210938 77.796875 103.847656 81.082031 Z M 103.847656 81.082031 " fill-opacity="0.5" fill-rule="nonzero"/><path fill="#ffffff" d="M 95.957031 85.25 C 94.125 86.300781 92.546875 84.066406 94.425781 82.738281 C 96.253906 81.6875 97.835938 83.921875 95.957031 85.25 Z M 95.957031 85.25 " fill-opacity="0.5" fill-rule="nonzero"/><path fill="#ffffff" d="M 73.078125 58.058594 C 83.910156 40.035156 102.015625 51.957031 104.105469 59.53125 C 93.007812 51.300781 82.832031 53.796875 73.078125 58.058594 Z M 73.078125 58.058594 " fill-opacity="0.5" fill-rule="nonzero"/><path fill="#371a45" d="M 102.699219 91.398438 C 103.515625 90.15625 104.679688 89.128906 105.992188 88.402344 C 102.796875 94.992188 110.25 97.25 114.816406 94.46875 C 109.191406 103.441406 97.90625 100.234375 102.699219 91.398438 Z M 102.699219 91.398438 " fill-opacity="0.35" fill-rule="nonzero"/><path fill="#371a45" d="M 109.359375 81.511719 C 109.347656 81.511719 109.335938 81.511719 109.320312 81.511719 C 108.203125 81.453125 107.757812 80.953125 107.582031 80.546875 C 107.109375 79.449219 108.171875 78.078125 108.507812 77.6875 C 108.765625 77.386719 109.214844 77.351562 109.511719 77.605469 C 109.8125 77.863281 109.847656 78.308594 109.59375 78.609375 C 109.144531 79.136719 108.832031 79.804688 108.890625 79.988281 C 108.890625 79.972656 109.007812 80.070312 109.394531 80.089844 C 109.789062 80.113281 110.089844 80.445312 110.070312 80.839844 C 110.050781 81.21875 109.734375 81.511719 109.359375 81.511719 Z M 109.359375 81.511719 " fill-opacity="1" fill-rule="nonzero"/><path fill="#ffffff" d="M 115.300781 114.449219 C 119.667969 115.824219 122.40625 117.894531 122.117188 119.109375 C 121.90625 119.996094 120.914062 121.011719 119.082031 120.519531 C 117.828125 120.179688 116.394531 119.144531 116.394531 119.144531 C 116.394531 119.144531 114.109375 120.9375 112.265625 121.054688 Z M 115.300781 114.449219 " fill-opacity="1" fill-rule="nonzero"/><path fill="#371a45" d="M 115.515625 113.769531 C 116.773438 114.171875 118.007812 114.652344 119.199219 115.265625 C 119.796875 115.574219 120.378906 115.910156 120.941406 116.3125 C 121.21875 116.515625 121.496094 116.730469 121.757812 116.980469 C 122.023438 117.226562 122.277344 117.5 122.503906 117.851562 C 122.613281 118.027344 122.714844 118.234375 122.785156 118.476562 C 122.820312 118.601562 122.839844 118.738281 122.847656 118.882812 C 122.84375 118.957031 122.851562 119.027344 122.835938 119.105469 C 122.824219 119.175781 122.8125 119.273438 122.796875 119.316406 C 122.679688 119.75 122.464844 120.140625 122.167969 120.457031 C 121.871094 120.773438 121.496094 121.019531 121.09375 121.167969 C 120.691406 121.316406 120.273438 121.363281 119.875 121.351562 C 119.074219 121.339844 118.367188 121.070312 117.734375 120.792969 C 117.09375 120.503906 116.523438 120.171875 115.953125 119.753906 L 116.859375 119.734375 C 116.679688 119.867188 116.519531 119.976562 116.34375 120.082031 C 116.171875 120.191406 116 120.296875 115.820312 120.390625 C 115.464844 120.582031 115.105469 120.765625 114.71875 120.90625 C 114.53125 120.980469 114.335938 121.050781 114.136719 121.105469 C 114.039062 121.132812 113.941406 121.164062 113.839844 121.1875 L 113.535156 121.25 C 113.125 121.324219 112.699219 121.355469 112.28125 121.289062 C 112.148438 121.269531 112.054688 121.144531 112.078125 121.011719 C 112.089844 120.921875 112.152344 120.851562 112.234375 120.820312 L 112.25 120.816406 C 112.597656 120.691406 112.921875 120.542969 113.242188 120.375 C 113.558594 120.207031 113.867188 120.015625 114.171875 119.820312 C 114.476562 119.625 114.777344 119.417969 115.074219 119.203125 C 115.367188 118.992188 115.667969 118.761719 115.929688 118.554688 L 116.351562 118.21875 L 116.835938 118.535156 C 117.320312 118.855469 117.855469 119.1875 118.375 119.453125 C 118.902344 119.722656 119.429688 119.914062 119.921875 119.929688 C 120.414062 119.949219 120.839844 119.792969 121.121094 119.488281 C 121.265625 119.339844 121.367188 119.144531 121.417969 118.960938 C 121.429688 118.929688 121.417969 118.945312 121.421875 118.9375 C 121.425781 118.933594 121.421875 118.925781 121.421875 118.917969 C 121.421875 118.90625 121.421875 118.882812 121.410156 118.847656 C 121.390625 118.785156 121.355469 118.695312 121.292969 118.601562 C 121.046875 118.210938 120.585938 117.808594 120.109375 117.464844 C 119.625 117.117188 119.09375 116.808594 118.546875 116.523438 C 117.449219 115.960938 116.28125 115.503906 115.085938 115.125 L 115.082031 115.121094 C 114.707031 115.003906 114.5 114.605469 114.621094 114.230469 C 114.738281 113.859375 115.140625 113.652344 115.515625 113.769531 Z M 115.515625 113.769531 " fill-opacity="1" fill-rule="nonzero"/><path fill="#371a45" d="M 100.5 120.714844 C 100.238281 120.714844 100 120.539062 99.933594 120.273438 C 98.140625 113.164062 107.277344 108.832031 107.664062 108.648438 C 107.960938 108.511719 108.308594 108.640625 108.445312 108.933594 C 108.585938 109.226562 108.457031 109.578125 108.164062 109.714844 C 108.074219 109.753906 99.519531 113.820312 101.074219 119.984375 C 101.152344 120.300781 100.960938 120.617188 100.644531 120.699219 C 100.597656 120.710938 100.550781 120.714844 100.5 120.714844 Z M 100.5 120.714844 " fill-opacity="1" fill-rule="nonzero"/><path fill="#371a45" d="M 123.878906 122.101562 C 123.308594 122.269531 122.695312 122.347656 122.074219 122.332031 C 121.445312 122.316406 120.84375 122.167969 120.292969 122.023438 C 119.742188 121.871094 119.210938 121.722656 118.664062 121.585938 C 118.121094 121.445312 117.566406 121.332031 117.003906 121.195312 C 116.957031 121.183594 116.929688 121.136719 116.941406 121.089844 C 116.949219 121.054688 116.980469 121.03125 117.011719 121.027344 C 117.585938 120.941406 118.164062 120.898438 118.746094 120.890625 C 119.328125 120.886719 119.917969 120.925781 120.480469 120.980469 C 121.050781 121.035156 121.574219 121.066406 122.082031 121.058594 C 122.59375 121.050781 123.113281 120.984375 123.660156 120.945312 L 123.667969 120.945312 C 123.996094 120.921875 124.277344 121.167969 124.300781 121.492188 C 124.320312 121.773438 124.136719 122.023438 123.878906 122.101562 Z M 123.878906 122.101562 " fill-opacity="1" fill-rule="nonzero"/><path fill="#371a45" d="M 122.085938 125.777344 C 121.816406 125.898438 121.507812 125.953125 121.214844 125.949219 C 120.917969 125.949219 120.640625 125.894531 120.390625 125.820312 C 119.890625 125.667969 119.484375 125.429688 119.089844 125.226562 C 118.316406 124.816406 117.488281 124.441406 116.664062 124.023438 C 116.621094 124 116.605469 123.949219 116.625 123.90625 C 116.640625 123.875 116.671875 123.859375 116.703125 123.859375 C 117.171875 123.851562 117.636719 123.894531 118.101562 123.953125 C 118.5625 124.019531 119.023438 124.109375 119.480469 124.234375 C 119.929688 124.363281 120.359375 124.496094 120.730469 124.589844 C 121.109375 124.679688 121.402344 124.699219 121.71875 124.660156 L 121.765625 124.652344 C 122.089844 124.613281 122.386719 124.84375 122.425781 125.167969 C 122.457031 125.429688 122.3125 125.671875 122.085938 125.777344 Z M 122.085938 125.777344 " fill-opacity="1" fill-rule="nonzero"/><path fill="#371a45" d="M 110.601562 130.378906 C 110.542969 130.988281 110.386719 131.574219 110.1875 132.148438 C 109.988281 132.71875 109.738281 133.28125 109.4375 133.8125 C 109.136719 134.347656 108.804688 134.871094 108.394531 135.335938 C 107.996094 135.808594 107.53125 136.230469 107.011719 136.574219 C 106.683594 136.792969 106.242188 136.707031 106.023438 136.378906 C 105.835938 136.101562 105.871094 135.746094 106.078125 135.507812 L 106.109375 135.476562 C 106.476562 135.0625 106.878906 134.699219 107.25 134.300781 C 107.632812 133.90625 108.019531 133.511719 108.382812 133.085938 C 108.75 132.664062 109.101562 132.222656 109.4375 131.757812 C 109.777344 131.300781 110.097656 130.816406 110.40625 130.320312 L 110.410156 130.316406 C 110.441406 130.265625 110.503906 130.25 110.554688 130.28125 C 110.585938 130.304688 110.605469 130.34375 110.601562 130.378906 Z M 110.601562 130.378906 " fill-opacity="1" fill-rule="nonzero"/><path fill="#ffda22" d="M 64.496094 38.816406 L 52.46875 36.960938 L 44.113281 45.796875 C 42.4375 47.570312 39.453125 46.65625 39.0625 44.25 L 37.113281 32.257812 L 26.109375 27.054688 C 23.90625 26.015625 23.855469 22.898438 26.023438 21.785156 L 32.164062 18.636719 C 32.164062 18.632812 32.167969 18.632812 32.167969 18.632812 L 36.851562 16.226562 L 38.40625 4.175781 C 38.714844 1.761719 41.667969 0.746094 43.402344 2.464844 L 52.042969 11.027344 L 64.007812 8.777344 C 66.402344 8.328125 68.28125 10.816406 67.179688 12.992188 L 61.691406 23.839844 L 66.488281 32.589844 L 67.535156 34.5 C 68.703125 36.636719 66.910156 39.1875 64.496094 38.816406 Z M 64.496094 38.816406 " fill-opacity="1" fill-rule="nonzero"/><path fill="#ffffff" d="M 63.246094 11.328125 L 51.28125 13.578125 L 42.640625 5.015625 C 41.273438 3.664062 39.144531 4.007812 38.15625 5.398438 L 38.40625 3.472656 C 38.714844 1.054688 41.667969 0.0429688 43.402344 1.757812 L 52.042969 10.324219 L 64.007812 8.074219 C 66.402344 7.621094 68.28125 10.113281 67.179688 12.285156 L 66.621094 13.394531 C 66.214844 12.042969 64.847656 11.027344 63.246094 11.328125 Z M 63.246094 11.328125 " fill-opacity="0.7" fill-rule="nonzero"/><path fill="#371a45" d="M 64.496094 38.816406 L 52.46875 36.960938 L 44.113281 45.796875 C 42.4375 47.570312 39.453125 46.65625 39.0625 44.25 L 37.113281 32.257812 L 26.109375 27.054688 C 23.90625 26.015625 23.855469 22.898438 26.023438 21.785156 L 32.164062 18.636719 C 29.84375 20.632812 27.707031 23.292969 30.148438 24.984375 C 31.75 26.09375 35.140625 26.816406 37.695312 27.222656 C 39.585938 27.527344 41.082031 28.988281 41.425781 30.867188 C 41.960938 33.808594 42.929688 37.746094 44.3125 38.066406 C 45.878906 38.433594 48.394531 35.277344 50.152344 32.710938 C 51.347656 30.953125 53.597656 30.257812 55.578125 31.039062 C 59.296875 32.507812 64.914062 34.3125 66.488281 32.589844 L 67.535156 34.5 C 68.703125 36.636719 66.910156 39.1875 64.496094 38.816406 Z M 64.496094 38.816406 " fill-opacity="0.35" fill-rule="nonzero"/><g clip-path="url(#712e851160)"><path fill="#371a45" d="M 41.980469 47.78125 C 41.585938 47.78125 41.1875 47.722656 40.796875 47.601562 C 39.328125 47.152344 38.261719 45.933594 38.015625 44.421875 L 36.160156 32.972656 L 25.660156 28.011719 C 24.269531 27.355469 23.394531 25.996094 23.367188 24.464844 C 23.34375 22.933594 24.175781 21.542969 25.539062 20.84375 L 35.875 15.542969 L 37.355469 4.039062 C 37.550781 2.519531 38.574219 1.269531 40.027344 0.769531 C 41.480469 0.273438 43.058594 0.632812 44.148438 1.714844 L 52.394531 9.886719 L 63.808594 7.738281 C 65.320312 7.453125 66.828125 8.039062 67.75 9.265625 C 68.675781 10.488281 68.816406 12.101562 68.125 13.46875 L 62.886719 23.820312 L 68.460938 33.992188 C 69.199219 35.339844 69.109375 36.953125 68.226562 38.207031 C 67.34375 39.460938 65.851562 40.09375 64.335938 39.863281 L 52.855469 38.089844 L 44.882812 46.523438 C 44.109375 47.339844 43.0625 47.78125 41.980469 47.78125 Z M 41.34375 2.664062 C 41.132812 2.664062 40.921875 2.699219 40.714844 2.769531 C 40.019531 3.007812 39.550781 3.582031 39.457031 4.3125 L 37.832031 16.914062 L 26.507812 22.722656 C 25.855469 23.058594 25.472656 23.699219 25.484375 24.429688 C 25.496094 25.164062 25.902344 25.789062 26.566406 26.101562 L 38.070312 31.539062 L 40.109375 44.082031 C 40.226562 44.804688 40.714844 45.367188 41.417969 45.582031 C 42.117188 45.796875 42.839844 45.605469 43.34375 45.074219 L 52.078125 35.828125 L 64.660156 37.773438 C 65.386719 37.882812 66.070312 37.59375 66.492188 36.992188 C 66.914062 36.394531 66.957031 35.652344 66.601562 35.007812 L 60.496094 23.859375 L 66.234375 12.515625 C 66.566406 11.859375 66.5 11.121094 66.058594 10.535156 C 65.617188 9.949219 64.921875 9.679688 64.203125 9.816406 L 51.691406 12.167969 L 42.65625 3.214844 C 42.292969 2.855469 41.828125 2.664062 41.34375 2.664062 Z M 41.34375 2.664062 " fill-opacity="1" fill-rule="nonzero"/></g></svg>