<svg xmlns="http://www.w3.org/2000/svg" xmlns:xlink="http://www.w3.org/1999/xlink" width="200" zoomAndPan="magnify" viewBox="0 0 150 149.999998" height="200" preserveAspectRatio="xMidYMid meet" version="1.0"><defs><filter x="0%" y="0%" width="100%" height="100%" id="9a4ef77abb"><feColorMatrix values="0 0 0 0 1 0 0 0 0 1 0 0 0 0 1 0 0 0 1 0" color-interpolation-filters="sRGB"/></filter><clipPath id="8d296d7ec4"><path d="M 37 6.8125 L 40 6.8125 L 40 9 L 37 9 Z M 37 6.8125 " clip-rule="nonzero"/></clipPath><clipPath id="1a9b3a9f00"><path d="M 63 147 L 66 147 L 66 149.3125 L 63 149.3125 Z M 63 147 " clip-rule="nonzero"/></clipPath><clipPath id="9f8eba002b"><path d="M 6 147 L 9 147 L 9 149.3125 L 6 149.3125 Z M 6 147 " clip-rule="nonzero"/></clipPath><mask id="a69ec17c3a"><g filter="url(#9a4ef77abb)"><rect x="-15" width="180" fill="#000000" y="-15" height="179.999997" fill-opacity="0.6"/></g></mask><clipPath id="5b5466d1b9"><path d="M 74 0.679688 L 97.121094 0.679688 L 97.121094 10 L 74 10 Z M 74 0.679688 " clip-rule="nonzero"/></clipPath><clipPath id="c4fde42aa6"><path d="M 0.878906 9 L 86 9 L 86 47.960938 L 0.878906 47.960938 Z M 0.878906 9 " clip-rule="nonzero"/></clipPath><clipPath id="0c6153e76b"><rect x="0" width="98" y="0" height="48"/></clipPath><mask id="ef7a1b6eb3"><g filter="url(#9a4ef77abb)"><rect x="-15" width="180" fill="#000000" y="-15" height="179.999997" fill-opacity="0.2"/></g></mask><clipPath id="2fc460a112"><path d="M 6 10 L 26 10 L 26 19.359375 L 6 19.359375 Z M 6 10 " clip-rule="nonzero"/></clipPath><clipPath id="7d26e07e28"><path d="M 21 0.398438 L 28 0.398438 L 28 9 L 21 9 Z M 21 0.398438 " clip-rule="nonzero"/></clipPath><clipPath id="b6586f4e04"><rect x="0" width="29" y="0" height="20"/></clipPath></defs><path fill="#ffffff" d="M 130.398438 53.402344 C 130.398438 53.6875 130.34375 53.960938 130.234375 54.222656 C 130.125 54.484375 129.972656 54.71875 129.769531 54.917969 C 129.570312 55.121094 129.339844 55.273438 129.074219 55.382812 C 128.8125 55.492188 128.539062 55.546875 128.253906 55.546875 C 127.972656 55.546875 127.699219 55.492188 127.4375 55.382812 C 127.171875 55.273438 126.941406 55.121094 126.742188 54.917969 C 126.539062 54.71875 126.386719 54.484375 126.277344 54.222656 C 126.167969 53.960938 126.113281 53.6875 126.113281 53.402344 C 126.113281 53.117188 126.167969 52.84375 126.277344 52.582031 C 126.386719 52.320312 126.539062 52.085938 126.742188 51.886719 C 126.941406 51.683594 127.171875 51.53125 127.4375 51.421875 C 127.699219 51.3125 127.972656 51.257812 128.253906 51.257812 C 128.539062 51.257812 128.8125 51.3125 129.074219 51.421875 C 129.339844 51.53125 129.570312 51.683594 129.769531 51.886719 C 129.972656 52.085938 130.125 52.320312 130.234375 52.582031 C 130.34375 52.84375 130.398438 53.117188 130.398438 53.402344 Z M 130.398438 53.402344 " fill-opacity="1" fill-rule="nonzero"/><path fill="#ffffff" d="M 121.597656 82.726562 C 121.597656 82.855469 121.570312 82.984375 121.519531 83.105469 C 121.46875 83.226562 121.398438 83.332031 121.304688 83.425781 C 121.210938 83.519531 121.105469 83.589844 120.984375 83.640625 C 120.863281 83.691406 120.734375 83.71875 120.605469 83.71875 C 120.472656 83.71875 120.347656 83.691406 120.222656 83.640625 C 120.101562 83.589844 119.996094 83.519531 119.902344 83.425781 C 119.808594 83.332031 119.738281 83.226562 119.6875 83.105469 C 119.636719 82.984375 119.613281 82.855469 119.613281 82.726562 C 119.613281 82.59375 119.636719 82.464844 119.6875 82.34375 C 119.738281 82.222656 119.808594 82.117188 119.902344 82.023438 C 119.996094 81.929688 120.101562 81.859375 120.222656 81.808594 C 120.347656 81.757812 120.472656 81.730469 120.605469 81.730469 C 120.734375 81.730469 120.863281 81.757812 120.984375 81.808594 C 121.105469 81.859375 121.210938 81.929688 121.304688 82.023438 C 121.398438 82.117188 121.46875 82.222656 121.519531 82.34375 C 121.570312 82.464844 121.597656 82.59375 121.597656 82.726562 Z M 121.597656 82.726562 " fill-opacity="1" fill-rule="nonzero"/><path fill="#ffffff" d="M 150 69.425781 C 150 69.558594 149.976562 69.683594 149.925781 69.804688 C 149.875 69.925781 149.800781 70.035156 149.710938 70.128906 C 149.617188 70.21875 149.507812 70.292969 149.386719 70.34375 C 149.265625 70.390625 149.140625 70.417969 149.007812 70.417969 C 148.875 70.417969 148.75 70.390625 148.628906 70.34375 C 148.507812 70.292969 148.398438 70.21875 148.308594 70.128906 C 148.214844 70.035156 148.140625 69.925781 148.09375 69.804688 C 148.042969 69.683594 148.015625 69.558594 148.015625 69.425781 C 148.015625 69.292969 148.042969 69.167969 148.09375 69.046875 C 148.140625 68.921875 148.214844 68.816406 148.308594 68.722656 C 148.398438 68.628906 148.507812 68.558594 148.628906 68.507812 C 148.75 68.457031 148.875 68.433594 149.007812 68.433594 C 149.140625 68.433594 149.265625 68.457031 149.386719 68.507812 C 149.507812 68.558594 149.617188 68.628906 149.710938 68.722656 C 149.800781 68.816406 149.875 68.921875 149.925781 69.046875 C 149.976562 69.167969 150 69.292969 150 69.425781 Z M 150 69.425781 " fill-opacity="1" fill-rule="nonzero"/><path fill="#ffffff" d="M 139.386719 30 C 139.386719 30.132812 139.363281 30.257812 139.3125 30.378906 C 139.261719 30.5 139.191406 30.609375 139.097656 30.703125 C 139.003906 30.792969 138.894531 30.867188 138.773438 30.917969 C 138.652344 30.964844 138.527344 30.992188 138.394531 30.992188 C 138.265625 30.992188 138.136719 30.964844 138.015625 30.917969 C 137.894531 30.867188 137.789062 30.792969 137.695312 30.703125 C 137.601562 30.609375 137.53125 30.5 137.480469 30.378906 C 137.429688 30.257812 137.402344 30.132812 137.402344 30 C 137.402344 29.867188 137.429688 29.742188 137.480469 29.621094 C 137.53125 29.496094 137.601562 29.390625 137.695312 29.296875 C 137.789062 29.203125 137.894531 29.132812 138.015625 29.082031 C 138.136719 29.03125 138.265625 29.007812 138.394531 29.007812 C 138.527344 29.007812 138.652344 29.03125 138.773438 29.082031 C 138.894531 29.132812 139.003906 29.203125 139.097656 29.296875 C 139.191406 29.390625 139.261719 29.496094 139.3125 29.621094 C 139.363281 29.742188 139.386719 29.867188 139.386719 30 Z M 139.386719 30 " fill-opacity="1" fill-rule="nonzero"/><path fill="#ffffff" d="M 117.621094 11.511719 C 117.621094 11.644531 117.59375 11.773438 117.542969 11.894531 C 117.492188 12.015625 117.421875 12.121094 117.328125 12.214844 C 117.238281 12.308594 117.128906 12.378906 117.007812 12.429688 C 116.886719 12.480469 116.757812 12.507812 116.628906 12.507812 C 116.496094 12.507812 116.371094 12.480469 116.25 12.429688 C 116.128906 12.378906 116.019531 12.308594 115.925781 12.214844 C 115.835938 12.121094 115.761719 12.015625 115.710938 11.894531 C 115.660156 11.773438 115.636719 11.644531 115.636719 11.511719 C 115.636719 11.382812 115.660156 11.253906 115.710938 11.132812 C 115.761719 11.011719 115.835938 10.90625 115.925781 10.8125 C 116.019531 10.71875 116.128906 10.648438 116.25 10.597656 C 116.371094 10.546875 116.496094 10.519531 116.628906 10.519531 C 116.757812 10.519531 116.886719 10.546875 117.007812 10.597656 C 117.128906 10.648438 117.238281 10.71875 117.328125 10.8125 C 117.421875 10.90625 117.492188 11.011719 117.542969 11.132812 C 117.59375 11.253906 117.621094 11.382812 117.621094 11.511719 Z M 117.621094 11.511719 " fill-opacity="1" fill-rule="nonzero"/><path fill="#ffffff" d="M 5.355469 94.265625 C 5.375 94.460938 5.355469 94.652344 5.300781 94.839844 C 5.242188 95.027344 5.152344 95.199219 5.027344 95.351562 C 4.902344 95.503906 4.753906 95.625 4.578125 95.71875 C 4.40625 95.8125 4.222656 95.867188 4.027344 95.886719 C 3.832031 95.90625 3.640625 95.886719 3.449219 95.832031 C 3.261719 95.773438 3.09375 95.683594 2.941406 95.558594 C 2.789062 95.433594 2.664062 95.285156 2.574219 95.109375 C 2.480469 94.9375 2.425781 94.753906 2.40625 94.554688 C 2.386719 94.359375 2.402344 94.167969 2.460938 93.980469 C 2.519531 93.792969 2.609375 93.621094 2.734375 93.46875 C 2.859375 93.316406 3.007812 93.195312 3.179688 93.101562 C 3.355469 93.007812 3.539062 92.953125 3.734375 92.933594 C 3.929688 92.914062 4.121094 92.933594 4.308594 92.988281 C 4.5 93.046875 4.667969 93.136719 4.820312 93.261719 C 4.972656 93.386719 5.09375 93.535156 5.1875 93.710938 C 5.28125 93.882812 5.335938 94.066406 5.355469 94.265625 Z M 5.355469 94.265625 " fill-opacity="1" fill-rule="nonzero"/><path fill="#ffffff" d="M 1.984375 65.195312 C 1.984375 65.328125 1.957031 65.453125 1.90625 65.574219 C 1.859375 65.695312 1.785156 65.804688 1.691406 65.898438 C 1.601562 65.988281 1.492188 66.0625 1.371094 66.113281 C 1.25 66.164062 1.125 66.1875 0.992188 66.1875 C 0.859375 66.1875 0.734375 66.164062 0.613281 66.113281 C 0.492188 66.0625 0.382812 65.988281 0.289062 65.898438 C 0.199219 65.804688 0.125 65.695312 0.0742188 65.574219 C 0.0234375 65.453125 0 65.328125 0 65.195312 C 0 65.0625 0.0234375 64.9375 0.0742188 64.816406 C 0.125 64.695312 0.199219 64.585938 0.289062 64.492188 C 0.382812 64.398438 0.492188 64.328125 0.613281 64.277344 C 0.734375 64.226562 0.859375 64.203125 0.992188 64.203125 C 1.125 64.203125 1.25 64.226562 1.371094 64.277344 C 1.492188 64.328125 1.601562 64.398438 1.691406 64.492188 C 1.785156 64.585938 1.859375 64.695312 1.90625 64.816406 C 1.957031 64.9375 1.984375 65.0625 1.984375 65.195312 Z M 1.984375 65.195312 " fill-opacity="1" fill-rule="nonzero"/><path fill="#ffffff" d="M 21.070312 52.246094 C 21.070312 52.378906 21.046875 52.503906 20.996094 52.625 C 20.945312 52.746094 20.875 52.855469 20.78125 52.949219 C 20.6875 53.039062 20.582031 53.113281 20.457031 53.164062 C 20.335938 53.214844 20.210938 53.238281 20.078125 53.238281 C 19.949219 53.238281 19.820312 53.214844 19.699219 53.164062 C 19.578125 53.113281 19.472656 53.039062 19.378906 52.949219 C 19.285156 52.855469 19.214844 52.746094 19.164062 52.625 C 19.113281 52.503906 19.085938 52.378906 19.085938 52.246094 C 19.085938 52.113281 19.113281 51.988281 19.164062 51.867188 C 19.214844 51.746094 19.285156 51.636719 19.378906 51.542969 C 19.472656 51.449219 19.578125 51.378906 19.699219 51.328125 C 19.820312 51.277344 19.949219 51.253906 20.078125 51.253906 C 20.210938 51.253906 20.335938 51.277344 20.457031 51.328125 C 20.582031 51.378906 20.6875 51.449219 20.78125 51.542969 C 20.875 51.636719 20.945312 51.746094 20.996094 51.867188 C 21.046875 51.988281 21.070312 52.113281 21.070312 52.246094 Z M 21.070312 52.246094 " fill-opacity="1" fill-rule="nonzero"/><path fill="#ffffff" d="M 40.421875 77.226562 C 40.421875 77.355469 40.398438 77.484375 40.347656 77.605469 C 40.296875 77.726562 40.226562 77.832031 40.132812 77.925781 C 40.039062 78.019531 39.933594 78.089844 39.8125 78.140625 C 39.6875 78.191406 39.5625 78.21875 39.429688 78.21875 C 39.300781 78.21875 39.171875 78.191406 39.050781 78.140625 C 38.929688 78.089844 38.824219 78.019531 38.730469 77.925781 C 38.636719 77.832031 38.566406 77.726562 38.515625 77.605469 C 38.464844 77.484375 38.4375 77.355469 38.4375 77.226562 C 38.4375 77.09375 38.464844 76.964844 38.515625 76.84375 C 38.566406 76.722656 38.636719 76.617188 38.730469 76.523438 C 38.824219 76.429688 38.929688 76.359375 39.050781 76.308594 C 39.171875 76.257812 39.300781 76.230469 39.429688 76.230469 C 39.5625 76.230469 39.6875 76.257812 39.8125 76.308594 C 39.933594 76.359375 40.039062 76.429688 40.132812 76.523438 C 40.226562 76.617188 40.296875 76.722656 40.347656 76.84375 C 40.398438 76.964844 40.421875 77.09375 40.421875 77.226562 Z M 40.421875 77.226562 " fill-opacity="1" fill-rule="nonzero"/><path fill="#ffffff" d="M 11.421875 29.222656 C 11.421875 29.351562 11.398438 29.480469 11.347656 29.601562 C 11.296875 29.722656 11.226562 29.828125 11.132812 29.921875 C 11.039062 30.015625 10.933594 30.085938 10.808594 30.136719 C 10.6875 30.1875 10.5625 30.214844 10.429688 30.214844 C 10.300781 30.214844 10.171875 30.1875 10.050781 30.136719 C 9.929688 30.085938 9.824219 30.015625 9.730469 29.921875 C 9.636719 29.828125 9.566406 29.722656 9.515625 29.601562 C 9.464844 29.480469 9.4375 29.351562 9.4375 29.222656 C 9.4375 29.089844 9.464844 28.960938 9.515625 28.839844 C 9.566406 28.71875 9.636719 28.613281 9.730469 28.519531 C 9.824219 28.425781 9.929688 28.355469 10.050781 28.304688 C 10.171875 28.253906 10.300781 28.226562 10.429688 28.226562 C 10.5625 28.226562 10.6875 28.253906 10.808594 28.304688 C 10.933594 28.355469 11.039062 28.425781 11.132812 28.519531 C 11.226562 28.613281 11.296875 28.71875 11.347656 28.839844 C 11.398438 28.960938 11.421875 29.089844 11.421875 29.222656 Z M 11.421875 29.222656 " fill-opacity="1" fill-rule="nonzero"/><path fill="#ffffff" d="M 143.660156 118.953125 C 143.660156 119.085938 143.632812 119.210938 143.582031 119.335938 C 143.53125 119.457031 143.460938 119.5625 143.367188 119.65625 C 143.273438 119.75 143.167969 119.820312 143.046875 119.871094 C 142.925781 119.921875 142.796875 119.945312 142.667969 119.945312 C 142.535156 119.945312 142.410156 119.921875 142.289062 119.871094 C 142.164062 119.820312 142.058594 119.75 141.964844 119.65625 C 141.871094 119.5625 141.800781 119.457031 141.75 119.335938 C 141.699219 119.210938 141.675781 119.085938 141.675781 118.953125 C 141.675781 118.824219 141.699219 118.695312 141.75 118.574219 C 141.800781 118.453125 141.871094 118.34375 141.964844 118.253906 C 142.058594 118.160156 142.164062 118.085938 142.289062 118.039062 C 142.410156 117.988281 142.535156 117.960938 142.667969 117.960938 C 142.796875 117.960938 142.925781 117.988281 143.046875 118.039062 C 143.167969 118.085938 143.273438 118.160156 143.367188 118.253906 C 143.460938 118.34375 143.53125 118.453125 143.582031 118.574219 C 143.632812 118.695312 143.660156 118.824219 143.660156 118.953125 Z M 143.660156 118.953125 " fill-opacity="1" fill-rule="nonzero"/><path fill="#ffffff" d="M 130.3125 144.53125 C 130.3125 144.660156 130.285156 144.789062 130.234375 144.910156 C 130.1875 145.03125 130.113281 145.136719 130.019531 145.230469 C 129.929688 145.324219 129.820312 145.394531 129.699219 145.445312 C 129.578125 145.496094 129.453125 145.523438 129.320312 145.523438 C 129.1875 145.523438 129.0625 145.496094 128.941406 145.445312 C 128.820312 145.394531 128.710938 145.324219 128.617188 145.230469 C 128.527344 145.136719 128.453125 145.03125 128.402344 144.910156 C 128.355469 144.789062 128.328125 144.660156 128.328125 144.53125 C 128.328125 144.398438 128.355469 144.269531 128.402344 144.148438 C 128.453125 144.027344 128.527344 143.921875 128.617188 143.828125 C 128.710938 143.734375 128.820312 143.664062 128.941406 143.613281 C 129.0625 143.5625 129.1875 143.535156 129.320312 143.535156 C 129.453125 143.535156 129.578125 143.5625 129.699219 143.613281 C 129.820312 143.664062 129.929688 143.734375 130.019531 143.828125 C 130.113281 143.921875 130.1875 144.027344 130.234375 144.148438 C 130.285156 144.269531 130.3125 144.398438 130.3125 144.53125 Z M 130.3125 144.53125 " fill-opacity="1" fill-rule="nonzero"/><g clip-path="url(#8d296d7ec4)"><path fill="#ffffff" d="M 39.5 7.808594 C 39.5 7.9375 39.472656 8.066406 39.421875 8.1875 C 39.375 8.308594 39.300781 8.417969 39.207031 8.507812 C 39.117188 8.601562 39.007812 8.675781 38.886719 8.722656 C 38.765625 8.773438 38.640625 8.800781 38.507812 8.800781 C 38.375 8.800781 38.25 8.773438 38.128906 8.722656 C 38.007812 8.675781 37.898438 8.601562 37.804688 8.507812 C 37.714844 8.417969 37.640625 8.308594 37.589844 8.1875 C 37.542969 8.066406 37.515625 7.9375 37.515625 7.808594 C 37.515625 7.675781 37.542969 7.550781 37.589844 7.425781 C 37.640625 7.304688 37.714844 7.199219 37.804688 7.105469 C 37.898438 7.011719 38.007812 6.941406 38.128906 6.890625 C 38.25 6.839844 38.375 6.816406 38.507812 6.816406 C 38.640625 6.816406 38.765625 6.839844 38.886719 6.890625 C 39.007812 6.941406 39.117188 7.011719 39.207031 7.105469 C 39.300781 7.199219 39.375 7.304688 39.421875 7.425781 C 39.472656 7.550781 39.5 7.675781 39.5 7.808594 Z M 39.5 7.808594 " fill-opacity="1" fill-rule="nonzero"/></g><path fill="#ffffff" d="M 101.140625 130.53125 C 101.140625 130.664062 101.113281 130.792969 101.0625 130.914062 C 101.011719 131.035156 100.941406 131.140625 100.847656 131.234375 C 100.753906 131.328125 100.648438 131.398438 100.527344 131.449219 C 100.40625 131.5 100.277344 131.527344 100.148438 131.527344 C 100.015625 131.527344 99.890625 131.5 99.765625 131.449219 C 99.644531 131.398438 99.539062 131.328125 99.445312 131.234375 C 99.351562 131.140625 99.28125 131.035156 99.230469 130.914062 C 99.179688 130.792969 99.15625 130.664062 99.15625 130.53125 C 99.15625 130.402344 99.179688 130.273438 99.230469 130.152344 C 99.28125 130.03125 99.351562 129.925781 99.445312 129.832031 C 99.539062 129.738281 99.644531 129.667969 99.765625 129.617188 C 99.890625 129.566406 100.015625 129.539062 100.148438 129.539062 C 100.277344 129.539062 100.40625 129.566406 100.527344 129.617188 C 100.648438 129.667969 100.753906 129.738281 100.847656 129.832031 C 100.941406 129.925781 101.011719 130.03125 101.0625 130.152344 C 101.113281 130.273438 101.140625 130.402344 101.140625 130.53125 Z M 101.140625 130.53125 " fill-opacity="1" fill-rule="nonzero"/><g clip-path="url(#1a9b3a9f00)"><path fill="#ffffff" d="M 65.84375 148.222656 C 65.84375 148.355469 65.816406 148.480469 65.765625 148.601562 C 65.71875 148.722656 65.644531 148.832031 65.550781 148.925781 C 65.460938 149.015625 65.351562 149.089844 65.230469 149.140625 C 65.109375 149.1875 64.984375 149.214844 64.851562 149.214844 C 64.71875 149.214844 64.59375 149.1875 64.472656 149.140625 C 64.351562 149.089844 64.242188 149.015625 64.148438 148.925781 C 64.058594 148.832031 63.984375 148.722656 63.933594 148.601562 C 63.882812 148.480469 63.859375 148.355469 63.859375 148.222656 C 63.859375 148.089844 63.882812 147.964844 63.933594 147.84375 C 63.984375 147.71875 64.058594 147.613281 64.148438 147.519531 C 64.242188 147.425781 64.351562 147.355469 64.472656 147.304688 C 64.59375 147.253906 64.71875 147.230469 64.851562 147.230469 C 64.984375 147.230469 65.109375 147.253906 65.230469 147.304688 C 65.351562 147.355469 65.460938 147.425781 65.550781 147.519531 C 65.644531 147.613281 65.71875 147.71875 65.765625 147.84375 C 65.816406 147.964844 65.84375 148.089844 65.84375 148.222656 Z M 65.84375 148.222656 " fill-opacity="1" fill-rule="nonzero"/></g><path fill="#ffffff" d="M 34.359375 141.523438 C 34.359375 141.65625 34.332031 141.78125 34.285156 141.902344 C 34.234375 142.027344 34.160156 142.132812 34.070312 142.226562 C 33.976562 142.320312 33.867188 142.390625 33.746094 142.441406 C 33.625 142.492188 33.5 142.515625 33.367188 142.515625 C 33.234375 142.515625 33.109375 142.492188 32.988281 142.441406 C 32.867188 142.390625 32.757812 142.320312 32.664062 142.226562 C 32.574219 142.132812 32.5 142.027344 32.449219 141.902344 C 32.402344 141.78125 32.375 141.65625 32.375 141.523438 C 32.375 141.394531 32.402344 141.265625 32.449219 141.144531 C 32.5 141.023438 32.574219 140.914062 32.664062 140.824219 C 32.757812 140.730469 32.867188 140.65625 32.988281 140.605469 C 33.109375 140.558594 33.234375 140.53125 33.367188 140.53125 C 33.5 140.53125 33.625 140.558594 33.746094 140.605469 C 33.867188 140.65625 33.976562 140.730469 34.070312 140.824219 C 34.160156 140.914062 34.234375 141.023438 34.285156 141.144531 C 34.332031 141.265625 34.359375 141.394531 34.359375 141.523438 Z M 34.359375 141.523438 " fill-opacity="1" fill-rule="nonzero"/><g clip-path="url(#9f8eba002b)"><path fill="#ffffff" d="M 8.375 148.316406 C 8.375 148.449219 8.351562 148.574219 8.300781 148.699219 C 8.25 148.820312 8.175781 148.925781 8.085938 149.019531 C 7.992188 149.113281 7.882812 149.183594 7.761719 149.234375 C 7.640625 149.285156 7.515625 149.308594 7.382812 149.308594 C 7.25 149.308594 7.125 149.285156 7.003906 149.234375 C 6.882812 149.183594 6.773438 149.113281 6.683594 149.019531 C 6.589844 148.925781 6.515625 148.820312 6.46875 148.699219 C 6.417969 148.574219 6.390625 148.449219 6.390625 148.316406 C 6.390625 148.1875 6.417969 148.058594 6.46875 147.9375 C 6.515625 147.816406 6.589844 147.707031 6.683594 147.617188 C 6.773438 147.523438 6.882812 147.449219 7.003906 147.402344 C 7.125 147.351562 7.25 147.324219 7.382812 147.324219 C 7.515625 147.324219 7.640625 147.351562 7.761719 147.402344 C 7.882812 147.449219 7.992188 147.523438 8.085938 147.617188 C 8.175781 147.707031 8.25 147.816406 8.300781 147.9375 C 8.351562 148.058594 8.375 148.1875 8.375 148.316406 Z M 8.375 148.316406 " fill-opacity="1" fill-rule="nonzero"/></g><path fill="#539fe6" d="M 130.273438 107.625 C 130.273438 114.402344 128.433594 120.738281 125.222656 126.175781 C 118.871094 136.925781 107.175781 144.132812 93.800781 144.132812 C 81.402344 144.132812 70.445312 137.941406 63.855469 128.480469 C 60.851562 124.171875 58.753906 119.183594 57.839844 113.792969 C 57.5 111.789062 57.324219 109.730469 57.324219 107.625 C 57.324219 106.28125 57.394531 104.957031 57.535156 103.65625 C 59.515625 85.359375 74.992188 71.117188 93.800781 71.117188 C 100.710938 71.117188 107.171875 73.039062 112.679688 76.382812 C 120.910156 81.378906 127.015625 89.539062 129.292969 99.179688 C 129.9375 101.890625 130.273438 104.722656 130.273438 107.625 Z M 130.273438 107.625 " fill-opacity="1" fill-rule="nonzero"/><path fill="#4584bf" d="M 130.273438 107.625 C 130.273438 114.402344 128.433594 120.738281 125.222656 126.175781 C 124.542969 126.277344 123.847656 126.324219 123.140625 126.324219 C 115.269531 126.324219 108.886719 119.9375 108.886719 112.054688 C 108.886719 104.175781 115.269531 97.785156 123.140625 97.785156 C 125.34375 97.785156 127.433594 98.289062 129.292969 99.179688 C 129.9375 101.890625 130.273438 104.722656 130.273438 107.625 Z M 130.273438 107.625 " fill-opacity="1" fill-rule="nonzero"/><path fill="#4584bf" d="M 101.742188 98.628906 C 101.742188 99.152344 101.691406 99.667969 101.589844 100.179688 C 101.488281 100.691406 101.339844 101.1875 101.140625 101.671875 C 100.941406 102.152344 100.695312 102.613281 100.40625 103.046875 C 100.117188 103.480469 99.785156 103.882812 99.417969 104.25 C 99.046875 104.621094 98.648438 104.949219 98.214844 105.238281 C 97.78125 105.527344 97.324219 105.773438 96.839844 105.972656 C 96.359375 106.171875 95.863281 106.324219 95.351562 106.425781 C 94.839844 106.527344 94.324219 106.578125 93.800781 106.578125 C 93.28125 106.578125 92.761719 106.527344 92.25 106.425781 C 91.738281 106.324219 91.242188 106.171875 90.761719 105.972656 C 90.28125 105.773438 89.820312 105.527344 89.386719 105.238281 C 88.953125 104.949219 88.554688 104.621094 88.183594 104.25 C 87.816406 103.882812 87.488281 103.480469 87.195312 103.046875 C 86.90625 102.613281 86.664062 102.152344 86.464844 101.671875 C 86.261719 101.1875 86.113281 100.691406 86.011719 100.179688 C 85.910156 99.667969 85.859375 99.152344 85.859375 98.628906 C 85.859375 98.105469 85.910156 97.589844 86.011719 97.078125 C 86.113281 96.566406 86.261719 96.070312 86.464844 95.585938 C 86.664062 95.105469 86.90625 94.644531 87.195312 94.210938 C 87.488281 93.777344 87.816406 93.375 88.183594 93.007812 C 88.554688 92.636719 88.953125 92.308594 89.386719 92.019531 C 89.820312 91.730469 90.28125 91.484375 90.761719 91.285156 C 91.242188 91.085938 91.738281 90.933594 92.25 90.832031 C 92.761719 90.730469 93.28125 90.679688 93.800781 90.679688 C 94.324219 90.679688 94.839844 90.730469 95.351562 90.832031 C 95.863281 90.933594 96.359375 91.085938 96.839844 91.285156 C 97.324219 91.484375 97.78125 91.730469 98.214844 92.019531 C 98.648438 92.308594 99.046875 92.636719 99.417969 93.007812 C 99.785156 93.375 100.117188 93.777344 100.40625 94.210938 C 100.695312 94.644531 100.941406 95.105469 101.140625 95.585938 C 101.339844 96.070312 101.488281 96.566406 101.589844 97.078125 C 101.691406 97.589844 101.742188 98.105469 101.742188 98.628906 Z M 101.742188 98.628906 " fill-opacity="1" fill-rule="nonzero"/><path fill="#4584bf" d="M 69.230469 120.953125 C 69.230469 124.445312 66.984375 127.410156 63.855469 128.480469 C 60.851562 124.171875 58.753906 119.183594 57.839844 113.792969 C 58.882812 113.285156 60.050781 113.003906 61.285156 113.003906 C 65.679688 113.003906 69.230469 116.5625 69.230469 120.953125 Z M 69.230469 120.953125 " fill-opacity="1" fill-rule="nonzero"/><path fill="#4584bf" d="M 89.460938 124.453125 C 89.460938 124.933594 89.371094 125.394531 89.1875 125.835938 C 89.003906 126.277344 88.742188 126.667969 88.40625 127.003906 C 88.066406 127.34375 87.679688 127.601562 87.238281 127.785156 C 86.796875 127.96875 86.335938 128.0625 85.859375 128.0625 C 85.378906 128.0625 84.921875 127.96875 84.480469 127.785156 C 84.039062 127.601562 83.648438 127.34375 83.3125 127.003906 C 82.972656 126.667969 82.710938 126.277344 82.53125 125.835938 C 82.347656 125.394531 82.253906 124.933594 82.253906 124.453125 C 82.253906 123.976562 82.347656 123.515625 82.53125 123.074219 C 82.710938 122.632812 82.972656 122.242188 83.3125 121.90625 C 83.648438 121.566406 84.039062 121.304688 84.480469 121.121094 C 84.921875 120.941406 85.378906 120.847656 85.859375 120.847656 C 86.335938 120.847656 86.796875 120.941406 87.238281 121.121094 C 87.679688 121.304688 88.066406 121.566406 88.40625 121.90625 C 88.742188 122.242188 89.003906 122.632812 89.1875 123.074219 C 89.371094 123.515625 89.460938 123.976562 89.460938 124.453125 Z M 89.460938 124.453125 " fill-opacity="1" fill-rule="nonzero"/><path fill="#ffffff" d="M 91.945312 74.710938 C 98.855469 74.710938 105.316406 76.632812 110.824219 79.976562 C 121.367188 86.375 128.417969 97.972656 128.417969 111.21875 C 128.417969 117.382812 126.890625 123.191406 124.191406 128.289062 C 128.300781 122.378906 130.714844 115.199219 130.714844 107.453125 C 130.714844 94.207031 123.671875 82.605469 113.121094 76.210938 C 107.613281 72.867188 101.152344 70.945312 94.242188 70.945312 C 80.257812 70.945312 68.117188 78.824219 61.996094 90.382812 C 68.582031 80.90625 79.535156 74.710938 91.945312 74.710938 Z M 91.945312 74.710938 " fill-opacity="0.6" fill-rule="nonzero"/><path fill="#4f124c" d="M 112.683594 76.382812 C 112.640625 78.800781 112.054688 84.253906 107.820312 86.089844 C 102.316406 88.472656 101.4375 86.925781 101.4375 86.925781 C 101.4375 86.925781 100.703125 89.425781 93.804688 91.589844 C 86.910156 93.753906 87.6875 93.585938 84.875 95.433594 C 82.253906 97.152344 71.132812 111.960938 57.539062 103.65625 C 59.519531 85.359375 74.996094 71.117188 93.804688 71.117188 C 100.710938 71.117188 107.175781 73.042969 112.683594 76.382812 Z M 112.683594 76.382812 " fill-opacity="0.2" fill-rule="nonzero"/><path fill="#4f124c" d="M 124.976562 89.421875 C 125.257812 91.257812 125.40625 93.136719 125.40625 95.050781 C 125.40625 115.210938 109.078125 131.558594 88.933594 131.558594 C 75.578125 131.558594 63.894531 124.367188 57.539062 113.644531 C 60.246094 131.132812 75.355469 144.523438 93.582031 144.523438 C 113.726562 144.523438 130.058594 128.179688 130.058594 108.019531 C 130.0625 101.230469 128.207031 94.867188 124.976562 89.421875 Z M 124.976562 89.421875 " fill-opacity="0.2" fill-rule="nonzero"/><path fill="#4f124c" d="M 58.253906 96.355469 C 57.917969 96.355469 57.601562 96.164062 57.449219 95.839844 C 57.355469 95.628906 55.171875 90.675781 56.785156 86.980469 C 57.476562 85.402344 58.738281 84.296875 60.539062 83.691406 C 65.527344 82.015625 69.023438 86.972656 70.171875 89.824219 C 70.355469 90.273438 70.136719 90.789062 69.6875 90.96875 C 69.238281 91.152344 68.722656 90.933594 68.539062 90.484375 C 68.429688 90.210938 65.769531 83.792969 61.097656 85.359375 C 59.773438 85.808594 58.890625 86.5625 58.402344 87.683594 C 57.09375 90.65625 59.039062 95.074219 59.054688 95.113281 C 59.253906 95.558594 59.054688 96.078125 58.609375 96.28125 C 58.5 96.335938 58.378906 96.355469 58.253906 96.355469 Z M 58.253906 96.355469 " fill-opacity="1" fill-rule="nonzero"/><path fill="#4f124c" d="M 93.800781 145.015625 C 73.203125 145.015625 56.445312 128.242188 56.445312 107.625 C 56.445312 87.007812 73.203125 70.238281 93.800781 70.238281 C 114.398438 70.238281 131.15625 87.015625 131.15625 107.628906 C 131.15625 128.246094 114.398438 145.015625 93.800781 145.015625 Z M 93.800781 72.003906 C 74.171875 72.003906 58.203125 87.984375 58.203125 107.628906 C 58.203125 127.277344 74.171875 143.257812 93.800781 143.257812 C 113.429688 143.257812 129.398438 127.277344 129.398438 107.628906 C 129.398438 87.984375 113.429688 72.003906 93.800781 72.003906 Z M 93.800781 72.003906 " fill-opacity="1" fill-rule="nonzero"/><path fill="#ffce00" d="M 129.636719 101.5625 C 121.722656 107.894531 110.386719 114.695312 97.242188 120.628906 C 85.992188 125.707031 75.140625 129.367188 65.992188 131.410156 C 52.601562 134.402344 42.847656 133.929688 40.792969 129.363281 C 38.65625 124.628906 45.304688 116.601562 57.199219 108.203125 C 57.230469 110.203125 57.421875 112.160156 57.757812 114.070312 C 51.328125 118.425781 47.78125 121.996094 48.597656 123.800781 C 49.371094 125.511719 53.953125 125.328125 60.878906 123.636719 C 68.980469 121.65625 80.28125 117.605469 92.425781 112.125 C 107.996094 105.097656 120.878906 97.550781 126.800781 92.332031 C 129.449219 90 130.707031 88.128906 130.1875 86.976562 C 129.632812 85.742188 127.089844 85.492188 123.125 86.085938 C 121.890625 84.40625 120.523438 82.835938 119.03125 81.386719 C 130.824219 79.132812 139.269531 79.867188 141.160156 84.074219 C 142.976562 88.105469 138.410156 94.542969 129.636719 101.5625 Z M 129.636719 101.5625 " fill-opacity="1" fill-rule="nonzero"/><g mask="url(#a69ec17c3a)"><g transform="matrix(1, 0, 0, 1, 44, 79)"><g clip-path="url(#0c6153e76b)"><g clip-path="url(#5b5466d1b9)"><path fill="#ffffff" d="M 76.953125 4.800781 C 87.992188 3.109375 94.855469 4.414062 96.707031 8.320312 C 96.847656 8.613281 96.949219 8.929688 97.015625 9.246094 C 97.183594 8.195312 96.851562 5.53125 96.464844 4.675781 C 94.566406 0.46875 86.128906 -0.265625 74.335938 1.988281 C 74.839844 2.476562 76.480469 4.285156 76.953125 4.800781 Z M 76.953125 4.800781 " fill-opacity="1" fill-rule="nonzero"/></g><g clip-path="url(#c4fde42aa6)"><path fill="#ffffff" d="M 1.191406 45.933594 C 1.980469 47.660156 4.632812 48.1875 11.976562 47.695312 C 20.714844 47.105469 33.339844 42.859375 46.132812 37.378906 C 62.535156 30.351562 75.855469 21.699219 82.089844 16.476562 C 84.675781 14.320312 86.167969 10.960938 85.914062 9.796875 C 85.339844 10.703125 84.128906 12.152344 82.796875 13.332031 C 76.871094 18.554688 63.988281 26.097656 48.421875 33.125 C 36.277344 38.605469 24.972656 42.648438 16.875 44.636719 C 9.953125 46.328125 5.367188 46.515625 4.59375 44.800781 C 3.777344 42.996094 7.328125 39.425781 13.753906 35.070312 C 13.417969 33.160156 13.222656 31.203125 13.195312 29.203125 C 11.625 30.3125 -0.820312 41.542969 1.191406 45.933594 Z M 1.191406 45.933594 " fill-opacity="1" fill-rule="nonzero"/></g></g></g></g><path fill="#4f124c" d="M 130.300781 97.445312 C 122.386719 103.777344 111.050781 110.582031 97.90625 116.515625 C 86.65625 121.589844 75.804688 125.25 66.65625 127.296875 C 53.265625 130.289062 43.511719 129.8125 41.457031 125.246094 C 41.324219 124.957031 41.226562 124.648438 41.160156 124.335938 C 40.304688 126.28125 40.148438 128.007812 40.796875 129.429688 C 42.851562 133.996094 52.609375 134.472656 65.996094 131.480469 C 75.144531 129.4375 85.996094 125.773438 97.246094 120.699219 C 110.390625 114.765625 121.726562 107.957031 129.644531 101.628906 C 137.777344 95.125 142.292969 89.113281 141.449219 85.050781 C 139.882812 88.613281 135.976562 92.90625 130.300781 97.445312 Z M 130.300781 97.445312 " fill-opacity="0.2" fill-rule="nonzero"/><path fill="#4f124c" d="M 51.429688 134.179688 C 50.601562 134.179688 49.820312 134.152344 49.078125 134.097656 C 44.199219 133.746094 41.136719 132.273438 39.992188 129.722656 C 37.71875 124.683594 43.808594 116.574219 56.695312 107.480469 C 56.964844 107.292969 57.308594 107.265625 57.601562 107.417969 C 57.890625 107.5625 58.078125 107.863281 58.082031 108.1875 C 58.113281 110.101562 58.296875 112.027344 58.628906 113.910156 C 58.6875 114.25 58.542969 114.597656 58.253906 114.792969 C 50.53125 120.023438 49.085938 122.734375 49.398438 123.429688 C 49.433594 123.507812 50.367188 125.292969 60.664062 122.769531 C 69.007812 120.730469 80.449219 116.554688 92.0625 111.3125 C 107.058594 104.546875 120.140625 97.015625 126.214844 91.664062 C 129.773438 88.527344 129.429688 87.445312 129.378906 87.332031 C 129.175781 86.882812 127.65625 86.289062 123.246094 86.949219 C 122.925781 87 122.601562 86.863281 122.40625 86.597656 C 121.214844 84.972656 119.871094 83.429688 118.40625 82.011719 C 118.171875 81.78125 118.082031 81.441406 118.175781 81.125 C 118.269531 80.8125 118.53125 80.574219 118.851562 80.511719 C 131.71875 78.054688 139.917969 79.1875 141.953125 83.703125 C 143.902344 88.027344 139.722656 94.613281 130.183594 102.246094 C 121.90625 108.867188 110.332031 115.679688 97.59375 121.429688 C 86.621094 126.378906 75.757812 130.132812 66.175781 132.269531 C 60.546875 133.527344 55.507812 134.179688 51.429688 134.179688 Z M 56.375 109.871094 C 45.46875 117.8125 39.828125 125.078125 41.59375 129 C 43.347656 132.902344 52.625 133.492188 65.800781 130.550781 C 75.269531 128.4375 86.011719 124.726562 96.882812 119.828125 C 109.484375 114.140625 120.925781 107.40625 129.09375 100.875 C 137.6875 94 141.898438 87.851562 140.355469 84.433594 C 138.8125 81.011719 131.566406 80.113281 120.824219 81.957031 C 121.777344 82.972656 122.679688 84.035156 123.511719 85.136719 C 127.886719 84.546875 130.265625 85.019531 130.984375 86.613281 C 131.6875 88.175781 130.539062 90.203125 127.378906 92.992188 C 121.183594 98.457031 107.925781 106.097656 92.785156 112.929688 C 81.082031 118.210938 69.527344 122.429688 61.085938 124.492188 C 57.507812 125.363281 54.601562 125.828125 52.445312 125.875 C 49.863281 125.929688 48.339844 125.371094 47.792969 124.164062 C 47.222656 122.90625 47.886719 121.308594 49.824219 119.285156 C 51.371094 117.671875 53.714844 115.78125 56.800781 113.664062 C 56.59375 112.40625 56.453125 111.140625 56.375 109.871094 Z M 56.375 109.871094 " fill-opacity="1" fill-rule="nonzero"/><path fill="#4f124c" d="M 58.863281 86.652344 C 58.378906 86.652344 57.980469 86.257812 57.980469 85.769531 C 57.988281 80.753906 56.097656 79.234375 56.082031 79.21875 C 55.683594 78.9375 55.597656 78.390625 55.886719 77.996094 C 56.167969 77.597656 56.722656 77.511719 57.121094 77.792969 C 57.390625 77.984375 59.757812 79.847656 59.746094 85.777344 C 59.742188 86.261719 59.351562 86.652344 58.863281 86.652344 Z M 58.863281 86.652344 " fill-opacity="1" fill-rule="nonzero"/><path fill="#ffffff" d="M 96.011719 54.765625 C 95.035156 54.710938 93.9375 54.667969 92.773438 54.648438 C 92.757812 54.65625 92.746094 54.65625 92.730469 54.648438 C 92.550781 54.644531 92.367188 54.644531 92.183594 54.640625 C 91.609375 54.636719 91.015625 54.636719 90.414062 54.648438 C 90.117188 54.65625 89.816406 54.660156 89.519531 54.667969 C 83.820312 54.835938 77.464844 55.765625 74.613281 58.773438 C 74.523438 58.871094 74.4375 58.964844 74.355469 59.0625 C 74.125 59.328125 73.925781 59.597656 73.753906 59.890625 C 73.753906 59.890625 73.265625 60.746094 72.628906 62.148438 C 72.105469 63.304688 71.480469 64.835938 70.945312 66.566406 C 70.929688 66.5625 70.910156 66.5625 70.898438 66.5625 C 69.96875 66.476562 69.96875 66.625 67.996094 66.683594 L 67.960938 66.683594 C 68.078125 66.953125 68.140625 67.125 68.140625 67.125 C 68.140625 67.125 68.75 68.402344 68.78125 70.136719 C 68.816406 71.769531 68.34375 73.808594 66.382812 75.582031 C 66.371094 75.59375 66.355469 75.609375 66.339844 75.621094 L 64.851562 76.058594 L 61.710938 76.984375 C 61.695312 76.980469 61.675781 76.980469 61.65625 76.972656 C 58.386719 76.445312 55.363281 73.3125 55.777344 69.21875 C 55.796875 68.992188 55.835938 68.753906 55.878906 68.523438 C 57.125 62.0625 62.558594 63.601562 62.558594 63.601562 C 63.613281 62.703125 64.570312 62.746094 65.375 63.214844 C 65.929688 62.410156 66.839844 61.417969 67.65625 60.578125 C 68.609375 59.609375 69.441406 58.847656 69.441406 58.847656 C 82.050781 47.222656 95.9375 54.699219 95.9375 54.699219 C 95.964844 54.722656 95.988281 54.742188 96.011719 54.765625 Z M 96.011719 54.765625 " fill-opacity="1" fill-rule="nonzero"/><path fill="#4f124c" d="M 66.386719 75.585938 C 66.375 75.597656 66.363281 75.613281 66.34375 75.625 L 64.855469 76.0625 L 61.71875 76.988281 C 61.699219 76.984375 61.679688 76.984375 61.664062 76.980469 C 58.390625 76.449219 55.367188 73.316406 55.78125 69.226562 C 56.847656 70.871094 58.816406 72.777344 62.171875 72.777344 C 65.316406 72.777344 67.457031 71.414062 68.777344 70.140625 C 68.816406 71.773438 68.34375 73.8125 66.386719 75.585938 Z M 66.386719 75.585938 " fill-opacity="0.2" fill-rule="nonzero"/><path fill="#e32b2b" d="M 71.597656 65.542969 C 71.589844 65.542969 71.574219 65.542969 71.566406 65.542969 C 67.683594 65.40625 65.886719 62.1875 65.816406 62.050781 C 65.582031 61.621094 65.738281 61.082031 66.164062 60.851562 C 66.59375 60.621094 67.125 60.773438 67.359375 61.203125 C 67.417969 61.3125 68.773438 63.679688 71.625 63.777344 C 72.113281 63.796875 72.488281 64.203125 72.476562 64.691406 C 72.457031 65.167969 72.070312 65.542969 71.597656 65.542969 Z M 71.597656 65.542969 " fill-opacity="1" fill-rule="nonzero"/><path fill="#ffffff" d="M 110.046875 75.472656 C 110.15625 86.492188 100.441406 83.734375 100.441406 83.734375 C 97.882812 88.914062 87.816406 90.015625 83.742188 92.109375 C 79.671875 94.203125 72.296875 101.359375 66.792969 101.910156 C 61.289062 102.460938 58.320312 95.410156 58.320312 95.410156 C 54.796875 96.402344 51.054688 93.316406 48.523438 88.582031 C 47.992188 87.585938 47.664062 86.554688 47.496094 85.53125 C 46.859375 81.648438 48.574219 77.878906 50.835938 76.988281 C 53.695312 75.859375 56.667969 78.445312 56.667969 78.445312 L 61.671875 76.972656 L 66.394531 75.585938 L 69.765625 74.59375 C 69.589844 71.851562 70.15625 69.015625 70.902344 66.570312 C 71.433594 64.84375 72.050781 63.308594 72.578125 62.144531 C 73.226562 60.710938 73.730469 59.832031 73.730469 59.832031 C 76.011719 55.960938 83.1875 54.847656 89.53125 54.671875 C 89.828125 54.664062 90.128906 54.660156 90.421875 54.65625 C 91.023438 54.644531 91.613281 54.644531 92.191406 54.644531 C 92.378906 54.648438 92.558594 54.648438 92.742188 54.65625 C 92.753906 54.660156 92.769531 54.660156 92.78125 54.65625 C 93.972656 54.671875 95.089844 54.71875 96.074219 54.773438 C 98.695312 54.914062 100.449219 55.128906 100.449219 55.128906 C 100.625 55.132812 100.835938 55.136719 101.070312 55.140625 C 102.945312 55.195312 106.496094 55.382812 108.191406 56.261719 C 108.523438 56.433594 108.785156 56.628906 108.945312 56.859375 C 110.046875 58.398438 109.9375 64.457031 110.046875 75.472656 Z M 110.046875 75.472656 " fill-opacity="1" fill-rule="nonzero"/><path fill="#4f124c" d="M 110.046875 75.472656 C 110.15625 86.492188 100.441406 83.734375 100.441406 83.734375 C 97.882812 88.914062 87.816406 90.015625 83.742188 92.109375 C 79.671875 94.203125 72.296875 101.359375 66.792969 101.910156 C 61.289062 102.460938 58.320312 95.410156 58.320312 95.410156 C 54.796875 96.402344 51.054688 93.316406 48.523438 88.582031 C 47.992188 87.585938 47.664062 86.554688 47.496094 85.53125 L 47.605469 85.046875 C 50.855469 93.964844 54.847656 89.421875 54.847656 89.421875 C 55.039062 92.945312 57.28125 92.164062 57.28125 92.164062 C 62.136719 101.878906 66.644531 94.523438 66.644531 94.523438 C 69.554688 98.519531 76.351562 91.992188 79.789062 89.855469 C 83.230469 87.71875 87.652344 86.558594 93.816406 85.050781 C 99.972656 83.542969 101.367188 80.128906 101.367188 80.128906 C 101.367188 80.128906 101.15625 81.058594 104.824219 80.128906 C 108.496094 79.199219 108.199219 75.265625 108.199219 75.265625 L 108.199219 56.257812 C 108.53125 56.429688 108.792969 56.625 108.953125 56.855469 C 110.046875 58.398438 109.9375 64.457031 110.046875 75.472656 Z M 110.046875 75.472656 " fill-opacity="0.2" fill-rule="nonzero"/><path fill="#d4d4d4" d="M 63.796875 101.933594 C 63.792969 101.929688 63.785156 101.929688 63.78125 101.929688 C 63.421875 101.773438 63.078125 101.585938 62.75 101.378906 C 59.875 99.527344 58.355469 95.921875 58.355469 95.921875 C 58.355469 95.921875 55.933594 89.289062 58.679688 85.902344 L 58.679688 85.898438 C 58.902344 85.621094 59.164062 85.359375 59.464844 85.132812 C 59.464844 85.132812 59.46875 85.128906 59.472656 85.128906 C 59.675781 85.027344 64.222656 82.789062 65.984375 92.03125 C 67.679688 100.9375 65.722656 102.570312 63.796875 101.933594 Z M 63.796875 101.933594 " fill-opacity="1" fill-rule="nonzero"/><path fill="#d4d4d4" d="M 51.734375 94.003906 C 51.695312 93.972656 51.671875 93.949219 51.671875 93.949219 C 50.390625 92.773438 49.289062 91.140625 48.5625 89.082031 C 46.480469 83.207031 47.769531 79.269531 50.226562 77.808594 C 50.226562 77.808594 50.226562 77.808594 50.230469 77.804688 C 50.347656 77.738281 53.722656 76.003906 54.652344 85.894531 C 55.675781 96.859375 52.242188 94.417969 51.734375 94.003906 Z M 51.734375 94.003906 " fill-opacity="1" fill-rule="nonzero"/><path fill="#e32b2b" d="M 85.007812 92.472656 C 85.003906 92.472656 85 92.472656 85 92.472656 C 84.511719 92.46875 84.125 92.066406 84.128906 91.582031 C 84.207031 85.429688 81.496094 82.78125 81.464844 82.753906 C 81.113281 82.417969 81.097656 81.859375 81.429688 81.507812 C 81.761719 81.152344 82.308594 81.136719 82.664062 81.464844 C 82.800781 81.589844 85.976562 84.609375 85.890625 91.605469 C 85.882812 92.085938 85.488281 92.472656 85.007812 92.472656 Z M 85.007812 92.472656 " fill-opacity="1" fill-rule="nonzero"/><path fill="#4f124c" d="M 62.527344 77.929688 C 61.285156 77.929688 60 77.589844 58.808594 76.898438 C 55.792969 75.148438 54.269531 71.792969 54.933594 68.355469 C 55.382812 66.023438 56.394531 64.363281 57.9375 63.410156 C 59.613281 62.375 61.429688 62.511719 62.261719 62.65625 C 63.328125 61.914062 64.28125 61.933594 64.917969 62.109375 C 67.289062 62.746094 68.660156 66.214844 68.867188 66.785156 C 69.773438 68.71875 70.464844 73.152344 66.722656 76.386719 C 65.535156 77.410156 64.058594 77.929688 62.527344 77.929688 Z M 61.101562 64.324219 C 60.453125 64.324219 59.613281 64.445312 58.847656 64.921875 C 57.75 65.605469 57.019531 66.871094 56.667969 68.6875 C 56.035156 71.957031 57.90625 74.328125 59.695312 75.367188 C 61.289062 76.292969 63.671875 76.691406 65.574219 75.046875 C 69.25 71.875 67.34375 67.675781 67.261719 67.5 C 67.253906 67.476562 67.238281 67.449219 67.230469 67.421875 C 66.929688 66.597656 65.777344 64.15625 64.464844 63.804688 C 64.300781 63.765625 63.804688 63.628906 63.050781 64.269531 C 62.828125 64.460938 62.523438 64.527344 62.238281 64.445312 C 62.226562 64.449219 61.761719 64.324219 61.101562 64.324219 Z M 61.101562 64.324219 " fill-opacity="1" fill-rule="nonzero"/><path fill="#4f124c" d="M 66.105469 102.890625 C 61.460938 102.890625 58.664062 98.265625 57.765625 96.488281 C 57.394531 96.546875 57.023438 96.582031 56.652344 96.582031 C 52.941406 96.582031 49.273438 93.585938 47.632812 88.941406 C 45.144531 81.910156 47.253906 77.492188 50.453125 76.230469 C 53.144531 75.171875 55.8125 76.816406 56.792969 77.539062 L 68.800781 74.003906 C 68.652344 66.988281 72.726562 59.773438 72.90625 59.457031 C 72.90625 59.453125 72.910156 59.453125 72.910156 59.449219 C 77.460938 51.71875 99.003906 54.140625 100.449219 54.3125 C 107.40625 54.445312 109.007812 55.574219 109.609375 56.414062 C 110.6875 57.925781 110.765625 61.914062 110.84375 71.582031 C 110.851562 72.820312 110.859375 74.136719 110.878906 75.535156 C 110.914062 79.242188 109.890625 81.917969 107.839844 83.488281 C 105.386719 85.359375 102.222656 85.0625 100.84375 84.808594 C 98.636719 88.316406 93.320312 89.929688 88.996094 91.234375 C 87.082031 91.8125 85.277344 92.363281 84.097656 92.964844 C 82.792969 93.632812 81.046875 94.917969 79.191406 96.273438 C 75.222656 99.179688 70.722656 102.476562 66.828125 102.863281 C 66.574219 102.878906 66.339844 102.890625 66.105469 102.890625 Z M 58.253906 94.59375 C 58.601562 94.59375 58.921875 94.800781 59.066406 95.132812 C 59.09375 95.195312 61.859375 101.574219 66.644531 101.097656 C 70.058594 100.753906 74.539062 97.472656 78.140625 94.839844 C 80.132812 93.378906 81.851562 92.121094 83.277344 91.386719 C 84.597656 90.707031 86.480469 90.136719 88.472656 89.535156 C 92.714844 88.253906 97.984375 86.660156 99.597656 83.40625 C 99.78125 83.027344 100.214844 82.835938 100.625 82.953125 C 100.660156 82.960938 104.324219 83.953125 106.769531 82.074219 C 108.355469 80.859375 109.140625 78.664062 109.109375 75.542969 C 109.09375 74.148438 109.085938 72.828125 109.074219 71.585938 C 109.011719 64.019531 108.96875 58.546875 108.171875 57.425781 C 108.027344 57.222656 106.957031 56.1875 100.371094 56.066406 C 100.339844 56.066406 100.3125 56.0625 100.277344 56.0625 C 94.222656 55.324219 77.78125 54.660156 74.429688 60.332031 C 74.304688 60.554688 70.171875 67.96875 70.585938 74.597656 C 70.613281 75.007812 70.351562 75.378906 69.957031 75.5 L 56.859375 79.355469 C 56.570312 79.441406 56.257812 79.375 56.03125 79.171875 C 56.007812 79.152344 53.417969 76.957031 51.097656 77.871094 C 48.691406 78.816406 47.199219 82.429688 49.292969 88.347656 C 51.117188 93.507812 55.152344 95.433594 58.023438 94.621094 C 58.097656 94.609375 58.175781 94.59375 58.253906 94.59375 Z M 58.253906 94.59375 " fill-opacity="1" fill-rule="nonzero"/><path fill="#4f124c" d="M 100.382812 84.683594 C 100.289062 84.683594 100.191406 84.667969 100.101562 84.636719 C 99.640625 84.480469 99.390625 83.980469 99.550781 83.523438 C 99.613281 83.332031 105.960938 64.105469 95.375 55.453125 C 94.875 55.199219 91.644531 53.648438 87.195312 53.296875 C 80.78125 52.789062 74.976562 54.878906 69.960938 59.503906 C 69.929688 59.53125 67.148438 62.082031 66.019531 63.71875 C 65.742188 64.121094 65.195312 64.222656 64.796875 63.949219 C 64.394531 63.667969 64.296875 63.125 64.570312 62.722656 C 65.8125 60.914062 68.648438 58.316406 68.769531 58.207031 C 75.515625 51.988281 82.628906 51.152344 87.410156 51.542969 C 92.582031 51.972656 96.125 53.851562 96.277344 53.929688 C 96.324219 53.957031 96.371094 53.984375 96.414062 54.023438 C 101.257812 57.9375 103.617188 64.402344 103.242188 72.71875 C 102.957031 78.90625 101.292969 83.875 101.21875 84.085938 C 101.09375 84.449219 100.753906 84.683594 100.382812 84.683594 Z M 100.382812 84.683594 " fill-opacity="1" fill-rule="nonzero"/><path fill="#ffffff" d="M 85.011719 72.1875 C 86.300781 69.921875 91.445312 75.46875 97.320312 74.589844 C 103.199219 73.707031 105.289062 69.523438 106.503906 71.117188 C 107.714844 72.710938 106.285156 78.511719 97.320312 79.65625 C 88.683594 80.757812 83.992188 73.976562 85.011719 72.1875 Z M 85.011719 72.1875 " fill-opacity="1" fill-rule="nonzero"/><path fill="#4f124c" d="M 97.464844 77.023438 C 91.34375 77.804688 87.214844 74.632812 85.679688 72.078125 C 85.46875 72.160156 85.289062 72.3125 85.152344 72.542969 C 84.140625 74.332031 88.824219 81.113281 97.464844 80.011719 C 106.367188 78.878906 107.835938 73.144531 106.660156 71.507812 C 105.785156 73.714844 103.132812 76.300781 97.464844 77.023438 Z M 97.464844 77.023438 " fill-opacity="0.2" fill-rule="nonzero"/><path fill="#4f124c" d="M 95.457031 80.570312 C 90.359375 80.570312 86.726562 77.941406 85.066406 75.457031 C 84.09375 74.003906 83.820312 72.671875 84.316406 71.792969 C 85.285156 70.089844 87.292969 71.003906 89.414062 71.980469 C 91.609375 72.980469 94.332031 74.230469 97.203125 73.800781 C 100.152344 73.359375 102.070312 72.046875 103.476562 71.085938 C 104.773438 70.203125 106.109375 69.289062 107.132812 70.636719 C 107.808594 71.523438 107.839844 73.054688 107.222656 74.539062 C 106.601562 76.019531 104.40625 79.550781 97.421875 80.445312 C 96.746094 80.53125 96.089844 80.570312 95.457031 80.570312 Z M 86.035156 72.4375 C 85.871094 72.4375 85.757812 72.480469 85.699219 72.582031 C 85.609375 72.746094 85.648438 73.472656 86.386719 74.570312 C 87.820312 76.710938 90.976562 78.976562 95.453125 78.976562 C 96.019531 78.976562 96.609375 78.941406 97.21875 78.863281 C 103.375 78.074219 105.234375 75.148438 105.746094 73.921875 C 106.238281 72.753906 106.082031 71.894531 105.859375 71.601562 C 105.84375 71.578125 105.832031 71.566406 105.824219 71.554688 C 105.578125 71.574219 104.882812 72.050781 104.367188 72.402344 C 102.921875 73.390625 100.742188 74.878906 97.4375 75.375 C 94.101562 75.875 91.007812 74.460938 88.75 73.433594 C 87.6875 72.941406 86.59375 72.4375 86.035156 72.4375 Z M 85.011719 72.1875 Z M 85.011719 72.1875 " fill-opacity="1" fill-rule="nonzero"/><path fill="#ffffff" d="M 93.101562 60.253906 C 98.109375 63.070312 94.539062 80.050781 82.066406 82.109375 C 69.589844 84.167969 64.304688 77.425781 64.304688 74.179688 C 64.304688 69.53125 63.351562 69.328125 63.9375 67.863281 C 64.523438 66.398438 65.796875 66.753906 67.898438 66.6875 C 70.390625 66.617188 69.730469 66.398438 71.789062 66.6875 C 73.84375 66.980469 78.984375 69.921875 78.984375 69.921875 C 78.984375 69.921875 87.40625 57.054688 93.101562 60.253906 Z M 93.101562 60.253906 " fill-opacity="1" fill-rule="nonzero"/><path fill="#4f124c" d="M 94.40625 61.597656 C 94.339844 67.691406 89.972656 76.542969 81.1875 77.988281 C 71.546875 79.578125 66.203125 75.917969 64.273438 72.671875 C 64.296875 73.117188 64.308594 73.613281 64.308594 74.183594 C 64.308594 77.433594 69.589844 84.171875 82.070312 82.113281 C 93.21875 80.269531 97.25 66.507812 94.40625 61.597656 Z M 94.40625 61.597656 " fill-opacity="0.2" fill-rule="nonzero"/><path fill="#e32b2b" d="M 89.578125 77.378906 C 86.78125 77.378906 84.160156 76.195312 81.910156 73.894531 C 79.847656 71.792969 78.832031 69.503906 78.785156 69.402344 C 78.589844 68.957031 78.789062 68.4375 79.234375 68.242188 C 79.679688 68.046875 80.199219 68.246094 80.394531 68.691406 C 80.546875 69.027344 84.113281 76.886719 91.292969 75.441406 C 91.773438 75.34375 92.234375 75.652344 92.332031 76.132812 C 92.425781 76.609375 92.117188 77.074219 91.640625 77.171875 C 90.949219 77.304688 90.257812 77.378906 89.578125 77.378906 Z M 89.578125 77.378906 " fill-opacity="1" fill-rule="nonzero"/><path fill="#4f124c" d="M 77.625 83.371094 C 71.792969 83.371094 68.328125 81.28125 66.628906 79.84375 C 64.65625 78.164062 63.425781 75.996094 63.425781 74.179688 C 63.425781 71.90625 63.191406 70.738281 63.03125 69.96875 C 62.859375 69.121094 62.734375 68.503906 63.121094 67.535156 C 63.824219 65.789062 65.335938 65.800781 66.800781 65.808594 C 67.144531 65.816406 67.492188 65.816406 67.875 65.804688 C 68.761719 65.777344 69.238281 65.734375 69.578125 65.699219 C 70.289062 65.632812 70.574219 65.625 71.910156 65.816406 C 73.667969 66.066406 77.164062 67.910156 78.710938 68.753906 C 80.628906 66.023438 87.941406 56.351562 93.527344 59.484375 C 95.738281 60.730469 96.652344 64.113281 95.910156 68.3125 C 94.792969 74.675781 90.121094 81.671875 82.207031 82.980469 C 80.539062 83.253906 79.015625 83.371094 77.625 83.371094 Z M 66.476562 67.570312 C 65.183594 67.570312 64.96875 67.667969 64.761719 68.191406 C 64.570312 68.667969 64.609375 68.871094 64.761719 69.617188 C 64.933594 70.457031 65.1875 71.730469 65.1875 74.179688 C 65.1875 75.238281 65.988281 76.984375 67.773438 78.5 C 69.640625 80.089844 73.960938 82.550781 81.921875 81.242188 C 88.992188 80.074219 93.171875 73.753906 94.183594 68.007812 C 94.769531 64.667969 94.160156 61.863281 92.671875 61.023438 C 88.589844 58.730469 81.945312 67.015625 79.730469 70.398438 C 79.476562 70.792969 78.960938 70.914062 78.558594 70.683594 C 77.164062 69.890625 73.222656 67.777344 71.675781 67.558594 C 70.476562 67.386719 70.324219 67.402344 69.753906 67.457031 C 69.386719 67.496094 68.882812 67.539062 67.933594 67.566406 C 67.519531 67.582031 67.132812 67.578125 66.796875 67.570312 C 66.679688 67.570312 66.574219 67.570312 66.476562 67.570312 Z M 66.476562 67.570312 " fill-opacity="1" fill-rule="nonzero"/><path fill="#4f124c" d="M 57.425781 95.777344 C 57.324219 95.476562 57.242188 95.21875 57.160156 94.9375 C 57.078125 94.660156 57.003906 94.386719 56.9375 94.109375 C 56.800781 93.550781 56.6875 92.988281 56.59375 92.417969 C 56.421875 91.28125 56.328125 90.113281 56.429688 88.921875 C 56.484375 88.324219 56.578125 87.722656 56.753906 87.128906 C 56.929688 86.53125 57.179688 85.949219 57.53125 85.402344 C 58.222656 84.304688 59.359375 83.472656 60.546875 83.089844 L 60.992188 82.945312 L 61.445312 82.839844 C 61.59375 82.796875 61.75 82.78125 61.902344 82.757812 C 62.058594 82.734375 62.210938 82.707031 62.371094 82.703125 C 63 82.644531 63.648438 82.6875 64.285156 82.835938 C 64.917969 82.980469 65.535156 83.234375 66.078125 83.570312 C 66.628906 83.910156 67.113281 84.332031 67.519531 84.796875 C 68.339844 85.730469 68.890625 86.816406 69.246094 87.929688 C 69.421875 88.488281 69.550781 89.058594 69.621094 89.632812 C 69.664062 89.917969 69.6875 90.210938 69.691406 90.5 C 69.699219 90.792969 69.691406 91.089844 69.640625 91.390625 C 69.613281 91.554688 69.464844 91.664062 69.300781 91.640625 C 69.1875 91.621094 69.101562 91.542969 69.0625 91.441406 L 69.054688 91.417969 C 68.71875 90.425781 68.28125 89.4375 67.800781 88.527344 C 67.316406 87.609375 66.769531 86.753906 66.121094 86.054688 C 65.472656 85.351562 64.726562 84.800781 63.859375 84.574219 C 63 84.335938 62.015625 84.449219 61.117188 84.753906 L 60.949219 84.808594 L 60.789062 84.882812 C 60.683594 84.933594 60.574219 84.972656 60.476562 85.023438 C 60.28125 85.144531 60.078125 85.242188 59.90625 85.386719 C 59.550781 85.65625 59.238281 85.976562 59 86.363281 C 58.515625 87.125 58.253906 88.078125 58.171875 89.078125 C 58.082031 90.074219 58.164062 91.117188 58.320312 92.144531 C 58.402344 92.660156 58.503906 93.175781 58.632812 93.6875 C 58.695312 93.945312 58.765625 94.199219 58.835938 94.449219 C 58.910156 94.695312 58.992188 94.960938 59.070312 95.179688 L 59.074219 95.195312 C 59.238281 95.65625 58.996094 96.15625 58.535156 96.320312 C 58.089844 96.480469 57.589844 96.238281 57.425781 95.777344 Z M 57.425781 95.777344 " fill-opacity="1" fill-rule="nonzero"/><path fill="#4f124c" d="M 57.28125 77.945312 L 57.390625 78.054688 C 57.421875 78.089844 57.453125 78.117188 57.480469 78.152344 C 57.539062 78.222656 57.601562 78.285156 57.648438 78.355469 C 57.757812 78.492188 57.855469 78.628906 57.949219 78.769531 C 58.136719 79.050781 58.296875 79.351562 58.433594 79.65625 C 58.5 79.8125 58.5625 79.964844 58.625 80.121094 C 58.679688 80.28125 58.734375 80.4375 58.78125 80.597656 C 58.867188 80.921875 58.945312 81.25 59 81.578125 C 59.113281 82.234375 59.15625 82.902344 59.101562 83.558594 C 59.066406 84.214844 58.917969 84.859375 58.707031 85.464844 C 58.683594 85.535156 58.609375 85.570312 58.542969 85.546875 C 58.496094 85.535156 58.464844 85.492188 58.460938 85.453125 L 58.460938 85.441406 C 58.332031 84.824219 58.238281 84.230469 58.058594 83.660156 C 57.910156 83.089844 57.699219 82.542969 57.476562 82.015625 C 57.253906 81.488281 56.980469 80.988281 56.71875 80.492188 L 56.316406 79.761719 C 56.246094 79.640625 56.183594 79.519531 56.113281 79.402344 L 56.015625 79.222656 L 55.972656 79.136719 C 55.957031 79.109375 55.941406 79.078125 55.933594 79.0625 L 55.863281 78.671875 C 55.78125 78.21875 56.085938 77.78125 56.539062 77.699219 C 56.816406 77.65625 57.089844 77.757812 57.28125 77.945312 Z M 57.28125 77.945312 " fill-opacity="1" fill-rule="nonzero"/><path fill="#4f124c" d="M 65.289062 85.054688 C 64.933594 85.054688 64.597656 84.835938 64.464844 84.488281 C 64.292969 84.03125 64.519531 83.523438 64.972656 83.347656 L 71.5625 80.847656 C 72.015625 80.675781 72.523438 80.902344 72.699219 81.359375 C 72.871094 81.8125 72.644531 82.324219 72.1875 82.496094 L 65.601562 84.996094 C 65.496094 85.039062 65.390625 85.054688 65.289062 85.054688 Z M 65.289062 85.054688 " fill-opacity="1" fill-rule="nonzero"/><path fill="#4f124c" d="M 64.40625 102.304688 C 63.71875 102.304688 62.964844 102.019531 62.21875 101.464844 C 61.914062 101.242188 61.851562 100.816406 62.078125 100.507812 C 62.300781 100.210938 62.726562 100.144531 63.03125 100.367188 C 63.304688 100.574219 64.246094 101.207031 64.882812 100.804688 C 65.316406 100.535156 66.613281 99.078125 65.210938 91.71875 C 64.382812 87.355469 62.957031 85.835938 61.90625 85.324219 C 60.742188 84.761719 59.722656 85.273438 59.683594 85.296875 C 59.351562 85.46875 58.9375 85.34375 58.765625 85.011719 C 58.589844 84.679688 58.710938 84.269531 59.042969 84.089844 C 59.105469 84.054688 60.679688 83.226562 62.476562 84.082031 C 64.429688 85.011719 65.796875 87.492188 66.550781 91.460938 C 67.671875 97.335938 67.351562 100.871094 65.605469 101.960938 C 65.246094 102.191406 64.84375 102.304688 64.40625 102.304688 Z M 64.40625 102.304688 " fill-opacity="1" fill-rule="nonzero"/><path fill="#4f124c" d="M 52.886719 94.769531 C 52.148438 94.769531 51.464844 94.34375 51.109375 94.015625 C 50.832031 93.761719 50.8125 93.328125 51.066406 93.050781 C 51.320312 92.773438 51.753906 92.753906 52.03125 93.011719 C 52.191406 93.152344 52.734375 93.53125 53.082031 93.351562 C 53.324219 93.230469 54.496094 92.28125 53.859375 85.519531 C 53.332031 79.929688 52.0625 78.4375 51.347656 78.042969 C 50.863281 77.777344 50.480469 77.953125 50.441406 77.972656 C 50.113281 78.15625 49.703125 78.039062 49.515625 77.710938 C 49.328125 77.382812 49.453125 76.964844 49.78125 76.777344 C 50.152344 76.570312 51.027344 76.335938 51.949219 76.820312 C 53.667969 77.714844 54.765625 80.597656 55.214844 85.398438 C 55.730469 90.890625 55.242188 93.808594 53.683594 94.582031 C 53.425781 94.714844 53.152344 94.769531 52.886719 94.769531 Z M 52.886719 94.769531 " fill-opacity="1" fill-rule="nonzero"/><path fill="#4f124c" d="M 66.15625 93.683594 C 66.050781 93.683594 65.941406 93.660156 65.84375 93.605469 L 57.054688 89.070312 C 56.71875 88.898438 56.589844 88.488281 56.757812 88.152344 C 56.925781 87.816406 57.339844 87.6875 57.675781 87.855469 L 66.464844 92.390625 C 66.800781 92.5625 66.929688 92.972656 66.761719 93.3125 C 66.644531 93.546875 66.40625 93.683594 66.15625 93.683594 Z M 66.15625 93.683594 " fill-opacity="1" fill-rule="nonzero"/><path fill="#4f124c" d="M 66.53125 98.109375 C 66.433594 98.109375 66.339844 98.089844 66.246094 98.050781 L 57.414062 94.0625 C 57.066406 93.90625 56.917969 93.503906 57.070312 93.160156 C 57.226562 92.820312 57.632812 92.664062 57.972656 92.820312 L 66.808594 96.808594 C 67.152344 96.960938 67.304688 97.367188 67.148438 97.710938 C 67.039062 97.960938 66.789062 98.109375 66.53125 98.109375 Z M 66.53125 98.109375 " fill-opacity="1" fill-rule="nonzero"/><path fill="#4f124c" d="M 54.515625 85.84375 C 54.398438 85.84375 54.277344 85.8125 54.171875 85.75 L 47.378906 81.746094 C 47.054688 81.554688 46.945312 81.136719 47.136719 80.8125 C 47.328125 80.488281 47.746094 80.378906 48.070312 80.570312 L 54.863281 84.574219 C 55.183594 84.765625 55.292969 85.183594 55.101562 85.507812 C 54.980469 85.722656 54.746094 85.84375 54.515625 85.84375 Z M 54.515625 85.84375 " fill-opacity="1" fill-rule="nonzero"/><path fill="#4f124c" d="M 54.671875 91.417969 C 54.554688 91.417969 54.441406 91.390625 54.339844 91.332031 L 47.597656 87.527344 C 47.269531 87.339844 47.152344 86.925781 47.335938 86.601562 C 47.523438 86.273438 47.9375 86.152344 48.265625 86.339844 L 55.007812 90.140625 C 55.335938 90.328125 55.453125 90.742188 55.265625 91.070312 C 55.144531 91.289062 54.910156 91.417969 54.671875 91.417969 Z M 54.671875 91.417969 " fill-opacity="1" fill-rule="nonzero"/><path fill="#4f124c" d="M 99.4375 59.613281 C 99.0625 59.613281 98.730469 59.347656 98.660156 58.972656 C 98.574219 58.539062 98.851562 58.121094 99.28125 58.03125 L 108.730469 56.140625 C 109.164062 56.050781 109.582031 56.332031 109.667969 56.761719 C 109.753906 57.195312 109.476562 57.613281 109.046875 57.699219 L 99.597656 59.597656 C 99.542969 59.609375 99.492188 59.613281 99.4375 59.613281 Z M 99.4375 59.613281 " fill-opacity="1" fill-rule="nonzero"/><path fill="#4f124c" d="M 101.066406 55.136719 C 98.324219 58.1875 92.203125 63.289062 82.070312 63.140625 C 78.210938 63.085938 75.105469 62.695312 72.628906 62.152344 C 72.613281 62.148438 72.59375 62.144531 72.574219 62.144531 C 70.53125 61.695312 68.921875 61.136719 67.667969 60.582031 C 68.617188 59.613281 69.449219 58.851562 69.449219 58.851562 C 82.058594 47.226562 95.949219 54.703125 95.949219 54.703125 C 95.972656 54.722656 95.992188 54.742188 96.015625 54.765625 C 95.039062 54.710938 93.941406 54.667969 92.777344 54.648438 C 93.96875 54.667969 95.085938 54.714844 96.070312 54.769531 C 98.691406 54.910156 100.441406 55.125 100.441406 55.125 C 100.617188 55.128906 100.828125 55.132812 101.066406 55.136719 Z M 101.066406 55.136719 " fill-opacity="0.2" fill-rule="nonzero"/><path fill="#4f124c" d="M 66.65625 68.449219 C 66.65625 68.449219 36.71875 25.707031 32.460938 23.355469 C 32.460938 23.355469 40.242188 26.878906 68.226562 67.578125 Z M 66.65625 68.449219 " fill-opacity="1" fill-rule="nonzero"/><path fill="#4f124c" d="M 66.65625 69.328125 C 66.378906 69.328125 66.105469 69.199219 65.933594 68.957031 C 53.953125 51.839844 35.03125 25.777344 32.039062 24.125 C 31.625 23.898438 31.464844 23.382812 31.679688 22.960938 C 31.894531 22.535156 32.398438 22.359375 32.832031 22.550781 C 33.15625 22.695312 41.152344 26.644531 68.957031 67.070312 C 69.101562 67.277344 69.148438 67.53125 69.089844 67.773438 C 69.035156 68.011719 68.878906 68.222656 68.664062 68.339844 L 67.089844 69.214844 C 66.953125 69.292969 66.800781 69.328125 66.65625 69.328125 Z M 52.914062 47.679688 C 59.175781 56.28125 64.929688 64.449219 66.921875 67.289062 L 66.953125 67.269531 C 61.53125 59.40625 56.875 52.957031 52.914062 47.679688 Z M 52.914062 47.679688 " fill-opacity="1" fill-rule="nonzero"/><path fill="#4f124c" d="M 15.019531 113.472656 C 14.519531 113.472656 14.109375 113.066406 14.109375 112.5625 C 14.109375 112.480469 14.136719 104.402344 16.441406 92.230469 C 17.851562 84.765625 22.800781 78.015625 27.589844 71.488281 C 30.730469 67.207031 33.695312 63.164062 35.222656 59.402344 C 37.796875 53.074219 34.753906 46.996094 32.3125 42.117188 C 31.238281 39.964844 30.308594 38.113281 29.992188 36.503906 C 28.96875 31.316406 31.492188 23.410156 31.597656 23.074219 C 31.753906 22.597656 32.265625 22.332031 32.742188 22.488281 C 33.222656 22.640625 33.484375 23.15625 33.332031 23.632812 C 33.304688 23.710938 30.84375 31.425781 31.773438 36.152344 C 32.042969 37.511719 32.921875 39.265625 33.9375 41.296875 C 36.40625 46.230469 39.789062 52.996094 36.90625 60.085938 C 35.292969 64.058594 32.261719 68.191406 29.054688 72.5625 C 24.386719 78.925781 19.5625 85.507812 18.226562 92.570312 C 15.960938 104.558594 15.929688 112.480469 15.929688 112.558594 C 15.929688 113.0625 15.527344 113.472656 15.019531 113.472656 Z M 15.019531 113.472656 " fill-opacity="1" fill-rule="nonzero"/><path fill="#ffffff" d="M 56.605469 40.808594 C 57.8125 46.746094 61.207031 51.816406 65.933594 55.179688 C 69.964844 58.046875 74.960938 59.671875 80.394531 59.527344 C 94.023438 59.167969 105.25 47.84375 105.472656 34.238281 C 105.695312 20.628906 94.824219 9.886719 81.199219 10.246094 C 69.632812 10.554688 59.796875 18.753906 56.949219 29.542969 C 56.792969 29.515625 56.636719 29.507812 56.476562 29.519531 C 54.675781 29.667969 53.308594 32.3125 53.425781 35.429688 C 53.53125 38.382812 54.929688 40.695312 56.605469 40.808594 Z M 56.605469 40.808594 " fill-opacity="1" fill-rule="nonzero"/><path fill="#4f124c" d="M 75.640625 57.707031 C 89.269531 57.34375 100.933594 45.769531 101.15625 32.160156 C 101.296875 23.464844 94.589844 15.476562 87.847656 11.269531 C 98.269531 13.84375 105.804688 23.207031 105.621094 34.5625 C 105.402344 48.171875 94.167969 59.488281 80.539062 59.851562 C 75.625 59.980469 71.074219 58.660156 67.265625 56.289062 C 69.332031 56.800781 73.390625 57.765625 75.640625 57.707031 Z M 75.640625 57.707031 " fill-opacity="0.2" fill-rule="nonzero"/><path fill="#4f124c" d="M 60.921875 50.324219 C 69 57.382812 81.722656 57.984375 89.699219 48.839844 C 97.671875 39.699219 96.84375 26.734375 88.769531 19.675781 C 80.695312 12.621094 66.0625 14.128906 59.585938 22.90625 C 54.996094 29.125 55.570312 45.648438 60.921875 50.324219 Z M 60.921875 50.324219 " fill-opacity="1" fill-rule="nonzero"/><path fill="#ffffff" d="M 60.625 50.074219 C 64.375 53.351562 69.128906 55.234375 73.941406 55.402344 C 70.171875 54.71875 66.570312 52.992188 63.601562 50.398438 C 61.023438 48.148438 59.5625 43.152344 59.242188 37.890625 C 60.070312 37.777344 60.84375 36.824219 61.050781 35.558594 C 61.292969 34.117188 60.714844 32.8125 59.765625 32.652344 C 59.609375 32.625 59.457031 32.636719 59.300781 32.667969 C 59.628906 28.789062 60.613281 25.21875 62.261719 22.976562 C 66.15625 17.703125 72.992188 15.050781 79.589844 15.3125 C 72.164062 13.984375 63.773438 16.578125 59.289062 22.65625 C 54.707031 28.875 55.28125 45.402344 60.625 50.074219 Z M 60.625 50.074219 " fill-opacity="0.6" fill-rule="nonzero"/><path fill="#4f124c" d="M 79.726562 60.414062 C 74.523438 60.414062 69.589844 58.855469 65.425781 55.894531 C 60.570312 52.441406 57.195312 47.363281 55.867188 41.554688 C 54.039062 40.957031 52.65625 38.5 52.546875 35.464844 C 52.414062 31.890625 54.046875 28.9375 56.285156 28.65625 C 59.519531 17.566406 69.660156 9.667969 81.183594 9.363281 C 88.027344 9.183594 94.417969 11.683594 99.179688 16.398438 C 103.921875 21.097656 106.46875 27.441406 106.359375 34.253906 C 106.132812 48.304688 94.496094 60.035156 80.425781 60.410156 C 80.191406 60.410156 79.953125 60.414062 79.726562 60.414062 Z M 56.625 30.394531 C 56.597656 30.394531 56.570312 30.394531 56.539062 30.398438 C 55.398438 30.492188 54.195312 32.566406 54.300781 35.398438 C 54.398438 38.023438 55.597656 39.863281 56.664062 39.929688 C 57.058594 39.957031 57.386719 40.242188 57.46875 40.632812 C 58.609375 46.242188 61.796875 51.152344 66.441406 54.457031 C 70.484375 57.332031 75.296875 58.78125 80.371094 58.644531 C 93.515625 58.296875 104.382812 47.34375 104.589844 34.21875 C 104.695312 27.890625 102.332031 22.007812 97.933594 17.648438 C 93.515625 13.269531 87.578125 10.953125 81.21875 11.121094 C 70.246094 11.414062 60.617188 19.078125 57.796875 29.761719 C 57.675781 30.207031 57.242188 30.488281 56.789062 30.40625 C 56.738281 30.398438 56.6875 30.394531 56.625 30.394531 Z M 56.625 30.394531 " fill-opacity="1" fill-rule="nonzero"/><path fill="#ffffff" d="M 73.199219 25.277344 C 72.640625 27.871094 74.121094 28.792969 77.078125 30.203125 C 80.039062 31.617188 81.859375 32.417969 83.621094 30.296875 C 86.398438 26.949219 83.570312 23.269531 80.609375 21.859375 C 77.648438 20.445312 73.847656 22.28125 73.199219 25.277344 Z M 73.199219 25.277344 " fill-opacity="0.6" fill-rule="nonzero"/><path fill="#4f124c" d="M 100.074219 35.832031 C 98.007812 35.832031 96.40625 35.722656 96.289062 35.714844 C 95.804688 35.675781 95.4375 35.257812 95.476562 34.769531 C 95.511719 34.285156 95.929688 33.917969 96.417969 33.957031 C 96.46875 33.960938 101.628906 34.316406 105.332031 33.738281 C 105.816406 33.664062 106.265625 33.992188 106.339844 34.476562 C 106.410156 34.957031 106.082031 35.410156 105.605469 35.480469 C 103.828125 35.753906 101.792969 35.832031 100.074219 35.832031 Z M 100.074219 35.832031 " fill-opacity="1" fill-rule="nonzero"/><path fill="#4f124c" d="M 74.933594 56.542969 C 69.691406 56.542969 64.394531 54.53125 60.34375 50.988281 C 57.675781 48.65625 55.921875 43.519531 55.648438 37.234375 C 55.382812 31.132812 56.621094 25.445312 58.878906 22.386719 C 62.09375 18.023438 67.414062 15.140625 73.457031 14.480469 C 79.503906 13.820312 85.292969 15.476562 89.347656 19.015625 C 93.488281 22.632812 95.894531 27.757812 96.128906 33.445312 C 96.371094 39.210938 94.320312 44.882812 90.359375 49.421875 C 86.460938 53.890625 81.136719 56.417969 75.363281 56.539062 C 75.21875 56.539062 75.074219 56.542969 74.933594 56.542969 Z M 76.058594 16.097656 C 75.265625 16.097656 74.457031 16.144531 73.648438 16.230469 C 68.089844 16.835938 63.222656 19.457031 60.292969 23.429688 C 55.863281 29.4375 56.59375 45.375 61.5 49.660156 C 65.335938 53.015625 70.378906 54.878906 75.328125 54.773438 C 80.601562 54.660156 85.46875 52.347656 89.035156 48.257812 C 96.453125 39.753906 96.070312 27.230469 88.1875 20.335938 C 85.042969 17.597656 80.71875 16.097656 76.058594 16.097656 Z M 76.058594 16.097656 " fill-opacity="1" fill-rule="nonzero"/><path fill="#d4d4d4" d="M 97.738281 28.773438 C 98.097656 28.792969 98.449219 28.859375 98.796875 28.976562 C 99.140625 29.09375 99.472656 29.253906 99.792969 29.460938 C 100.113281 29.671875 100.417969 29.921875 100.699219 30.214844 C 100.980469 30.503906 101.238281 30.832031 101.472656 31.199219 C 101.707031 31.5625 101.910156 31.957031 102.089844 32.382812 C 102.265625 32.804688 102.410156 33.25 102.519531 33.714844 C 102.632812 34.183594 102.710938 34.660156 102.753906 35.152344 C 102.796875 35.640625 102.804688 36.136719 102.777344 36.632812 C 102.75 37.128906 102.6875 37.617188 102.589844 38.101562 C 102.496094 38.585938 102.367188 39.050781 102.203125 39.503906 C 102.042969 39.953125 101.851562 40.378906 101.628906 40.78125 C 101.40625 41.183594 101.160156 41.554688 100.886719 41.890625 C 100.617188 42.226562 100.324219 42.527344 100.011719 42.785156 C 99.699219 43.046875 99.371094 43.261719 99.03125 43.433594 C 98.6875 43.605469 98.339844 43.730469 97.984375 43.808594 C 97.628906 43.882812 97.269531 43.914062 96.914062 43.894531 C 96.554688 43.875 96.203125 43.804688 95.855469 43.691406 C 95.511719 43.574219 95.179688 43.414062 94.859375 43.203125 C 94.539062 42.996094 94.238281 42.746094 93.953125 42.453125 C 93.671875 42.160156 93.414062 41.832031 93.179688 41.46875 C 92.945312 41.101562 92.742188 40.707031 92.5625 40.285156 C 92.386719 39.863281 92.242188 39.417969 92.132812 38.949219 C 92.019531 38.484375 91.941406 38.007812 91.898438 37.515625 C 91.855469 37.023438 91.847656 36.53125 91.875 36.035156 C 91.902344 35.539062 91.964844 35.046875 92.0625 34.566406 C 92.15625 34.082031 92.285156 33.613281 92.449219 33.164062 C 92.609375 32.710938 92.804688 32.285156 93.023438 31.882812 C 93.246094 31.484375 93.492188 31.113281 93.765625 30.777344 C 94.035156 30.4375 94.328125 30.140625 94.640625 29.882812 C 94.953125 29.621094 95.28125 29.40625 95.621094 29.234375 C 95.964844 29.0625 96.3125 28.9375 96.667969 28.859375 C 97.023438 28.78125 97.382812 28.753906 97.738281 28.773438 Z M 97.738281 28.773438 " fill-opacity="1" fill-rule="nonzero"/><path fill="#a3a3a3" d="M 97.453125 32.675781 C 97.730469 32.6875 98 32.789062 98.25 32.984375 C 98.503906 33.179688 98.722656 33.453125 98.90625 33.800781 C 99.09375 34.152344 99.230469 34.554688 99.324219 35.007812 C 99.414062 35.457031 99.449219 35.925781 99.433594 36.410156 C 99.414062 36.898438 99.34375 37.363281 99.21875 37.804688 C 99.097656 38.25 98.929688 38.640625 98.71875 38.976562 C 98.507812 39.3125 98.269531 39.566406 98.003906 39.742188 C 97.738281 39.921875 97.464844 40.003906 97.183594 39.992188 C 96.902344 39.980469 96.636719 39.878906 96.386719 39.683594 C 96.132812 39.488281 95.914062 39.214844 95.730469 38.867188 C 95.542969 38.515625 95.40625 38.113281 95.3125 37.664062 C 95.222656 37.210938 95.1875 36.742188 95.203125 36.257812 C 95.222656 35.773438 95.292969 35.308594 95.417969 34.863281 C 95.539062 34.417969 95.707031 34.027344 95.917969 33.691406 C 96.128906 33.355469 96.367188 33.101562 96.632812 32.925781 C 96.898438 32.75 97.171875 32.664062 97.453125 32.675781 Z M 97.453125 32.675781 " fill-opacity="1" fill-rule="nonzero"/><path fill="#4f124c" d="M 97.117188 44.777344 C 95.757812 44.777344 94.480469 44.222656 93.414062 43.167969 C 91.828125 41.589844 90.933594 39.140625 90.976562 36.441406 C 91.039062 31.800781 93.929688 27.960938 97.410156 27.878906 C 98.804688 27.84375 100.132812 28.402344 101.226562 29.488281 C 102.8125 31.066406 103.703125 33.515625 103.664062 36.210938 C 103.601562 40.847656 100.710938 44.691406 97.230469 44.773438 C 97.195312 44.777344 97.160156 44.777344 97.117188 44.777344 Z M 97.519531 29.640625 C 97.496094 29.640625 97.46875 29.640625 97.445312 29.640625 C 94.898438 29.699219 92.785156 32.757812 92.730469 36.464844 C 92.699219 38.648438 93.417969 40.691406 94.652344 41.910156 C 95.398438 42.652344 96.277344 43.035156 97.191406 43.011719 C 99.738281 42.953125 101.847656 39.894531 101.902344 36.1875 C 101.933594 34 101.214844 31.960938 99.984375 30.742188 C 99.253906 30.023438 98.40625 29.640625 97.519531 29.640625 Z M 91.855469 36.457031 Z M 91.855469 36.457031 " fill-opacity="1" fill-rule="nonzero"/><path fill="#4f124c" d="M 97.226562 40.867188 C 96.628906 40.867188 96.070312 40.621094 95.597656 40.15625 C 94.773438 39.351562 94.296875 37.941406 94.320312 36.382812 C 94.355469 33.820312 95.652344 31.84375 97.339844 31.789062 C 97.960938 31.765625 98.546875 32.015625 99.042969 32.5 C 99.863281 33.304688 100.34375 34.714844 100.320312 36.273438 C 100.285156 38.835938 98.988281 40.8125 97.300781 40.867188 C 97.277344 40.867188 97.25 40.867188 97.226562 40.867188 Z M 97.410156 33.550781 C 97.402344 33.550781 97.398438 33.550781 97.398438 33.550781 C 96.890625 33.570312 96.109375 34.714844 96.085938 36.410156 C 96.066406 37.691406 96.476562 38.550781 96.835938 38.90625 C 96.976562 39.046875 97.117188 39.113281 97.246094 39.109375 C 97.753906 39.09375 98.535156 37.945312 98.558594 36.25 C 98.578125 34.972656 98.167969 34.109375 97.808594 33.753906 C 97.667969 33.617188 97.535156 33.550781 97.410156 33.550781 Z M 97.410156 33.550781 " fill-opacity="1" fill-rule="nonzero"/><path fill="#ffffff" d="M 56.535156 40.945312 C 57.746094 46.882812 61.140625 51.953125 65.867188 55.316406 C 69.894531 58.183594 74.890625 59.808594 80.328125 59.664062 C 93.957031 59.304688 105.183594 47.980469 105.40625 34.375 C 105.628906 20.765625 94.757812 10.023438 81.132812 10.382812 C 69.5625 10.6875 59.730469 18.890625 56.882812 29.679688 C 56.726562 29.652344 56.566406 29.644531 56.40625 29.65625 C 54.605469 29.804688 53.242188 32.449219 53.355469 35.566406 C 53.460938 38.519531 54.855469 40.835938 56.535156 40.945312 Z M 56.535156 40.945312 " fill-opacity="1" fill-rule="nonzero"/><path fill="#4f124c" d="M 75.570312 57.847656 C 89.199219 57.488281 100.859375 45.914062 101.085938 32.304688 C 101.226562 23.605469 94.515625 15.617188 87.773438 11.410156 C 98.195312 13.984375 105.734375 23.347656 105.546875 34.703125 C 105.328125 48.3125 94.097656 59.632812 80.46875 59.992188 C 75.550781 60.121094 71 58.800781 67.195312 56.429688 C 69.257812 56.941406 73.316406 57.90625 75.570312 57.847656 Z M 75.570312 57.847656 " fill-opacity="0.2" fill-rule="nonzero"/><path fill="#4f124c" d="M 60.847656 50.460938 C 68.925781 57.519531 81.652344 58.121094 89.625 48.976562 C 97.601562 39.835938 96.773438 26.871094 88.695312 19.8125 C 80.621094 12.757812 65.988281 14.261719 59.515625 23.042969 C 54.925781 29.261719 55.5 45.789062 60.847656 50.460938 Z M 60.847656 50.460938 " fill-opacity="1" fill-rule="nonzero"/><path fill="#ffffff" d="M 60.097656 50.4375 C 63.847656 53.714844 68.597656 55.601562 73.414062 55.765625 C 69.644531 55.082031 66.042969 53.355469 63.074219 50.761719 C 60.496094 48.511719 59.03125 43.519531 58.714844 38.253906 C 59.542969 38.140625 60.316406 37.1875 60.523438 35.921875 C 60.765625 34.480469 60.1875 33.175781 59.238281 33.019531 C 59.082031 32.992188 58.929688 33 58.773438 33.03125 C 59.101562 29.152344 60.082031 25.582031 61.734375 23.34375 C 65.628906 18.066406 72.464844 15.414062 79.0625 15.675781 C 71.636719 14.351562 63.246094 16.941406 58.761719 23.019531 C 54.179688 29.238281 54.753906 45.765625 60.097656 50.4375 Z M 60.097656 50.4375 " fill-opacity="0.6" fill-rule="nonzero"/><path fill="#4f124c" d="M 79.652344 60.550781 C 74.449219 60.550781 69.519531 58.992188 65.351562 56.03125 C 60.496094 52.578125 57.121094 47.5 55.792969 41.691406 C 53.964844 41.09375 52.582031 38.636719 52.472656 35.601562 C 52.339844 32.027344 53.972656 29.074219 56.210938 28.792969 C 59.445312 17.703125 69.585938 9.804688 81.109375 9.5 C 87.957031 9.320312 94.347656 11.820312 99.105469 16.535156 C 103.851562 21.234375 106.398438 27.578125 106.289062 34.386719 C 106.0625 48.441406 94.425781 60.171875 80.355469 60.546875 C 80.117188 60.550781 79.886719 60.550781 79.652344 60.550781 Z M 56.554688 30.53125 C 56.527344 30.53125 56.5 30.53125 56.472656 30.535156 C 55.328125 30.628906 54.128906 32.703125 54.234375 35.535156 C 54.328125 38.160156 55.53125 40 56.59375 40.066406 C 56.992188 40.09375 57.316406 40.378906 57.398438 40.765625 C 58.542969 46.378906 61.730469 51.289062 66.375 54.59375 C 70.414062 57.46875 75.226562 58.917969 80.304688 58.78125 C 93.445312 58.433594 104.3125 47.480469 104.523438 34.355469 C 104.628906 28.027344 102.261719 22.144531 97.863281 17.785156 C 93.445312 13.40625 87.511719 11.089844 81.148438 11.257812 C 70.179688 11.550781 60.546875 19.214844 57.726562 29.898438 C 57.609375 30.339844 57.171875 30.617188 56.722656 30.542969 C 56.671875 30.535156 56.613281 30.53125 56.554688 30.53125 Z M 56.554688 30.53125 " fill-opacity="1" fill-rule="nonzero"/><path fill="#4f124c" d="M 100 35.96875 C 97.9375 35.96875 96.335938 35.859375 96.214844 35.851562 C 95.730469 35.8125 95.367188 35.394531 95.402344 34.90625 C 95.4375 34.421875 95.855469 34.054688 96.34375 34.09375 C 96.394531 34.097656 101.558594 34.453125 105.261719 33.875 C 105.738281 33.800781 106.191406 34.128906 106.265625 34.613281 C 106.339844 35.09375 106.011719 35.546875 105.53125 35.617188 C 103.757812 35.890625 101.722656 35.96875 100 35.96875 Z M 100 35.96875 " fill-opacity="1" fill-rule="nonzero"/><path fill="#4f124c" d="M 74.859375 56.679688 C 69.617188 56.679688 64.324219 54.667969 60.269531 51.125 C 57.605469 48.792969 55.847656 43.652344 55.574219 37.371094 C 55.3125 31.269531 56.550781 25.582031 58.804688 22.523438 C 62.023438 18.160156 67.339844 15.277344 73.386719 14.617188 C 79.429688 13.957031 85.222656 15.613281 89.273438 19.152344 C 93.414062 22.769531 95.820312 27.894531 96.058594 33.582031 C 96.296875 39.347656 94.246094 45.019531 90.285156 49.558594 C 86.386719 54.027344 81.0625 56.554688 75.292969 56.675781 C 75.144531 56.679688 75.003906 56.679688 74.859375 56.679688 Z M 75.988281 16.238281 C 75.191406 16.238281 74.386719 16.285156 73.574219 16.371094 C 68.015625 16.976562 63.148438 19.601562 60.21875 23.570312 C 55.789062 29.582031 56.523438 45.515625 61.425781 49.800781 C 65.265625 53.15625 70.304688 55.019531 75.253906 54.914062 C 80.527344 54.800781 85.394531 52.488281 88.960938 48.398438 C 92.621094 44.199219 94.519531 38.964844 94.296875 33.65625 C 94.078125 28.457031 91.886719 23.78125 88.113281 20.484375 C 84.972656 17.734375 80.644531 16.238281 75.988281 16.238281 Z M 75.988281 16.238281 " fill-opacity="1" fill-rule="nonzero"/><path fill="#d4d4d4" d="M 97.667969 28.90625 C 98.023438 28.925781 98.375 28.996094 98.722656 29.113281 C 99.066406 29.226562 99.402344 29.390625 99.722656 29.597656 C 100.042969 29.804688 100.34375 30.054688 100.625 30.347656 C 100.90625 30.640625 101.164062 30.96875 101.398438 31.332031 C 101.632812 31.699219 101.839844 32.09375 102.015625 32.515625 C 102.191406 32.941406 102.335938 33.386719 102.445312 33.851562 C 102.558594 34.316406 102.636719 34.796875 102.679688 35.285156 C 102.722656 35.777344 102.730469 36.269531 102.703125 36.765625 C 102.675781 37.261719 102.613281 37.753906 102.519531 38.238281 C 102.421875 38.71875 102.292969 39.1875 102.128906 39.636719 C 101.96875 40.089844 101.777344 40.515625 101.554688 40.917969 C 101.332031 41.320312 101.085938 41.6875 100.8125 42.027344 C 100.542969 42.363281 100.25 42.660156 99.9375 42.921875 C 99.625 43.179688 99.296875 43.394531 98.957031 43.566406 C 98.613281 43.738281 98.265625 43.863281 97.910156 43.941406 C 97.554688 44.019531 97.195312 44.046875 96.839844 44.027344 C 96.480469 44.007812 96.128906 43.941406 95.785156 43.824219 C 95.4375 43.710938 95.105469 43.546875 94.785156 43.339844 C 94.464844 43.132812 94.164062 42.878906 93.878906 42.589844 C 93.597656 42.296875 93.339844 41.96875 93.105469 41.601562 C 92.871094 41.238281 92.667969 40.84375 92.492188 40.421875 C 92.3125 39.996094 92.171875 39.550781 92.058594 39.085938 C 91.945312 38.621094 91.867188 38.140625 91.824219 37.648438 C 91.78125 37.160156 91.773438 36.664062 91.800781 36.167969 C 91.828125 35.671875 91.890625 35.183594 91.988281 34.699219 C 92.082031 34.21875 92.214844 33.75 92.375 33.300781 C 92.539062 32.847656 92.730469 32.421875 92.949219 32.019531 C 93.171875 31.617188 93.417969 31.246094 93.691406 30.910156 C 93.964844 30.574219 94.253906 30.273438 94.570312 30.015625 C 94.882812 29.757812 95.207031 29.539062 95.550781 29.367188 C 95.890625 29.195312 96.238281 29.074219 96.59375 28.996094 C 96.953125 28.917969 97.308594 28.886719 97.667969 28.90625 Z M 97.667969 28.90625 " fill-opacity="1" fill-rule="nonzero"/><path fill="#a3a3a3" d="M 97.378906 32.816406 C 97.660156 32.824219 97.925781 32.929688 98.175781 33.125 C 98.429688 33.320312 98.648438 33.589844 98.832031 33.941406 C 99.019531 34.292969 99.15625 34.695312 99.25 35.144531 C 99.339844 35.597656 99.375 36.066406 99.359375 36.550781 C 99.339844 37.035156 99.269531 37.5 99.144531 37.945312 C 99.023438 38.390625 98.855469 38.78125 98.644531 39.117188 C 98.433594 39.453125 98.195312 39.707031 97.929688 39.882812 C 97.664062 40.058594 97.390625 40.140625 97.109375 40.132812 C 96.828125 40.121094 96.5625 40.019531 96.3125 39.824219 C 96.058594 39.628906 95.839844 39.355469 95.65625 39.007812 C 95.46875 38.65625 95.332031 38.253906 95.238281 37.800781 C 95.148438 37.351562 95.113281 36.882812 95.128906 36.394531 C 95.148438 35.910156 95.21875 35.445312 95.34375 35.003906 C 95.464844 34.558594 95.632812 34.167969 95.84375 33.832031 C 96.054688 33.496094 96.292969 33.242188 96.558594 33.066406 C 96.824219 32.886719 97.097656 32.804688 97.378906 32.816406 Z M 97.378906 32.816406 " fill-opacity="1" fill-rule="nonzero"/><path fill="#4f124c" d="M 97.042969 44.914062 C 95.683594 44.914062 94.40625 44.359375 93.339844 43.304688 C 91.753906 41.726562 90.863281 39.277344 90.902344 36.578125 C 90.96875 31.9375 93.855469 28.097656 97.335938 28.015625 C 98.730469 27.976562 100.0625 28.539062 101.152344 29.625 C 102.738281 31.203125 103.632812 33.652344 103.589844 36.347656 C 103.527344 40.984375 100.636719 44.828125 97.160156 44.910156 C 97.121094 44.914062 97.085938 44.914062 97.042969 44.914062 Z M 97.445312 29.78125 C 97.421875 29.78125 97.394531 29.78125 97.371094 29.78125 C 94.824219 29.839844 92.714844 32.898438 92.660156 36.605469 C 92.628906 38.792969 93.347656 40.832031 94.578125 42.050781 C 95.324219 42.792969 96.203125 43.175781 97.117188 43.152344 C 99.664062 43.09375 101.777344 40.03125 101.832031 36.328125 C 101.863281 34.144531 101.144531 32.101562 99.910156 30.882812 C 99.183594 30.160156 98.332031 29.78125 97.445312 29.78125 Z M 91.78125 36.59375 Z M 91.78125 36.59375 " fill-opacity="1" fill-rule="nonzero"/><path fill="#4f124c" d="M 97.160156 40.808594 C 96.617188 40.808594 96.101562 40.585938 95.667969 40.152344 C 94.882812 39.382812 94.429688 38.027344 94.445312 36.523438 C 94.480469 34.105469 95.722656 32.175781 97.277344 32.125 C 97.839844 32.109375 98.378906 32.335938 98.832031 32.777344 C 99.613281 33.546875 100.070312 34.902344 100.050781 36.40625 C 100.019531 38.824219 98.777344 40.753906 97.222656 40.804688 C 97.199219 40.808594 97.175781 40.808594 97.160156 40.808594 Z M 95.8125 36.542969 C 95.796875 37.644531 96.117188 38.683594 96.621094 39.179688 C 96.804688 39.355469 96.988281 39.445312 97.175781 39.441406 C 97.867188 39.417969 98.660156 38.109375 98.683594 36.386719 C 98.695312 35.285156 98.378906 34.246094 97.871094 33.75 C 97.691406 33.570312 97.503906 33.484375 97.316406 33.488281 C 96.625 33.515625 95.835938 34.820312 95.8125 36.542969 Z M 95.8125 36.542969 " fill-opacity="1" fill-rule="nonzero"/><path fill="#ffffff" d="M 84.007812 29.703125 C 82.355469 31.214844 80.359375 30.304688 76.714844 28.324219 C 73.070312 26.34375 70.886719 25.09375 71.140625 22.742188 C 71.546875 19.03125 76.933594 20.003906 80.574219 21.984375 C 84.214844 23.964844 85.914062 27.960938 84.007812 29.703125 Z M 84.007812 29.703125 " fill-opacity="0.4" fill-rule="nonzero"/><path fill="#ffce00" d="M 24.199219 123.953125 C 24.199219 123.953125 28.714844 131.335938 26.183594 132.546875 C 23.652344 133.757812 17.035156 129.679688 17.035156 129.679688 C 17.035156 129.679688 11.1875 136.296875 9.011719 134.894531 C 6.957031 133.574219 8.648438 125.128906 8.648438 125.128906 C 8.648438 125.128906 1.484375 123.046875 2.035156 120.3125 L 2.035156 120.304688 C 2.039062 120.273438 2.046875 120.242188 2.054688 120.207031 C 2.882812 117.109375 10.75 117.273438 10.75 117.273438 C 10.75 117.273438 12.085938 109.675781 15.277344 109.703125 C 18.035156 109.726562 20.457031 116.3125 20.457031 116.3125 C 20.457031 116.3125 27.039062 115.148438 28.585938 116.707031 C 28.691406 116.804688 28.769531 116.917969 28.824219 117.050781 C 29.875 119.496094 24.199219 123.953125 24.199219 123.953125 Z M 24.199219 123.953125 " fill-opacity="1" fill-rule="nonzero"/><path fill="#ffffff" d="M 28.589844 117.160156 L 28.589844 118.082031 C 26.683594 116.941406 19.824219 118.339844 19.824219 118.339844 C 19.824219 118.339844 16.8125 111.835938 15.09375 111.835938 C 13.371094 111.835938 11.496094 119.21875 11.496094 119.21875 C 6.457031 119.019531 3.558594 119.972656 2.042969 120.761719 C 2.046875 120.730469 2.054688 120.699219 2.066406 120.660156 C 2.894531 117.566406 10.757812 117.730469 10.757812 117.730469 C 10.757812 117.730469 12.097656 110.128906 15.285156 110.15625 C 18.046875 110.179688 20.464844 116.769531 20.464844 116.769531 C 20.464844 116.769531 27.042969 115.609375 28.589844 117.160156 Z M 28.589844 117.160156 " fill-opacity="0.6" fill-rule="nonzero"/><g mask="url(#ef7a1b6eb3)"><g transform="matrix(1, 0, 0, 1, 1, 116)"><g clip-path="url(#b6586f4e04)"><g clip-path="url(#2fc460a112)"><path fill="#4f124c" d="M 25.183594 13.617188 C 22.652344 14.828125 16.035156 10.753906 16.035156 10.753906 C 16.035156 10.753906 10.191406 17.363281 8.015625 15.96875 C 7.453125 15.601562 7.171875 14.695312 7.054688 13.582031 C 6.898438 15.839844 6.996094 18.238281 8.015625 18.894531 C 10.191406 20.292969 16.035156 13.679688 16.035156 13.679688 C 16.035156 13.679688 22.65625 17.757812 25.183594 16.546875 C 26.148438 16.085938 26.089844 14.730469 25.648438 13.226562 C 25.53125 13.390625 25.378906 13.527344 25.183594 13.617188 Z M 25.183594 13.617188 " fill-opacity="1" fill-rule="nonzero"/></g><path fill="#4f124c" d="M 8.875 6.621094 C 8.875 6.621094 3.417969 4.972656 1.707031 3.160156 C 1.394531 3.460938 1.164062 3.804688 1.054688 4.210938 C 0.417969 6.59375 6.839844 8.976562 8.398438 9.488281 C 8.589844 7.902344 8.875 6.621094 8.875 6.621094 Z M 8.875 6.621094 " fill-opacity="1" fill-rule="nonzero"/><g clip-path="url(#7d26e07e28)"><path fill="#4f124c" d="M 27.382812 0.535156 C 26.117188 2.734375 21.421875 6.144531 21.421875 6.144531 C 21.421875 6.144531 22.085938 7.300781 22.667969 8.460938 C 24.507812 6.824219 28.878906 2.957031 27.824219 1.054688 C 27.71875 0.855469 27.582031 0.679688 27.382812 0.535156 Z M 27.382812 0.535156 " fill-opacity="1" fill-rule="nonzero"/></g></g></g></g><path fill="#4f124c" d="M 9.683594 135.960938 C 9.265625 135.960938 8.878906 135.859375 8.535156 135.640625 C 6.402344 134.265625 7.152344 128.441406 7.632812 125.738281 C 5.425781 125.003906 0.398438 122.988281 1.207031 119.984375 C 2.046875 116.839844 7.851562 116.441406 10.027344 116.398438 C 10.484375 114.296875 12 108.800781 15.28125 108.828125 C 18.074219 108.851562 20.21875 113.382812 21.019531 115.339844 C 21.761719 115.234375 22.992188 115.085938 24.277344 115.035156 C 27.394531 114.921875 29.09375 115.449219 29.632812 116.707031 C 30.71875 119.242188 27.015625 122.746094 25.34375 124.160156 C 26.320312 125.867188 28.34375 129.796875 27.703125 131.96875 C 27.515625 132.601562 27.121094 133.074219 26.558594 133.34375 C 24.078125 134.53125 19.15625 131.949219 17.195312 130.8125 C 15.582031 132.566406 12.132812 135.960938 9.683594 135.960938 Z M 10.425781 118.152344 C 7.984375 118.152344 3.378906 118.679688 2.90625 120.433594 C 2.566406 121.710938 6.164062 123.484375 8.894531 124.28125 C 9.335938 124.410156 9.597656 124.851562 9.511719 125.300781 C 8.769531 129.015625 8.578125 133.570312 9.488281 134.15625 C 10.292969 134.675781 13.574219 132.261719 16.375 129.097656 C 16.660156 128.78125 17.132812 128.707031 17.496094 128.929688 C 20.074219 130.519531 24.359375 132.441406 25.800781 131.75 C 25.875 131.710938 25.960938 131.65625 26.015625 131.460938 C 26.40625 130.136719 24.75 126.539062 23.449219 124.410156 C 23.21875 124.027344 23.304688 123.53125 23.660156 123.257812 C 25.8125 121.5625 28.527344 118.582031 28.015625 117.394531 C 27.707031 116.667969 24.109375 116.5625 20.617188 117.179688 C 20.199219 117.25 19.785156 117.015625 19.636719 116.613281 C 18.71875 114.113281 16.753906 110.59375 15.269531 110.582031 C 15.265625 110.582031 15.265625 110.582031 15.261719 110.582031 C 13.417969 110.582031 12.015625 115.1875 11.617188 117.425781 C 11.539062 117.851562 11.171875 118.160156 10.730469 118.152344 C 10.636719 118.15625 10.53125 118.152344 10.425781 118.152344 Z M 10.425781 118.152344 " fill-opacity="1" fill-rule="nonzero"/></svg>